<?xml version="1.0" encoding="UTF-8"?>
<svg xmlns="http://www.w3.org/2000/svg" xmlns:xlink="http://www.w3.org/1999/xlink" width="1568.929081pt" height="313.785816pt" viewBox="0 0 1568.929081 313.785816" version="1.1">
<g id="surface116">
<rect x="0" y="0" width="1568.929081" height="313.785816" style="fill:rgb(98.039216%,92.156863%,84.313725%);fill-opacity:1;stroke:none;"/>
<path style="fill:none;stroke-width:2;stroke-linecap:butt;stroke-linejoin:miter;stroke:rgb(0%,0%,0%);stroke-opacity:1;stroke-miterlimit:10;" d="M 348.652344 69.730469 L 457.605469 69.730469 "/>
<path style="fill:none;stroke-width:2;stroke-linecap:butt;stroke-linejoin:miter;stroke:rgb(0%,0%,0%);stroke-opacity:1;stroke-miterlimit:10;" d="M 457.605469 69.730469 L 566.558594 69.730469 "/>
<path style="fill:none;stroke-width:2;stroke-linecap:butt;stroke-linejoin:miter;stroke:rgb(0%,0%,0%);stroke-opacity:1;stroke-miterlimit:10;" d="M 566.558594 69.730469 L 675.511719 69.730469 "/>
<path style="fill:none;stroke-width:2;stroke-linecap:butt;stroke-linejoin:miter;stroke:rgb(0%,0%,0%);stroke-opacity:1;stroke-miterlimit:10;" d="M 675.511719 69.730469 L 784.464844 69.730469 "/>
<path style="fill:none;stroke-width:2;stroke-linecap:butt;stroke-linejoin:miter;stroke:rgb(0%,0%,0%);stroke-opacity:1;stroke-miterlimit:10;" d="M 784.464844 69.730469 L 893.417969 69.730469 "/>
<path style="fill:none;stroke-width:2;stroke-linecap:butt;stroke-linejoin:miter;stroke:rgb(0%,0%,0%);stroke-opacity:1;stroke-miterlimit:10;" d="M 893.417969 69.730469 L 1002.371094 69.730469 "/>
<path style="fill:none;stroke-width:2;stroke-linecap:butt;stroke-linejoin:miter;stroke:rgb(0%,0%,0%);stroke-opacity:1;stroke-miterlimit:10;" d="M 1002.371094 69.730469 L 1111.324219 69.730469 "/>
<path style="fill:none;stroke-width:2;stroke-linecap:butt;stroke-linejoin:miter;stroke:rgb(0%,0%,0%);stroke-opacity:1;stroke-miterlimit:10;" d="M 1111.324219 69.730469 L 1220.277344 69.730469 "/>
<path style="fill:none;stroke-width:2;stroke-linecap:butt;stroke-linejoin:miter;stroke:rgb(0%,0%,0%);stroke-opacity:1;stroke-miterlimit:10;" d="M 457.605469 244.054688 L 675.511719 244.054688 "/>
<path style="fill:none;stroke-width:2;stroke-linecap:butt;stroke-linejoin:miter;stroke:rgb(0%,0%,0%);stroke-opacity:1;stroke-miterlimit:10;" d="M 675.511719 244.054688 L 893.417969 244.054688 "/>
<path style="fill:none;stroke-width:2;stroke-linecap:butt;stroke-linejoin:miter;stroke:rgb(0%,0%,0%);stroke-opacity:1;stroke-miterlimit:10;" d="M 893.417969 244.054688 L 1111.324219 244.054688 "/>
<path style="fill:none;stroke-width:2;stroke-linecap:butt;stroke-linejoin:miter;stroke:rgb(0%,0%,0%);stroke-opacity:1;stroke-miterlimit:10;" d="M 457.605469 244.054688 L 348.652344 69.730469 "/>
<path style="fill:none;stroke-width:2;stroke-linecap:butt;stroke-linejoin:miter;stroke:rgb(0%,0%,0%);stroke-opacity:1;stroke-miterlimit:10;" d="M 457.605469 244.054688 L 457.605469 69.730469 "/>
<path style="fill:none;stroke-width:2;stroke-linecap:butt;stroke-linejoin:miter;stroke:rgb(0%,0%,0%);stroke-opacity:1;stroke-miterlimit:10;" d="M 457.605469 244.054688 L 566.558594 69.730469 "/>
<path style="fill:none;stroke-width:2;stroke-linecap:butt;stroke-linejoin:miter;stroke:rgb(0%,0%,0%);stroke-opacity:1;stroke-miterlimit:10;" d="M 675.511719 244.054688 L 566.558594 69.730469 "/>
<path style="fill:none;stroke-width:2;stroke-linecap:butt;stroke-linejoin:miter;stroke:rgb(0%,0%,0%);stroke-opacity:1;stroke-miterlimit:10;" d="M 675.511719 244.054688 L 675.511719 69.730469 "/>
<path style="fill:none;stroke-width:2;stroke-linecap:butt;stroke-linejoin:miter;stroke:rgb(0%,0%,0%);stroke-opacity:1;stroke-miterlimit:10;" d="M 675.511719 244.054688 L 784.464844 69.730469 "/>
<path style="fill:none;stroke-width:2;stroke-linecap:butt;stroke-linejoin:miter;stroke:rgb(0%,0%,0%);stroke-opacity:1;stroke-miterlimit:10;" d="M 893.417969 244.054688 L 784.464844 69.730469 "/>
<path style="fill:none;stroke-width:2;stroke-linecap:butt;stroke-linejoin:miter;stroke:rgb(0%,0%,0%);stroke-opacity:1;stroke-miterlimit:10;" d="M 893.417969 244.054688 L 893.417969 69.730469 "/>
<path style="fill:none;stroke-width:2;stroke-linecap:butt;stroke-linejoin:miter;stroke:rgb(0%,0%,0%);stroke-opacity:1;stroke-miterlimit:10;" d="M 893.417969 244.054688 L 1002.371094 69.730469 "/>
<path style="fill:none;stroke-width:2;stroke-linecap:butt;stroke-linejoin:miter;stroke:rgb(0%,0%,0%);stroke-opacity:1;stroke-miterlimit:10;" d="M 1111.324219 244.054688 L 1002.371094 69.730469 "/>
<path style="fill:none;stroke-width:2;stroke-linecap:butt;stroke-linejoin:miter;stroke:rgb(0%,0%,0%);stroke-opacity:1;stroke-miterlimit:10;" d="M 1111.324219 244.054688 L 1111.324219 69.730469 "/>
<path style="fill:none;stroke-width:2;stroke-linecap:butt;stroke-linejoin:miter;stroke:rgb(0%,0%,0%);stroke-opacity:1;stroke-miterlimit:10;" d="M 1111.324219 244.054688 L 1220.277344 69.730469 "/>
<path style="fill:none;stroke-width:4;stroke-linecap:butt;stroke-linejoin:miter;stroke:rgb(78.039216%,8.235294%,52.156863%);stroke-opacity:1;stroke-miterlimit:10;" d="M 784.464844 69.730469 L 784.464844 212.410156 "/>
<path style=" stroke:none;fill-rule:nonzero;fill:rgb(78.039216%,8.235294%,52.156863%);fill-opacity:1;" d="M 794.464844 212.410156 L 784.464844 229.730469 L 774.464844 212.410156 "/>
<path style="fill:none;stroke-width:2;stroke-linecap:butt;stroke-linejoin:miter;stroke:rgb(0%,50.196078%,0%);stroke-opacity:1;stroke-miterlimit:10;" d="M 354.652344 69.730469 C 354.652344 73.042969 351.964844 75.730469 348.652344 75.730469 C 345.335938 75.730469 342.652344 73.042969 342.652344 69.730469 C 342.652344 66.417969 345.335938 63.730469 348.652344 63.730469 C 351.964844 63.730469 354.652344 66.417969 354.652344 69.730469 "/>
<path style="fill:none;stroke-width:2;stroke-linecap:butt;stroke-linejoin:miter;stroke:rgb(0%,50.196078%,0%);stroke-opacity:1;stroke-miterlimit:10;" d="M 1204.277344 65.730469 L 1236.277344 65.730469 "/>
<path style="fill:none;stroke-width:2;stroke-linecap:butt;stroke-linejoin:miter;stroke:rgb(0%,50.196078%,0%);stroke-opacity:1;stroke-miterlimit:10;" d="M 1204.277344 73.730469 L 1236.277344 73.730469 "/>
<path style=" stroke:none;fill-rule:nonzero;fill:rgb(0%,0%,0%);fill-opacity:1;" d="M 352.652344 69.730469 C 352.652344 75.0625 344.652344 75.0625 344.652344 69.730469 C 344.652344 64.398438 352.652344 64.398438 352.652344 69.730469 "/>
<path style=" stroke:none;fill-rule:nonzero;fill:rgb(0%,0%,0%);fill-opacity:1;" d="M 461.605469 69.730469 C 461.605469 75.0625 453.605469 75.0625 453.605469 69.730469 C 453.605469 64.398438 461.605469 64.398438 461.605469 69.730469 "/>
<path style=" stroke:none;fill-rule:nonzero;fill:rgb(0%,0%,0%);fill-opacity:1;" d="M 570.558594 69.730469 C 570.558594 75.0625 562.558594 75.0625 562.558594 69.730469 C 562.558594 64.398438 570.558594 64.398438 570.558594 69.730469 "/>
<path style=" stroke:none;fill-rule:nonzero;fill:rgb(0%,0%,0%);fill-opacity:1;" d="M 679.511719 69.730469 C 679.511719 75.0625 671.511719 75.0625 671.511719 69.730469 C 671.511719 64.398438 679.511719 64.398438 679.511719 69.730469 "/>
<path style=" stroke:none;fill-rule:nonzero;fill:rgb(0%,0%,0%);fill-opacity:1;" d="M 788.464844 69.730469 C 788.464844 75.0625 780.464844 75.0625 780.464844 69.730469 C 780.464844 64.398438 788.464844 64.398438 788.464844 69.730469 "/>
<path style=" stroke:none;fill-rule:nonzero;fill:rgb(0%,0%,0%);fill-opacity:1;" d="M 897.417969 69.730469 C 897.417969 75.0625 889.417969 75.0625 889.417969 69.730469 C 889.417969 64.398438 897.417969 64.398438 897.417969 69.730469 "/>
<path style=" stroke:none;fill-rule:nonzero;fill:rgb(0%,0%,0%);fill-opacity:1;" d="M 1006.371094 69.730469 C 1006.371094 75.0625 998.371094 75.0625 998.371094 69.730469 C 998.371094 64.398438 1006.371094 64.398438 1006.371094 69.730469 "/>
<path style=" stroke:none;fill-rule:nonzero;fill:rgb(0%,0%,0%);fill-opacity:1;" d="M 1115.324219 69.730469 C 1115.324219 75.0625 1107.324219 75.0625 1107.324219 69.730469 C 1107.324219 64.398438 1115.324219 64.398438 1115.324219 69.730469 "/>
<path style=" stroke:none;fill-rule:nonzero;fill:rgb(0%,0%,0%);fill-opacity:1;" d="M 1224.277344 69.730469 C 1224.277344 75.0625 1216.277344 75.0625 1216.277344 69.730469 C 1216.277344 64.398438 1224.277344 64.398438 1224.277344 69.730469 "/>
<path style=" stroke:none;fill-rule:nonzero;fill:rgb(0%,0%,0%);fill-opacity:1;" d="M 461.605469 244.054688 C 461.605469 249.390625 453.605469 249.390625 453.605469 244.054688 C 453.605469 238.722656 461.605469 238.722656 461.605469 244.054688 "/>
<path style=" stroke:none;fill-rule:nonzero;fill:rgb(0%,0%,0%);fill-opacity:1;" d="M 679.511719 244.054688 C 679.511719 249.390625 671.511719 249.390625 671.511719 244.054688 C 671.511719 238.722656 679.511719 238.722656 679.511719 244.054688 "/>
<path style=" stroke:none;fill-rule:nonzero;fill:rgb(0%,0%,0%);fill-opacity:1;" d="M 897.417969 244.054688 C 897.417969 249.390625 889.417969 249.390625 889.417969 244.054688 C 889.417969 238.722656 897.417969 238.722656 897.417969 244.054688 "/>
<path style=" stroke:none;fill-rule:nonzero;fill:rgb(0%,0%,0%);fill-opacity:1;" d="M 1115.324219 244.054688 C 1115.324219 249.390625 1107.324219 249.390625 1107.324219 244.054688 C 1107.324219 238.722656 1115.324219 238.722656 1115.324219 244.054688 "/>
<path style="fill-rule:nonzero;fill:rgb(0%,0%,0%);fill-opacity:1;stroke-width:0.25;stroke-linecap:butt;stroke-linejoin:miter;stroke:rgb(98.039216%,92.156863%,84.313725%);stroke-opacity:1;stroke-miterlimit:10;" d="M 357.113281 58.285156 L 358.480469 58.097656 C 358.515625 58.976563 358.679688 59.574219 358.972656 59.894531 C 359.261719 60.21875 359.664063 60.382813 360.183594 60.378906 C 360.5625 60.382813 360.890625 60.292969 361.167969 60.117188 C 361.441406 59.945313 361.632813 59.710938 361.738281 59.40625 C 361.839844 59.109375 361.890625 58.628906 361.894531 57.972656 L 361.894531 50.082031 L 363.410156 50.082031 L 363.410156 57.886719 C 363.40625 58.847656 363.292969 59.589844 363.0625 60.113281 C 362.828125 60.640625 362.460938 61.042969 361.960938 61.316406 C 361.457031 61.59375 360.867188 61.726563 360.191406 61.730469 C 359.183594 61.726563 358.414063 61.441406 357.882813 60.863281 C 357.347656 60.289063 357.089844 59.429688 357.113281 58.285156 Z M 370.613281 61.535156 L 369.207031 61.535156 L 369.207031 52.574219 C 368.863281 52.902344 368.421875 53.222656 367.875 53.542969 C 367.324219 53.867188 366.828125 54.109375 366.394531 54.269531 L 366.394531 52.910156 C 367.175781 52.542969 367.863281 52.097656 368.457031 51.566406 C 369.042969 51.042969 369.460938 50.53125 369.707031 50.035156 L 370.613281 50.035156 Z M 373.550781 61.535156 "/>
<path style="fill-rule:nonzero;fill:rgb(0%,0%,0%);fill-opacity:1;stroke-width:0.25;stroke-linecap:butt;stroke-linejoin:miter;stroke:rgb(98.039216%,92.156863%,84.313725%);stroke-opacity:1;stroke-miterlimit:10;" d="M 466.066406 58.285156 L 467.433594 58.097656 C 467.46875 58.976563 467.632813 59.574219 467.925781 59.894531 C 468.214844 60.21875 468.617188 60.382813 469.136719 60.378906 C 469.515625 60.382813 469.84375 60.292969 470.121094 60.117188 C 470.394531 59.945313 470.585938 59.710938 470.691406 59.40625 C 470.792969 59.109375 470.84375 58.628906 470.847656 57.972656 L 470.847656 50.082031 L 472.363281 50.082031 L 472.363281 57.886719 C 472.359375 58.847656 472.246094 59.589844 472.015625 60.113281 C 471.78125 60.640625 471.414063 61.042969 470.914063 61.316406 C 470.410156 61.59375 469.820313 61.726563 469.144531 61.730469 C 468.136719 61.726563 467.367188 61.441406 466.835938 60.863281 C 466.300781 60.289063 466.042969 59.429688 466.066406 58.285156 Z M 481.660156 60.183594 L 481.660156 61.535156 L 474.089844 61.535156 C 474.078125 61.199219 474.132813 60.875 474.253906 60.558594 C 474.445313 60.046875 474.753906 59.539063 475.179688 59.035156 C 475.601563 58.539063 476.214844 57.960938 477.019531 57.300781 C 478.261719 56.28125 479.101563 55.472656 479.542969 54.875 C 479.976563 54.28125 480.195313 53.71875 480.199219 53.183594 C 480.195313 52.628906 479.996094 52.15625 479.601563 51.773438 C 479.199219 51.390625 478.679688 51.199219 478.042969 51.199219 C 477.363281 51.199219 476.824219 51.402344 476.417969 51.808594 C 476.011719 52.214844 475.804688 52.777344 475.800781 53.496094 L 474.355469 53.347656 C 474.453125 52.273438 474.824219 51.449219 475.472656 50.882813 C 476.117188 50.320313 476.984375 50.039063 478.074219 50.035156 C 479.171875 50.039063 480.042969 50.34375 480.683594 50.949219 C 481.324219 51.5625 481.644531 52.316406 481.644531 53.214844 C 481.644531 53.675781 481.550781 54.128906 481.363281 54.566406 C 481.175781 55.011719 480.863281 55.476563 480.429688 55.964844 C 479.992188 56.457031 479.269531 57.128906 478.261719 57.980469 C 477.414063 58.691406 476.871094 59.171875 476.636719 59.421875 C 476.394531 59.675781 476.199219 59.929688 476.042969 60.183594 Z M 482.503906 61.535156 "/>
<path style="fill-rule:nonzero;fill:rgb(0%,0%,0%);fill-opacity:1;stroke-width:0.25;stroke-linecap:butt;stroke-linejoin:miter;stroke:rgb(98.039216%,92.156863%,84.313725%);stroke-opacity:1;stroke-miterlimit:10;" d="M 575.019531 58.277344 L 576.386719 58.089844 C 576.421875 58.96875 576.585938 59.566406 576.878906 59.886719 C 577.167969 60.210938 577.570313 60.375 578.089844 60.371094 C 578.46875 60.375 578.796875 60.285156 579.074219 60.109375 C 579.347656 59.9375 579.539063 59.703125 579.644531 59.398438 C 579.746094 59.101563 579.796875 58.621094 579.800781 57.964844 L 579.800781 50.074219 L 581.316406 50.074219 L 581.316406 57.878906 C 581.3125 58.839844 581.199219 59.582031 580.96875 60.105469 C 580.734375 60.632813 580.367188 61.035156 579.867188 61.308594 C 579.363281 61.585938 578.773438 61.71875 578.097656 61.722656 C 577.089844 61.71875 576.320313 61.433594 575.789063 60.855469 C 575.253906 60.28125 574.996094 59.421875 575.019531 58.277344 Z M 583.230469 58.503906 L 584.636719 58.316406 C 584.796875 59.113281 585.070313 59.6875 585.460938 60.039063 C 585.84375 60.390625 586.316406 60.566406 586.878906 60.566406 C 587.535156 60.566406 588.09375 60.339844 588.554688 59.878906 C 589.007813 59.425781 589.238281 58.855469 589.238281 58.175781 C 589.238281 57.53125 589.027344 57 588.605469 56.578125 C 588.183594 56.160156 587.644531 55.949219 586.996094 55.949219 C 586.726563 55.949219 586.398438 56.003906 586.003906 56.105469 L 586.160156 54.871094 C 586.25 54.882813 586.324219 54.890625 586.386719 54.886719 C 586.980469 54.890625 587.519531 54.734375 588.003906 54.417969 C 588.480469 54.109375 588.722656 53.625 588.722656 52.972656 C 588.722656 52.457031 588.546875 52.03125 588.199219 51.691406 C 587.847656 51.355469 587.398438 51.1875 586.847656 51.183594 C 586.300781 51.1875 585.84375 51.359375 585.480469 51.699219 C 585.113281 52.046875 584.878906 52.5625 584.777344 53.246094 L 583.371094 52.996094 C 583.539063 52.054688 583.929688 51.324219 584.542969 50.804688 C 585.148438 50.289063 585.90625 50.03125 586.816406 50.027344 C 587.4375 50.03125 588.011719 50.164063 588.542969 50.429688 C 589.066406 50.699219 589.46875 51.066406 589.75 51.527344 C 590.023438 51.992188 590.164063 52.484375 590.167969 53.003906 C 590.164063 53.5 590.03125 53.949219 589.769531 54.355469 C 589.5 54.761719 589.105469 55.085938 588.589844 55.324219 C 589.261719 55.484375 589.789063 55.808594 590.167969 56.296875 C 590.539063 56.792969 590.726563 57.410156 590.730469 58.144531 C 590.726563 59.148438 590.363281 59.996094 589.636719 60.6875 C 588.90625 61.382813 587.984375 61.726563 586.871094 61.730469 C 585.863281 61.726563 585.027344 61.429688 584.367188 60.832031 C 583.699219 60.234375 583.320313 59.457031 583.230469 58.503906 Z M 591.457031 61.527344 "/>
<path style="fill-rule:nonzero;fill:rgb(0%,0%,0%);fill-opacity:1;stroke-width:0.25;stroke-linecap:butt;stroke-linejoin:miter;stroke:rgb(98.039216%,92.156863%,84.313725%);stroke-opacity:1;stroke-miterlimit:10;" d="M 683.972656 58.285156 L 685.339844 58.097656 C 685.375 58.976563 685.539063 59.574219 685.832031 59.894531 C 686.121094 60.21875 686.523438 60.382813 687.042969 60.378906 C 687.421875 60.382813 687.75 60.292969 688.027344 60.117188 C 688.300781 59.945313 688.492188 59.710938 688.597656 59.40625 C 688.699219 59.109375 688.75 58.628906 688.753906 57.972656 L 688.753906 50.082031 L 690.269531 50.082031 L 690.269531 57.886719 C 690.265625 58.847656 690.152344 59.589844 689.921875 60.113281 C 689.6875 60.640625 689.320313 61.042969 688.820313 61.316406 C 688.316406 61.59375 687.726563 61.726563 687.050781 61.730469 C 686.042969 61.726563 685.273438 61.441406 684.742188 60.863281 C 684.207031 60.289063 683.949219 59.429688 683.972656 58.285156 Z M 696.683594 61.535156 L 696.683594 58.792969 L 691.714844 58.792969 L 691.714844 57.503906 L 696.941406 50.082031 L 698.089844 50.082031 L 698.089844 57.503906 L 699.636719 57.503906 L 699.636719 58.792969 L 698.089844 58.792969 L 698.089844 61.535156 Z M 696.683594 57.503906 L 696.683594 52.339844 L 693.097656 57.503906 Z M 700.410156 61.535156 "/>
<path style="fill-rule:nonzero;fill:rgb(0%,0%,0%);fill-opacity:1;stroke-width:0.25;stroke-linecap:butt;stroke-linejoin:miter;stroke:rgb(98.039216%,92.156863%,84.313725%);stroke-opacity:1;stroke-miterlimit:10;" d="M 792.925781 58.285156 L 794.292969 58.097656 C 794.328125 58.976563 794.492188 59.574219 794.785156 59.894531 C 795.074219 60.21875 795.476563 60.382813 795.996094 60.378906 C 796.375 60.382813 796.703125 60.292969 796.980469 60.117188 C 797.253906 59.945313 797.445313 59.710938 797.550781 59.40625 C 797.652344 59.109375 797.703125 58.628906 797.707031 57.972656 L 797.707031 50.082031 L 799.222656 50.082031 L 799.222656 57.886719 C 799.21875 58.847656 799.105469 59.589844 798.875 60.113281 C 798.640625 60.640625 798.273438 61.042969 797.773438 61.316406 C 797.269531 61.59375 796.679688 61.726563 796.003906 61.730469 C 794.996094 61.726563 794.226563 61.441406 793.695313 60.863281 C 793.160156 60.289063 792.902344 59.429688 792.925781 58.285156 Z M 801.128906 58.535156 L 802.605469 58.410156 C 802.710938 59.132813 802.964844 59.671875 803.367188 60.03125 C 803.761719 60.394531 804.242188 60.574219 804.808594 60.574219 C 805.480469 60.574219 806.054688 60.320313 806.527344 59.808594 C 806.992188 59.300781 807.226563 58.625 807.230469 57.777344 C 807.226563 56.980469 807 56.347656 806.554688 55.878906 C 806.101563 55.417969 805.511719 55.183594 804.785156 55.183594 C 804.328125 55.183594 803.921875 55.289063 803.558594 55.492188 C 803.191406 55.703125 802.902344 55.96875 802.699219 56.292969 L 801.378906 56.121094 L 802.488281 50.238281 L 808.183594 50.238281 L 808.183594 51.582031 L 803.613281 51.582031 L 802.996094 54.660156 C 803.683594 54.183594 804.402344 53.941406 805.160156 53.941406 C 806.15625 53.941406 807 54.289063 807.691406 54.980469 C 808.375 55.675781 808.71875 56.566406 808.722656 57.652344 C 808.71875 58.691406 808.417969 59.585938 807.816406 60.339844 C 807.078125 61.265625 806.074219 61.726563 804.808594 61.730469 C 803.761719 61.726563 802.914063 61.4375 802.257813 60.855469 C 801.597656 60.273438 801.21875 59.5 801.128906 58.535156 Z M 809.363281 61.535156 "/>
<path style="fill-rule:nonzero;fill:rgb(0%,0%,0%);fill-opacity:1;stroke-width:0.25;stroke-linecap:butt;stroke-linejoin:miter;stroke:rgb(98.039216%,92.156863%,84.313725%);stroke-opacity:1;stroke-miterlimit:10;" d="M 901.878906 58.285156 L 903.246094 58.097656 C 903.28125 58.976563 903.445313 59.574219 903.738281 59.894531 C 904.027344 60.21875 904.429688 60.382813 904.949219 60.378906 C 905.328125 60.382813 905.65625 60.292969 905.933594 60.117188 C 906.207031 59.945313 906.398438 59.710938 906.503906 59.40625 C 906.605469 59.109375 906.65625 58.628906 906.660156 57.972656 L 906.660156 50.082031 L 908.175781 50.082031 L 908.175781 57.886719 C 908.171875 58.847656 908.058594 59.589844 907.828125 60.113281 C 907.59375 60.640625 907.226563 61.042969 906.726563 61.316406 C 906.222656 61.59375 905.632813 61.726563 904.957031 61.730469 C 903.949219 61.726563 903.179688 61.441406 902.648438 60.863281 C 902.113281 60.289063 901.855469 59.429688 901.878906 58.285156 Z M 917.378906 52.886719 L 915.980469 52.996094 C 915.855469 52.449219 915.675781 52.046875 915.449219 51.792969 C 915.066406 51.394531 914.597656 51.195313 914.042969 51.191406 C 913.589844 51.195313 913.199219 51.320313 912.863281 51.566406 C 912.417969 51.894531 912.066406 52.363281 911.816406 52.980469 C 911.558594 53.601563 911.425781 54.484375 911.417969 55.628906 C 911.753906 55.113281 912.167969 54.730469 912.660156 54.480469 C 913.144531 54.230469 913.660156 54.105469 914.199219 54.105469 C 915.136719 54.105469 915.933594 54.453125 916.59375 55.140625 C 917.25 55.835938 917.578125 56.726563 917.582031 57.816406 C 917.578125 58.539063 917.425781 59.207031 917.117188 59.820313 C 916.804688 60.441406 916.378906 60.914063 915.839844 61.238281 C 915.296875 61.566406 914.679688 61.726563 913.996094 61.730469 C 912.820313 61.726563 911.867188 61.300781 911.128906 60.4375 C 910.386719 59.578125 910.015625 58.15625 910.019531 56.175781 C 910.015625 53.964844 910.425781 52.355469 911.246094 51.347656 C 911.957031 50.476563 912.917969 50.039063 914.128906 50.035156 C 915.027344 50.039063 915.765625 50.292969 916.34375 50.792969 C 916.917969 51.300781 917.261719 51.996094 917.378906 52.886719 Z M 911.636719 57.824219 C 911.632813 58.3125 911.734375 58.773438 911.945313 59.214844 C 912.148438 59.660156 912.4375 60 912.808594 60.226563 C 913.175781 60.460938 913.5625 60.574219 913.972656 60.574219 C 914.5625 60.574219 915.074219 60.335938 915.503906 59.855469 C 915.929688 59.378906 916.144531 58.726563 916.144531 57.902344 C 916.144531 57.113281 915.933594 56.492188 915.511719 56.03125 C 915.089844 55.578125 914.558594 55.347656 913.917969 55.347656 C 913.28125 55.347656 912.742188 55.578125 912.300781 56.03125 C 911.855469 56.492188 911.632813 57.089844 911.636719 57.824219 Z M 918.316406 61.535156 "/>
<path style="fill-rule:nonzero;fill:rgb(0%,0%,0%);fill-opacity:1;stroke-width:0.25;stroke-linecap:butt;stroke-linejoin:miter;stroke:rgb(98.039216%,92.156863%,84.313725%);stroke-opacity:1;stroke-miterlimit:10;" d="M 1010.832031 58.285156 L 1012.199219 58.097656 C 1012.234375 58.976563 1012.398438 59.574219 1012.691406 59.894531 C 1012.980469 60.21875 1013.382813 60.382813 1013.902344 60.378906 C 1014.28125 60.382813 1014.609375 60.292969 1014.886719 60.117188 C 1015.160156 59.945313 1015.351563 59.710938 1015.457031 59.40625 C 1015.558594 59.109375 1015.609375 58.628906 1015.613281 57.972656 L 1015.613281 50.082031 L 1017.128906 50.082031 L 1017.128906 57.886719 C 1017.125 58.847656 1017.011719 59.589844 1016.78125 60.113281 C 1016.546875 60.640625 1016.179688 61.042969 1015.679688 61.316406 C 1015.175781 61.59375 1014.585938 61.726563 1013.910156 61.730469 C 1012.902344 61.726563 1012.132813 61.441406 1011.601563 60.863281 C 1011.066406 60.289063 1010.808594 59.429688 1010.832031 58.285156 Z M 1019.128906 51.582031 L 1019.128906 50.230469 L 1026.542969 50.230469 L 1026.542969 51.324219 C 1025.8125 52.101563 1025.089844 53.132813 1024.375 54.417969 C 1023.65625 55.707031 1023.101563 57.03125 1022.714844 58.386719 C 1022.429688 59.347656 1022.25 60.394531 1022.175781 61.535156 L 1020.730469 61.535156 C 1020.742188 60.636719 1020.917969 59.550781 1021.261719 58.269531 C 1021.597656 56.996094 1022.085938 55.765625 1022.71875 54.578125 C 1023.351563 53.398438 1024.023438 52.398438 1024.738281 51.582031 Z M 1027.269531 61.535156 "/>
<path style="fill-rule:nonzero;fill:rgb(0%,0%,0%);fill-opacity:1;stroke-width:0.25;stroke-linecap:butt;stroke-linejoin:miter;stroke:rgb(98.039216%,92.156863%,84.313725%);stroke-opacity:1;stroke-miterlimit:10;" d="M 1119.785156 58.285156 L 1121.152344 58.097656 C 1121.1875 58.976563 1121.351563 59.574219 1121.644531 59.894531 C 1121.933594 60.21875 1122.335938 60.382813 1122.855469 60.378906 C 1123.234375 60.382813 1123.5625 60.292969 1123.839844 60.117188 C 1124.113281 59.945313 1124.304688 59.710938 1124.410156 59.40625 C 1124.511719 59.109375 1124.5625 58.628906 1124.566406 57.972656 L 1124.566406 50.082031 L 1126.082031 50.082031 L 1126.082031 57.886719 C 1126.078125 58.847656 1125.964844 59.589844 1125.734375 60.113281 C 1125.5 60.640625 1125.132813 61.042969 1124.632813 61.316406 C 1124.128906 61.59375 1123.539063 61.726563 1122.863281 61.730469 C 1121.855469 61.726563 1121.085938 61.441406 1120.554688 60.863281 C 1120.019531 60.289063 1119.761719 59.429688 1119.785156 58.285156 Z M 1130.152344 55.324219 C 1129.566406 55.113281 1129.132813 54.808594 1128.855469 54.410156 C 1128.570313 54.015625 1128.429688 53.542969 1128.433594 52.988281 C 1128.429688 52.15625 1128.730469 51.457031 1129.332031 50.886719 C 1129.929688 50.324219 1130.726563 50.039063 1131.722656 50.035156 C 1132.71875 50.039063 1133.523438 50.328125 1134.136719 50.90625 C 1134.742188 51.488281 1135.046875 52.195313 1135.050781 53.027344 C 1135.046875 53.558594 1134.90625 54.023438 1134.632813 54.414063 C 1134.351563 54.8125 1133.929688 55.113281 1133.363281 55.324219 C 1134.0625 55.554688 1134.597656 55.925781 1134.96875 56.433594 C 1135.332031 56.945313 1135.515625 57.554688 1135.519531 58.261719 C 1135.515625 59.242188 1135.167969 60.066406 1134.480469 60.730469 C 1133.785156 61.398438 1132.875 61.726563 1131.746094 61.730469 C 1130.613281 61.726563 1129.703125 61.394531 1129.011719 60.726563 C 1128.316406 60.058594 1127.96875 59.226563 1127.972656 58.222656 C 1127.96875 57.480469 1128.15625 56.855469 1128.539063 56.351563 C 1128.914063 55.851563 1129.453125 55.507813 1130.152344 55.324219 Z M 1129.871094 52.941406 C 1129.867188 53.484375 1130.042969 53.925781 1130.394531 54.269531 C 1130.742188 54.613281 1131.195313 54.785156 1131.753906 54.785156 C 1132.292969 54.785156 1132.734375 54.617188 1133.085938 54.273438 C 1133.429688 53.9375 1133.605469 53.519531 1133.605469 53.019531 C 1133.605469 52.507813 1133.425781 52.074219 1133.070313 51.71875 C 1132.710938 51.371094 1132.265625 51.195313 1131.738281 51.191406 C 1131.199219 51.195313 1130.753906 51.367188 1130.402344 51.707031 C 1130.042969 52.054688 1129.867188 52.464844 1129.871094 52.941406 Z M 1129.417969 58.230469 C 1129.414063 58.632813 1129.511719 59.023438 1129.703125 59.394531 C 1129.890625 59.773438 1130.171875 60.0625 1130.550781 60.265625 C 1130.921875 60.472656 1131.324219 60.574219 1131.761719 60.574219 C 1132.429688 60.574219 1132.984375 60.359375 1133.425781 59.925781 C 1133.859375 59.496094 1134.078125 58.945313 1134.082031 58.277344 C 1134.078125 57.601563 1133.855469 57.042969 1133.40625 56.597656 C 1132.953125 56.15625 1132.386719 55.933594 1131.714844 55.933594 C 1131.050781 55.933594 1130.503906 56.152344 1130.070313 56.589844 C 1129.632813 57.027344 1129.414063 57.574219 1129.417969 58.230469 Z M 1136.222656 61.535156 "/>
<path style="fill-rule:nonzero;fill:rgb(0%,0%,0%);fill-opacity:1;stroke-width:0.25;stroke-linecap:butt;stroke-linejoin:miter;stroke:rgb(98.039216%,92.156863%,84.313725%);stroke-opacity:1;stroke-miterlimit:10;" d="M 1228.738281 58.285156 L 1230.105469 58.097656 C 1230.140625 58.976563 1230.304688 59.574219 1230.597656 59.894531 C 1230.886719 60.21875 1231.289063 60.382813 1231.808594 60.378906 C 1232.1875 60.382813 1232.515625 60.292969 1232.792969 60.117188 C 1233.066406 59.945313 1233.257813 59.710938 1233.363281 59.40625 C 1233.464844 59.109375 1233.515625 58.628906 1233.519531 57.972656 L 1233.519531 50.082031 L 1235.035156 50.082031 L 1235.035156 57.886719 C 1235.03125 58.847656 1234.917969 59.589844 1234.6875 60.113281 C 1234.453125 60.640625 1234.085938 61.042969 1233.585938 61.316406 C 1233.082031 61.59375 1232.492188 61.726563 1231.816406 61.730469 C 1230.808594 61.726563 1230.039063 61.441406 1229.507813 60.863281 C 1228.972656 60.289063 1228.714844 59.429688 1228.738281 58.285156 Z M 1237.152344 58.886719 L 1238.503906 58.761719 C 1238.617188 59.402344 1238.835938 59.863281 1239.160156 60.144531 C 1239.480469 60.433594 1239.894531 60.574219 1240.402344 60.574219 C 1240.832031 60.574219 1241.210938 60.476563 1241.539063 60.277344 C 1241.863281 60.082031 1242.128906 59.816406 1242.339844 59.484375 C 1242.546875 59.15625 1242.722656 58.710938 1242.863281 58.144531 C 1243.003906 57.585938 1243.074219 57.011719 1243.074219 56.425781 C 1243.074219 56.363281 1243.070313 56.269531 1243.066406 56.144531 C 1242.78125 56.59375 1242.398438 56.957031 1241.914063 57.234375 C 1241.425781 57.515625 1240.898438 57.65625 1240.332031 57.652344 C 1239.382813 57.65625 1238.578125 57.3125 1237.925781 56.621094 C 1237.265625 55.9375 1236.9375 55.03125 1236.941406 53.902344 C 1236.9375 52.742188 1237.28125 51.808594 1237.96875 51.097656 C 1238.652344 50.394531 1239.511719 50.039063 1240.542969 50.035156 C 1241.285156 50.039063 1241.964844 50.238281 1242.585938 50.636719 C 1243.199219 51.039063 1243.667969 51.613281 1243.992188 52.351563 C 1244.308594 53.097656 1244.46875 54.171875 1244.472656 55.574219 C 1244.46875 57.042969 1244.308594 58.207031 1243.996094 59.070313 C 1243.675781 59.941406 1243.203125 60.601563 1242.578125 61.050781 C 1241.945313 61.503906 1241.210938 61.726563 1240.371094 61.730469 C 1239.472656 61.726563 1238.742188 61.480469 1238.175781 60.984375 C 1237.605469 60.488281 1237.261719 59.789063 1237.152344 58.886719 Z M 1242.910156 53.832031 C 1242.910156 53.027344 1242.695313 52.386719 1242.265625 51.910156 C 1241.835938 51.4375 1241.316406 51.199219 1240.714844 51.199219 C 1240.085938 51.199219 1239.542969 51.457031 1239.082031 51.964844 C 1238.617188 52.480469 1238.386719 53.140625 1238.386719 53.949219 C 1238.386719 54.679688 1238.605469 55.273438 1239.046875 55.726563 C 1239.484375 56.1875 1240.027344 56.414063 1240.675781 56.410156 C 1241.324219 56.414063 1241.859375 56.1875 1242.28125 55.726563 C 1242.699219 55.273438 1242.910156 54.640625 1242.910156 53.832031 Z M 1245.175781 61.535156 "/>
<path style="fill-rule:nonzero;fill:rgb(0%,0%,0%);fill-opacity:1;stroke-width:0.25;stroke-linecap:butt;stroke-linejoin:miter;stroke:rgb(98.039216%,92.156863%,84.313725%);stroke-opacity:1;stroke-miterlimit:10;" d="M 466.066406 232.609375 L 467.433594 232.421875 C 467.46875 233.300781 467.632813 233.898438 467.925781 234.21875 C 468.214844 234.542969 468.617188 234.707031 469.136719 234.703125 C 469.515625 234.707031 469.84375 234.617188 470.121094 234.441406 C 470.394531 234.269531 470.585938 234.035156 470.691406 233.730469 C 470.792969 233.433594 470.84375 232.953125 470.847656 232.296875 L 470.847656 224.40625 L 472.363281 224.40625 L 472.363281 232.210938 C 472.359375 233.171875 472.246094 233.914063 472.015625 234.4375 C 471.78125 234.964844 471.414063 235.367188 470.914063 235.640625 C 470.410156 235.917969 469.820313 236.050781 469.144531 236.054688 C 468.136719 236.050781 467.367188 235.765625 466.835938 235.1875 C 466.300781 234.613281 466.042969 233.753906 466.066406 232.609375 Z M 479.566406 235.859375 L 478.160156 235.859375 L 478.160156 226.898438 C 477.816406 227.226563 477.375 227.546875 476.828125 227.867188 C 476.277344 228.191406 475.78125 228.433594 475.347656 228.59375 L 475.347656 227.234375 C 476.128906 226.867188 476.816406 226.421875 477.410156 225.890625 C 477.996094 225.367188 478.414063 224.855469 478.660156 224.359375 L 479.566406 224.359375 Z M 483.167969 230.210938 C 483.164063 228.859375 483.304688 227.769531 483.585938 226.941406 C 483.863281 226.117188 484.277344 225.480469 484.828125 225.03125 C 485.375 224.585938 486.066406 224.363281 486.902344 224.359375 C 487.515625 224.363281 488.054688 224.488281 488.519531 224.730469 C 488.980469 224.980469 489.363281 225.335938 489.667969 225.800781 C 489.96875 226.269531 490.207031 226.835938 490.378906 227.503906 C 490.550781 228.175781 490.636719 229.078125 490.636719 230.210938 C 490.636719 231.554688 490.496094 232.640625 490.222656 233.464844 C 489.941406 234.292969 489.53125 234.929688 488.984375 235.378906 C 488.433594 235.828125 487.738281 236.050781 486.902344 236.054688 C 485.796875 236.050781 484.929688 235.660156 484.300781 234.867188 C 483.542969 233.917969 483.164063 232.363281 483.167969 230.210938 Z M 484.613281 230.210938 C 484.613281 232.09375 484.832031 233.347656 485.273438 233.964844 C 485.710938 234.589844 486.253906 234.898438 486.902344 234.898438 C 487.546875 234.898438 488.089844 234.585938 488.53125 233.960938 C 488.96875 233.335938 489.1875 232.085938 489.191406 230.210938 C 489.1875 228.328125 488.96875 227.078125 488.53125 226.453125 C 488.089844 225.835938 487.542969 225.523438 486.886719 225.523438 C 486.238281 225.523438 485.722656 225.796875 485.339844 226.34375 C 484.855469 227.042969 484.613281 228.332031 484.613281 230.210938 Z M 491.402344 235.859375 "/>
<path style="fill-rule:nonzero;fill:rgb(0%,0%,0%);fill-opacity:1;stroke-width:0.25;stroke-linecap:butt;stroke-linejoin:miter;stroke:rgb(98.039216%,92.156863%,84.313725%);stroke-opacity:1;stroke-miterlimit:10;" d="M 683.972656 232.609375 L 685.339844 232.421875 C 685.375 233.300781 685.539063 233.898438 685.832031 234.21875 C 686.121094 234.542969 686.523438 234.707031 687.042969 234.703125 C 687.421875 234.707031 687.75 234.617188 688.027344 234.441406 C 688.300781 234.269531 688.492188 234.035156 688.597656 233.730469 C 688.699219 233.433594 688.75 232.953125 688.753906 232.296875 L 688.753906 224.40625 L 690.269531 224.40625 L 690.269531 232.210938 C 690.265625 233.171875 690.152344 233.914063 689.921875 234.4375 C 689.6875 234.964844 689.320313 235.367188 688.820313 235.640625 C 688.316406 235.917969 687.726563 236.050781 687.050781 236.054688 C 686.042969 236.050781 685.273438 235.765625 684.742188 235.1875 C 684.207031 234.613281 683.949219 233.753906 683.972656 232.609375 Z M 697.472656 235.859375 L 696.066406 235.859375 L 696.066406 226.898438 C 695.722656 227.226563 695.28125 227.546875 694.734375 227.867188 C 694.183594 228.191406 693.6875 228.433594 693.253906 228.59375 L 693.253906 227.234375 C 694.035156 226.867188 694.722656 226.421875 695.316406 225.890625 C 695.902344 225.367188 696.320313 224.855469 696.566406 224.359375 L 697.472656 224.359375 Z M 706.371094 235.859375 L 704.964844 235.859375 L 704.964844 226.898438 C 704.621094 227.226563 704.179688 227.546875 703.632813 227.867188 C 703.082031 228.191406 702.585938 228.433594 702.152344 228.59375 L 702.152344 227.234375 C 702.933594 226.867188 703.621094 226.421875 704.214844 225.890625 C 704.800781 225.367188 705.21875 224.855469 705.464844 224.359375 L 706.371094 224.359375 Z M 709.308594 235.859375 "/>
<path style="fill-rule:nonzero;fill:rgb(0%,0%,0%);fill-opacity:1;stroke-width:0.25;stroke-linecap:butt;stroke-linejoin:miter;stroke:rgb(98.039216%,92.156863%,84.313725%);stroke-opacity:1;stroke-miterlimit:10;" d="M 901.878906 232.609375 L 903.246094 232.421875 C 903.28125 233.300781 903.445313 233.898438 903.738281 234.21875 C 904.027344 234.542969 904.429688 234.707031 904.949219 234.703125 C 905.328125 234.707031 905.65625 234.617188 905.933594 234.441406 C 906.207031 234.269531 906.398438 234.035156 906.503906 233.730469 C 906.605469 233.433594 906.65625 232.953125 906.660156 232.296875 L 906.660156 224.40625 L 908.175781 224.40625 L 908.175781 232.210938 C 908.171875 233.171875 908.058594 233.914063 907.828125 234.4375 C 907.59375 234.964844 907.226563 235.367188 906.726563 235.640625 C 906.222656 235.917969 905.632813 236.050781 904.957031 236.054688 C 903.949219 236.050781 903.179688 235.765625 902.648438 235.1875 C 902.113281 234.613281 901.855469 233.753906 901.878906 232.609375 Z M 915.378906 235.859375 L 913.972656 235.859375 L 913.972656 226.898438 C 913.628906 227.226563 913.1875 227.546875 912.640625 227.867188 C 912.089844 228.191406 911.59375 228.433594 911.160156 228.59375 L 911.160156 227.234375 C 911.941406 226.867188 912.628906 226.421875 913.222656 225.890625 C 913.808594 225.367188 914.226563 224.855469 914.472656 224.359375 L 915.378906 224.359375 Z M 926.371094 234.507813 L 926.371094 235.859375 L 918.800781 235.859375 C 918.789063 235.523438 918.84375 235.199219 918.964844 234.882813 C 919.15625 234.371094 919.464844 233.863281 919.890625 233.359375 C 920.3125 232.863281 920.925781 232.285156 921.730469 231.625 C 922.972656 230.605469 923.8125 229.796875 924.253906 229.199219 C 924.6875 228.605469 924.90625 228.042969 924.910156 227.507813 C 924.90625 226.953125 924.707031 226.480469 924.3125 226.097656 C 923.910156 225.714844 923.390625 225.523438 922.753906 225.523438 C 922.074219 225.523438 921.535156 225.726563 921.128906 226.132813 C 920.722656 226.539063 920.515625 227.101563 920.511719 227.820313 L 919.066406 227.671875 C 919.164063 226.597656 919.535156 225.773438 920.183594 225.207031 C 920.828125 224.644531 921.695313 224.363281 922.785156 224.359375 C 923.882813 224.363281 924.753906 224.667969 925.394531 225.273438 C 926.035156 225.886719 926.355469 226.640625 926.355469 227.539063 C 926.355469 228 926.261719 228.453125 926.074219 228.890625 C 925.886719 229.335938 925.574219 229.800781 925.140625 230.289063 C 924.703125 230.78125 923.980469 231.453125 922.972656 232.304688 C 922.125 233.015625 921.582031 233.496094 921.347656 233.746094 C 921.105469 234 920.910156 234.253906 920.753906 234.507813 Z M 927.214844 235.859375 "/>
<path style="fill-rule:nonzero;fill:rgb(0%,0%,0%);fill-opacity:1;stroke-width:0.25;stroke-linecap:butt;stroke-linejoin:miter;stroke:rgb(98.039216%,92.156863%,84.313725%);stroke-opacity:1;stroke-miterlimit:10;" d="M 1119.785156 232.601563 L 1121.152344 232.414063 C 1121.1875 233.292969 1121.351563 233.890625 1121.644531 234.210938 C 1121.933594 234.535156 1122.335938 234.699219 1122.855469 234.695313 C 1123.234375 234.699219 1123.5625 234.609375 1123.839844 234.433594 C 1124.113281 234.261719 1124.304688 234.027344 1124.410156 233.722656 C 1124.511719 233.425781 1124.5625 232.945313 1124.566406 232.289063 L 1124.566406 224.398438 L 1126.082031 224.398438 L 1126.082031 232.203125 C 1126.078125 233.164063 1125.964844 233.90625 1125.734375 234.429688 C 1125.5 234.957031 1125.132813 235.359375 1124.632813 235.632813 C 1124.128906 235.910156 1123.539063 236.042969 1122.863281 236.046875 C 1121.855469 236.042969 1121.085938 235.757813 1120.554688 235.179688 C 1120.019531 234.605469 1119.761719 233.746094 1119.785156 232.601563 Z M 1133.285156 235.851563 L 1131.878906 235.851563 L 1131.878906 226.890625 C 1131.535156 227.21875 1131.09375 227.539063 1130.546875 227.859375 C 1129.996094 228.183594 1129.5 228.425781 1129.066406 228.585938 L 1129.066406 227.226563 C 1129.847656 226.859375 1130.535156 226.414063 1131.128906 225.882813 C 1131.714844 225.359375 1132.132813 224.847656 1132.378906 224.351563 L 1133.285156 224.351563 Z M 1136.894531 232.828125 L 1138.300781 232.640625 C 1138.460938 233.4375 1138.734375 234.011719 1139.125 234.363281 C 1139.507813 234.714844 1139.980469 234.890625 1140.542969 234.890625 C 1141.199219 234.890625 1141.757813 234.664063 1142.21875 234.203125 C 1142.671875 233.75 1142.902344 233.179688 1142.902344 232.5 C 1142.902344 231.855469 1142.691406 231.324219 1142.269531 230.902344 C 1141.847656 230.484375 1141.308594 230.273438 1140.660156 230.273438 C 1140.390625 230.273438 1140.0625 230.328125 1139.667969 230.429688 L 1139.824219 229.195313 C 1139.914063 229.207031 1139.988281 229.214844 1140.050781 229.210938 C 1140.644531 229.214844 1141.183594 229.058594 1141.667969 228.742188 C 1142.144531 228.433594 1142.386719 227.949219 1142.386719 227.296875 C 1142.386719 226.78125 1142.210938 226.355469 1141.863281 226.015625 C 1141.511719 225.679688 1141.0625 225.511719 1140.511719 225.507813 C 1139.964844 225.511719 1139.507813 225.683594 1139.144531 226.023438 C 1138.777344 226.371094 1138.542969 226.886719 1138.441406 227.570313 L 1137.035156 227.320313 C 1137.203125 226.378906 1137.59375 225.648438 1138.207031 225.128906 C 1138.8125 224.613281 1139.570313 224.355469 1140.480469 224.351563 C 1141.101563 224.355469 1141.675781 224.488281 1142.207031 224.753906 C 1142.730469 225.023438 1143.132813 225.390625 1143.414063 225.851563 C 1143.6875 226.316406 1143.828125 226.808594 1143.832031 227.328125 C 1143.828125 227.824219 1143.695313 228.273438 1143.433594 228.679688 C 1143.164063 229.085938 1142.769531 229.410156 1142.253906 229.648438 C 1142.925781 229.808594 1143.453125 230.132813 1143.832031 230.621094 C 1144.203125 231.117188 1144.390625 231.734375 1144.394531 232.46875 C 1144.390625 233.472656 1144.027344 234.320313 1143.300781 235.011719 C 1142.570313 235.707031 1141.648438 236.050781 1140.535156 236.054688 C 1139.527344 236.050781 1138.691406 235.753906 1138.03125 235.15625 C 1137.363281 234.558594 1136.984375 233.78125 1136.894531 232.828125 Z M 1145.121094 235.851563 "/>
<path style="fill-rule:nonzero;fill:rgb(0%,0%,0%);fill-opacity:1;stroke-width:0.25;stroke-linecap:butt;stroke-linejoin:miter;stroke:rgb(98.039216%,92.156863%,84.313725%);stroke-opacity:1;stroke-miterlimit:10;" d="M 412.316406 61.730469 L 412.316406 50.277344 L 414.597656 50.277344 L 417.308594 58.386719 C 417.554688 59.144531 417.738281 59.710938 417.855469 60.082031 C 417.984375 59.667969 418.1875 59.054688 418.464844 58.246094 L 421.207031 50.277344 L 423.246094 50.277344 L 423.246094 61.730469 L 421.785156 61.730469 L 421.785156 52.144531 L 418.457031 61.730469 L 417.089844 61.730469 L 413.777344 51.980469 L 413.777344 61.730469 Z M 430.417969 61.730469 L 429.011719 61.730469 L 429.011719 52.769531 C 428.667969 53.097656 428.226563 53.417969 427.679688 53.738281 C 427.128906 54.0625 426.632813 54.304688 426.199219 54.464844 L 426.199219 53.105469 C 426.980469 52.738281 427.667969 52.292969 428.261719 51.761719 C 428.847656 51.238281 429.265625 50.726563 429.511719 50.230469 L 430.417969 50.230469 Z M 433.355469 61.730469 "/>
<path style="fill-rule:nonzero;fill:rgb(0%,0%,0%);fill-opacity:1;stroke-width:0.25;stroke-linecap:butt;stroke-linejoin:miter;stroke:rgb(98.039216%,92.156863%,84.313725%);stroke-opacity:1;stroke-miterlimit:10;" d="M 521.269531 61.730469 L 521.269531 50.277344 L 523.550781 50.277344 L 526.261719 58.386719 C 526.507813 59.144531 526.691406 59.710938 526.808594 60.082031 C 526.9375 59.667969 527.140625 59.054688 527.417969 58.246094 L 530.160156 50.277344 L 532.199219 50.277344 L 532.199219 61.730469 L 530.738281 61.730469 L 530.738281 52.144531 L 527.410156 61.730469 L 526.042969 61.730469 L 522.730469 51.980469 L 522.730469 61.730469 Z M 541.464844 60.378906 L 541.464844 61.730469 L 533.894531 61.730469 C 533.882813 61.394531 533.9375 61.070313 534.058594 60.753906 C 534.25 60.242188 534.558594 59.734375 534.984375 59.230469 C 535.40625 58.734375 536.019531 58.15625 536.824219 57.496094 C 538.066406 56.476563 538.90625 55.667969 539.347656 55.070313 C 539.78125 54.476563 540 53.914063 540.003906 53.378906 C 540 52.824219 539.800781 52.351563 539.40625 51.96875 C 539.003906 51.585938 538.484375 51.394531 537.847656 51.394531 C 537.167969 51.394531 536.628906 51.597656 536.222656 52.003906 C 535.816406 52.410156 535.609375 52.972656 535.605469 53.691406 L 534.160156 53.542969 C 534.257813 52.46875 534.628906 51.644531 535.277344 51.078125 C 535.921875 50.515625 536.789063 50.234375 537.878906 50.230469 C 538.976563 50.234375 539.847656 50.539063 540.488281 51.144531 C 541.128906 51.757813 541.449219 52.511719 541.449219 53.410156 C 541.449219 53.871094 541.355469 54.324219 541.167969 54.761719 C 540.980469 55.207031 540.667969 55.671875 540.234375 56.160156 C 539.796875 56.652344 539.074219 57.324219 538.066406 58.175781 C 537.21875 58.886719 536.675781 59.367188 536.441406 59.617188 C 536.199219 59.871094 536.003906 60.125 535.847656 60.378906 Z M 542.308594 61.730469 "/>
<path style="fill-rule:nonzero;fill:rgb(0%,0%,0%);fill-opacity:1;stroke-width:0.25;stroke-linecap:butt;stroke-linejoin:miter;stroke:rgb(98.039216%,92.156863%,84.313725%);stroke-opacity:1;stroke-miterlimit:10;" d="M 630.222656 61.527344 L 630.222656 50.074219 L 632.503906 50.074219 L 635.214844 58.183594 C 635.460938 58.941406 635.644531 59.507813 635.761719 59.878906 C 635.890625 59.464844 636.09375 58.851563 636.371094 58.042969 L 639.113281 50.074219 L 641.152344 50.074219 L 641.152344 61.527344 L 639.691406 61.527344 L 639.691406 51.941406 L 636.363281 61.527344 L 634.996094 61.527344 L 631.683594 51.777344 L 631.683594 61.527344 Z M 643.035156 58.503906 L 644.441406 58.316406 C 644.601563 59.113281 644.875 59.6875 645.265625 60.039063 C 645.648438 60.390625 646.121094 60.566406 646.683594 60.566406 C 647.339844 60.566406 647.898438 60.339844 648.359375 59.878906 C 648.8125 59.425781 649.042969 58.855469 649.042969 58.175781 C 649.042969 57.53125 648.832031 57 648.410156 56.578125 C 647.988281 56.160156 647.449219 55.949219 646.800781 55.949219 C 646.53125 55.949219 646.203125 56.003906 645.808594 56.105469 L 645.964844 54.871094 C 646.054688 54.882813 646.128906 54.890625 646.191406 54.886719 C 646.785156 54.890625 647.324219 54.734375 647.808594 54.417969 C 648.285156 54.109375 648.527344 53.625 648.527344 52.972656 C 648.527344 52.457031 648.351563 52.03125 648.003906 51.691406 C 647.652344 51.355469 647.203125 51.1875 646.652344 51.183594 C 646.105469 51.1875 645.648438 51.359375 645.285156 51.699219 C 644.917969 52.046875 644.683594 52.5625 644.582031 53.246094 L 643.175781 52.996094 C 643.34375 52.054688 643.734375 51.324219 644.347656 50.804688 C 644.953125 50.289063 645.710938 50.03125 646.621094 50.027344 C 647.242188 50.03125 647.816406 50.164063 648.347656 50.429688 C 648.871094 50.699219 649.273438 51.066406 649.554688 51.527344 C 649.828125 51.992188 649.96875 52.484375 649.972656 53.003906 C 649.96875 53.5 649.835938 53.949219 649.574219 54.355469 C 649.304688 54.761719 648.910156 55.085938 648.394531 55.324219 C 649.066406 55.484375 649.59375 55.808594 649.972656 56.296875 C 650.34375 56.792969 650.53125 57.410156 650.535156 58.144531 C 650.53125 59.148438 650.167969 59.996094 649.441406 60.6875 C 648.710938 61.382813 647.789063 61.726563 646.675781 61.730469 C 645.667969 61.726563 644.832031 61.429688 644.171875 60.832031 C 643.503906 60.234375 643.125 59.457031 643.035156 58.503906 Z M 651.261719 61.527344 "/>
<path style="fill-rule:nonzero;fill:rgb(0%,0%,0%);fill-opacity:1;stroke-width:0.25;stroke-linecap:butt;stroke-linejoin:miter;stroke:rgb(98.039216%,92.156863%,84.313725%);stroke-opacity:1;stroke-miterlimit:10;" d="M 739.175781 61.730469 L 739.175781 50.277344 L 741.457031 50.277344 L 744.167969 58.386719 C 744.414063 59.144531 744.597656 59.710938 744.714844 60.082031 C 744.84375 59.667969 745.046875 59.054688 745.324219 58.246094 L 748.066406 50.277344 L 750.105469 50.277344 L 750.105469 61.730469 L 748.644531 61.730469 L 748.644531 52.144531 L 745.316406 61.730469 L 743.949219 61.730469 L 740.636719 51.980469 L 740.636719 61.730469 Z M 756.488281 61.730469 L 756.488281 58.988281 L 751.519531 58.988281 L 751.519531 57.699219 L 756.746094 50.277344 L 757.894531 50.277344 L 757.894531 57.699219 L 759.441406 57.699219 L 759.441406 58.988281 L 757.894531 58.988281 L 757.894531 61.730469 Z M 756.488281 57.699219 L 756.488281 52.535156 L 752.902344 57.699219 Z M 760.214844 61.730469 "/>
<path style="fill-rule:nonzero;fill:rgb(0%,0%,0%);fill-opacity:1;stroke-width:0.25;stroke-linecap:butt;stroke-linejoin:miter;stroke:rgb(98.039216%,92.156863%,84.313725%);stroke-opacity:1;stroke-miterlimit:10;" d="M 848.128906 61.535156 L 848.128906 50.082031 L 850.410156 50.082031 L 853.121094 58.191406 C 853.367188 58.949219 853.550781 59.515625 853.667969 59.886719 C 853.796875 59.472656 854 58.859375 854.277344 58.050781 L 857.019531 50.082031 L 859.058594 50.082031 L 859.058594 61.535156 L 857.597656 61.535156 L 857.597656 51.949219 L 854.269531 61.535156 L 852.902344 61.535156 L 849.589844 51.785156 L 849.589844 61.535156 Z M 860.933594 58.535156 L 862.410156 58.410156 C 862.515625 59.132813 862.769531 59.671875 863.171875 60.03125 C 863.566406 60.394531 864.046875 60.574219 864.613281 60.574219 C 865.285156 60.574219 865.859375 60.320313 866.332031 59.808594 C 866.796875 59.300781 867.03125 58.625 867.035156 57.777344 C 867.03125 56.980469 866.804688 56.347656 866.359375 55.878906 C 865.90625 55.417969 865.316406 55.183594 864.589844 55.183594 C 864.132813 55.183594 863.726563 55.289063 863.363281 55.492188 C 862.996094 55.703125 862.707031 55.96875 862.503906 56.292969 L 861.183594 56.121094 L 862.292969 50.238281 L 867.988281 50.238281 L 867.988281 51.582031 L 863.417969 51.582031 L 862.800781 54.660156 C 863.488281 54.183594 864.207031 53.941406 864.964844 53.941406 C 865.960938 53.941406 866.804688 54.289063 867.496094 54.980469 C 868.179688 55.675781 868.523438 56.566406 868.527344 57.652344 C 868.523438 58.691406 868.222656 59.585938 867.621094 60.339844 C 866.882813 61.265625 865.878906 61.726563 864.613281 61.730469 C 863.566406 61.726563 862.71875 61.4375 862.0625 60.855469 C 861.402344 60.273438 861.023438 59.5 860.933594 58.535156 Z M 869.167969 61.535156 "/>
<path style="fill-rule:nonzero;fill:rgb(0%,0%,0%);fill-opacity:1;stroke-width:0.25;stroke-linecap:butt;stroke-linejoin:miter;stroke:rgb(98.039216%,92.156863%,84.313725%);stroke-opacity:1;stroke-miterlimit:10;" d="M 957.082031 61.535156 L 957.082031 50.082031 L 959.363281 50.082031 L 962.074219 58.191406 C 962.320313 58.949219 962.503906 59.515625 962.621094 59.886719 C 962.75 59.472656 962.953125 58.859375 963.230469 58.050781 L 965.972656 50.082031 L 968.011719 50.082031 L 968.011719 61.535156 L 966.550781 61.535156 L 966.550781 51.949219 L 963.222656 61.535156 L 961.855469 61.535156 L 958.542969 51.785156 L 958.542969 61.535156 Z M 977.183594 52.886719 L 975.785156 52.996094 C 975.660156 52.449219 975.480469 52.046875 975.253906 51.792969 C 974.871094 51.394531 974.402344 51.195313 973.847656 51.191406 C 973.394531 51.195313 973.003906 51.320313 972.667969 51.566406 C 972.222656 51.894531 971.871094 52.363281 971.621094 52.980469 C 971.363281 53.601563 971.230469 54.484375 971.222656 55.628906 C 971.558594 55.113281 971.972656 54.730469 972.464844 54.480469 C 972.949219 54.230469 973.464844 54.105469 974.003906 54.105469 C 974.941406 54.105469 975.738281 54.453125 976.398438 55.140625 C 977.054688 55.835938 977.382813 56.726563 977.386719 57.816406 C 977.382813 58.539063 977.230469 59.207031 976.921875 59.820313 C 976.609375 60.441406 976.183594 60.914063 975.644531 61.238281 C 975.101563 61.566406 974.484375 61.726563 973.800781 61.730469 C 972.625 61.726563 971.671875 61.300781 970.933594 60.4375 C 970.191406 59.578125 969.820313 58.15625 969.824219 56.175781 C 969.820313 53.964844 970.230469 52.355469 971.050781 51.347656 C 971.761719 50.476563 972.722656 50.039063 973.933594 50.035156 C 974.832031 50.039063 975.570313 50.292969 976.148438 50.792969 C 976.722656 51.300781 977.066406 51.996094 977.183594 52.886719 Z M 971.441406 57.824219 C 971.4375 58.3125 971.539063 58.773438 971.75 59.214844 C 971.953125 59.660156 972.242188 60 972.613281 60.226563 C 972.980469 60.460938 973.367188 60.574219 973.777344 60.574219 C 974.367188 60.574219 974.878906 60.335938 975.308594 59.855469 C 975.734375 59.378906 975.949219 58.726563 975.949219 57.902344 C 975.949219 57.113281 975.738281 56.492188 975.316406 56.03125 C 974.894531 55.578125 974.363281 55.347656 973.722656 55.347656 C 973.085938 55.347656 972.546875 55.578125 972.105469 56.03125 C 971.660156 56.492188 971.4375 57.089844 971.441406 57.824219 Z M 978.121094 61.535156 "/>
<path style="fill-rule:nonzero;fill:rgb(0%,0%,0%);fill-opacity:1;stroke-width:0.25;stroke-linecap:butt;stroke-linejoin:miter;stroke:rgb(98.039216%,92.156863%,84.313725%);stroke-opacity:1;stroke-miterlimit:10;" d="M 1066.035156 61.730469 L 1066.035156 50.277344 L 1068.316406 50.277344 L 1071.027344 58.386719 C 1071.273438 59.144531 1071.457031 59.710938 1071.574219 60.082031 C 1071.703125 59.667969 1071.90625 59.054688 1072.183594 58.246094 L 1074.925781 50.277344 L 1076.964844 50.277344 L 1076.964844 61.730469 L 1075.503906 61.730469 L 1075.503906 52.144531 L 1072.175781 61.730469 L 1070.808594 61.730469 L 1067.496094 51.980469 L 1067.496094 61.730469 Z M 1078.933594 51.777344 L 1078.933594 50.425781 L 1086.347656 50.425781 L 1086.347656 51.519531 C 1085.617188 52.296875 1084.894531 53.328125 1084.179688 54.613281 C 1083.460938 55.902344 1082.90625 57.226563 1082.519531 58.582031 C 1082.234375 59.542969 1082.054688 60.589844 1081.980469 61.730469 L 1080.535156 61.730469 C 1080.546875 60.832031 1080.722656 59.746094 1081.066406 58.464844 C 1081.402344 57.191406 1081.890625 55.960938 1082.523438 54.773438 C 1083.15625 53.59375 1083.828125 52.59375 1084.542969 51.777344 Z M 1087.074219 61.730469 "/>
<path style="fill-rule:nonzero;fill:rgb(0%,0%,0%);fill-opacity:1;stroke-width:0.25;stroke-linecap:butt;stroke-linejoin:miter;stroke:rgb(98.039216%,92.156863%,84.313725%);stroke-opacity:1;stroke-miterlimit:10;" d="M 1174.988281 61.535156 L 1174.988281 50.082031 L 1177.269531 50.082031 L 1179.980469 58.191406 C 1180.226563 58.949219 1180.410156 59.515625 1180.527344 59.886719 C 1180.65625 59.472656 1180.859375 58.859375 1181.136719 58.050781 L 1183.878906 50.082031 L 1185.917969 50.082031 L 1185.917969 61.535156 L 1184.457031 61.535156 L 1184.457031 51.949219 L 1181.128906 61.535156 L 1179.761719 61.535156 L 1176.449219 51.785156 L 1176.449219 61.535156 Z M 1189.957031 55.324219 C 1189.371094 55.113281 1188.9375 54.808594 1188.660156 54.410156 C 1188.375 54.015625 1188.234375 53.542969 1188.238281 52.988281 C 1188.234375 52.15625 1188.535156 51.457031 1189.136719 50.886719 C 1189.734375 50.324219 1190.53125 50.039063 1191.527344 50.035156 C 1192.523438 50.039063 1193.328125 50.328125 1193.941406 50.90625 C 1194.546875 51.488281 1194.851563 52.195313 1194.855469 53.027344 C 1194.851563 53.558594 1194.710938 54.023438 1194.4375 54.414063 C 1194.15625 54.8125 1193.734375 55.113281 1193.167969 55.324219 C 1193.867188 55.554688 1194.402344 55.925781 1194.773438 56.433594 C 1195.136719 56.945313 1195.320313 57.554688 1195.324219 58.261719 C 1195.320313 59.242188 1194.972656 60.066406 1194.285156 60.730469 C 1193.589844 61.398438 1192.679688 61.726563 1191.550781 61.730469 C 1190.417969 61.726563 1189.507813 61.394531 1188.816406 60.726563 C 1188.121094 60.058594 1187.773438 59.226563 1187.777344 58.222656 C 1187.773438 57.480469 1187.960938 56.855469 1188.34375 56.351563 C 1188.71875 55.851563 1189.257813 55.507813 1189.957031 55.324219 Z M 1189.675781 52.941406 C 1189.671875 53.484375 1189.847656 53.925781 1190.199219 54.269531 C 1190.546875 54.613281 1191 54.785156 1191.558594 54.785156 C 1192.097656 54.785156 1192.539063 54.617188 1192.890625 54.273438 C 1193.234375 53.9375 1193.410156 53.519531 1193.410156 53.019531 C 1193.410156 52.507813 1193.230469 52.074219 1192.875 51.71875 C 1192.515625 51.371094 1192.070313 51.195313 1191.542969 51.191406 C 1191.003906 51.195313 1190.558594 51.367188 1190.207031 51.707031 C 1189.847656 52.054688 1189.671875 52.464844 1189.675781 52.941406 Z M 1189.222656 58.230469 C 1189.21875 58.632813 1189.316406 59.023438 1189.507813 59.394531 C 1189.695313 59.773438 1189.976563 60.0625 1190.355469 60.265625 C 1190.726563 60.472656 1191.128906 60.574219 1191.566406 60.574219 C 1192.234375 60.574219 1192.789063 60.359375 1193.230469 59.925781 C 1193.664063 59.496094 1193.882813 58.945313 1193.886719 58.277344 C 1193.882813 57.601563 1193.660156 57.042969 1193.210938 56.597656 C 1192.757813 56.15625 1192.191406 55.933594 1191.519531 55.933594 C 1190.855469 55.933594 1190.308594 56.152344 1189.875 56.589844 C 1189.4375 57.027344 1189.21875 57.574219 1189.222656 58.230469 Z M 1196.027344 61.535156 "/>
<path style="fill-rule:nonzero;fill:rgb(0%,0%,0%);fill-opacity:1;stroke-width:0.25;stroke-linecap:butt;stroke-linejoin:miter;stroke:rgb(98.039216%,92.156863%,84.313725%);stroke-opacity:1;stroke-miterlimit:10;" d="M 575.746094 235.859375 L 575.746094 224.40625 L 578.027344 224.40625 L 580.738281 232.515625 C 580.984375 233.273438 581.167969 233.839844 581.285156 234.210938 C 581.414063 233.796875 581.617188 233.183594 581.894531 232.375 L 584.636719 224.40625 L 586.675781 224.40625 L 586.675781 235.859375 L 585.214844 235.859375 L 585.214844 226.273438 L 581.886719 235.859375 L 580.519531 235.859375 L 577.207031 226.109375 L 577.207031 235.859375 Z M 588.761719 233.210938 L 590.113281 233.085938 C 590.226563 233.726563 590.445313 234.1875 590.769531 234.46875 C 591.089844 234.757813 591.503906 234.898438 592.011719 234.898438 C 592.441406 234.898438 592.820313 234.800781 593.148438 234.601563 C 593.472656 234.40625 593.738281 234.140625 593.949219 233.808594 C 594.15625 233.480469 594.332031 233.035156 594.472656 232.46875 C 594.613281 231.910156 594.683594 231.335938 594.683594 230.75 C 594.683594 230.6875 594.679688 230.59375 594.675781 230.46875 C 594.390625 230.917969 594.007813 231.28125 593.523438 231.558594 C 593.035156 231.839844 592.507813 231.980469 591.941406 231.976563 C 590.992188 231.980469 590.1875 231.636719 589.535156 230.945313 C 588.875 230.261719 588.546875 229.355469 588.550781 228.226563 C 588.546875 227.066406 588.890625 226.132813 589.578125 225.421875 C 590.261719 224.71875 591.121094 224.363281 592.152344 224.359375 C 592.894531 224.363281 593.574219 224.5625 594.195313 224.960938 C 594.808594 225.363281 595.277344 225.9375 595.601563 226.675781 C 595.917969 227.421875 596.078125 228.496094 596.082031 229.898438 C 596.078125 231.367188 595.917969 232.53125 595.605469 233.394531 C 595.285156 234.265625 594.8125 234.925781 594.1875 235.375 C 593.554688 235.828125 592.820313 236.050781 591.980469 236.054688 C 591.082031 236.050781 590.351563 235.804688 589.785156 235.308594 C 589.214844 234.8125 588.871094 234.113281 588.761719 233.210938 Z M 594.519531 228.15625 C 594.519531 227.351563 594.304688 226.710938 593.875 226.234375 C 593.445313 225.761719 592.925781 225.523438 592.324219 225.523438 C 591.695313 225.523438 591.152344 225.78125 590.691406 226.289063 C 590.226563 226.804688 589.996094 227.464844 589.996094 228.273438 C 589.996094 229.003906 590.214844 229.597656 590.65625 230.050781 C 591.09375 230.511719 591.636719 230.738281 592.285156 230.734375 C 592.933594 230.738281 593.46875 230.511719 593.890625 230.050781 C 594.308594 229.597656 594.519531 228.964844 594.519531 228.15625 Z M 596.785156 235.859375 "/>
<path style="fill-rule:nonzero;fill:rgb(0%,0%,0%);fill-opacity:1;stroke-width:0.25;stroke-linecap:butt;stroke-linejoin:miter;stroke:rgb(98.039216%,92.156863%,84.313725%);stroke-opacity:1;stroke-miterlimit:10;" d="M 793.652344 235.859375 L 793.652344 224.40625 L 795.933594 224.40625 L 798.644531 232.515625 C 798.890625 233.273438 799.074219 233.839844 799.191406 234.210938 C 799.320313 233.796875 799.523438 233.183594 799.800781 232.375 L 802.542969 224.40625 L 804.582031 224.40625 L 804.582031 235.859375 L 803.121094 235.859375 L 803.121094 226.273438 L 799.792969 235.859375 L 798.425781 235.859375 L 795.113281 226.109375 L 795.113281 235.859375 Z M 811.753906 235.859375 L 810.347656 235.859375 L 810.347656 226.898438 C 810.003906 227.226563 809.5625 227.546875 809.015625 227.867188 C 808.464844 228.191406 807.96875 228.433594 807.535156 228.59375 L 807.535156 227.234375 C 808.316406 226.867188 809.003906 226.421875 809.597656 225.890625 C 810.183594 225.367188 810.601563 224.855469 810.847656 224.359375 L 811.753906 224.359375 Z M 815.355469 230.210938 C 815.351563 228.859375 815.492188 227.769531 815.773438 226.941406 C 816.050781 226.117188 816.464844 225.480469 817.015625 225.03125 C 817.5625 224.585938 818.253906 224.363281 819.089844 224.359375 C 819.703125 224.363281 820.242188 224.488281 820.707031 224.730469 C 821.167969 224.980469 821.550781 225.335938 821.855469 225.800781 C 822.15625 226.269531 822.394531 226.835938 822.566406 227.503906 C 822.738281 228.175781 822.824219 229.078125 822.824219 230.210938 C 822.824219 231.554688 822.683594 232.640625 822.410156 233.464844 C 822.128906 234.292969 821.71875 234.929688 821.171875 235.378906 C 820.621094 235.828125 819.925781 236.050781 819.089844 236.054688 C 817.984375 236.050781 817.117188 235.660156 816.488281 234.867188 C 815.730469 233.917969 815.351563 232.363281 815.355469 230.210938 Z M 816.800781 230.210938 C 816.800781 232.09375 817.019531 233.347656 817.460938 233.964844 C 817.898438 234.589844 818.441406 234.898438 819.089844 234.898438 C 819.734375 234.898438 820.277344 234.585938 820.71875 233.960938 C 821.15625 233.335938 821.375 232.085938 821.378906 230.210938 C 821.375 228.328125 821.15625 227.078125 820.71875 226.453125 C 820.277344 225.835938 819.730469 225.523438 819.074219 225.523438 C 818.425781 225.523438 817.910156 225.796875 817.527344 226.34375 C 817.042969 227.042969 816.800781 228.332031 816.800781 230.210938 Z M 823.589844 235.859375 "/>
<path style="fill-rule:nonzero;fill:rgb(0%,0%,0%);fill-opacity:1;stroke-width:0.25;stroke-linecap:butt;stroke-linejoin:miter;stroke:rgb(98.039216%,92.156863%,84.313725%);stroke-opacity:1;stroke-miterlimit:10;" d="M 1011.558594 236.054688 L 1011.558594 224.601563 L 1013.839844 224.601563 L 1016.550781 232.710938 C 1016.796875 233.46875 1016.980469 234.035156 1017.097656 234.40625 C 1017.226563 233.992188 1017.429688 233.378906 1017.707031 232.570313 L 1020.449219 224.601563 L 1022.488281 224.601563 L 1022.488281 236.054688 L 1021.027344 236.054688 L 1021.027344 226.46875 L 1017.699219 236.054688 L 1016.332031 236.054688 L 1013.019531 226.304688 L 1013.019531 236.054688 Z M 1029.660156 236.054688 L 1028.253906 236.054688 L 1028.253906 227.09375 C 1027.910156 227.421875 1027.46875 227.742188 1026.921875 228.0625 C 1026.371094 228.386719 1025.875 228.628906 1025.441406 228.789063 L 1025.441406 227.429688 C 1026.222656 227.0625 1026.910156 226.617188 1027.503906 226.085938 C 1028.089844 225.5625 1028.507813 225.050781 1028.753906 224.554688 L 1029.660156 224.554688 Z M 1038.558594 236.054688 L 1037.152344 236.054688 L 1037.152344 227.09375 C 1036.808594 227.421875 1036.367188 227.742188 1035.820313 228.0625 C 1035.269531 228.386719 1034.773438 228.628906 1034.339844 228.789063 L 1034.339844 227.429688 C 1035.121094 227.0625 1035.808594 226.617188 1036.402344 226.085938 C 1036.988281 225.5625 1037.40625 225.050781 1037.652344 224.554688 L 1038.558594 224.554688 Z M 1041.496094 236.054688 "/>
<path style="fill-rule:nonzero;fill:rgb(0%,0%,0%);fill-opacity:1;stroke-width:0.25;stroke-linecap:butt;stroke-linejoin:miter;stroke:rgb(98.039216%,92.156863%,84.313725%);stroke-opacity:1;stroke-miterlimit:10;" d="M 412.316406 148.894531 L 412.316406 137.441406 L 414.597656 137.441406 L 417.308594 145.550781 C 417.554688 146.308594 417.738281 146.875 417.855469 147.246094 C 417.984375 146.832031 418.1875 146.21875 418.464844 145.410156 L 421.207031 137.441406 L 423.246094 137.441406 L 423.246094 148.894531 L 421.785156 148.894531 L 421.785156 139.308594 L 418.457031 148.894531 L 417.089844 148.894531 L 413.777344 139.144531 L 413.777344 148.894531 Z M 430.417969 148.894531 L 429.011719 148.894531 L 429.011719 139.933594 C 428.667969 140.261719 428.226563 140.582031 427.679688 140.902344 C 427.128906 141.226563 426.632813 141.46875 426.199219 141.628906 L 426.199219 140.269531 C 426.980469 139.902344 427.667969 139.457031 428.261719 138.925781 C 428.847656 138.402344 429.265625 137.890625 429.511719 137.394531 L 430.417969 137.394531 Z M 441.410156 147.542969 L 441.410156 148.894531 L 433.839844 148.894531 C 433.828125 148.558594 433.882813 148.234375 434.003906 147.917969 C 434.195313 147.40625 434.503906 146.898438 434.929688 146.394531 C 435.351563 145.898438 435.964844 145.320313 436.769531 144.660156 C 438.011719 143.640625 438.851563 142.832031 439.292969 142.234375 C 439.726563 141.640625 439.945313 141.078125 439.949219 140.542969 C 439.945313 139.988281 439.746094 139.515625 439.351563 139.132813 C 438.949219 138.75 438.429688 138.558594 437.792969 138.558594 C 437.113281 138.558594 436.574219 138.761719 436.167969 139.167969 C 435.761719 139.574219 435.554688 140.136719 435.550781 140.855469 L 434.105469 140.707031 C 434.203125 139.632813 434.574219 138.808594 435.222656 138.242188 C 435.867188 137.679688 436.734375 137.398438 437.824219 137.394531 C 438.921875 137.398438 439.792969 137.703125 440.433594 138.308594 C 441.074219 138.921875 441.394531 139.675781 441.394531 140.574219 C 441.394531 141.035156 441.300781 141.488281 441.113281 141.925781 C 440.925781 142.371094 440.613281 142.835938 440.179688 143.324219 C 439.742188 143.816406 439.019531 144.488281 438.011719 145.339844 C 437.164063 146.050781 436.621094 146.53125 436.386719 146.78125 C 436.144531 147.035156 435.949219 147.289063 435.792969 147.542969 Z M 442.253906 148.894531 "/>
<path style="fill-rule:nonzero;fill:rgb(0%,0%,0%);fill-opacity:1;stroke-width:0.25;stroke-linecap:butt;stroke-linejoin:miter;stroke:rgb(98.039216%,92.156863%,84.313725%);stroke-opacity:1;stroke-miterlimit:10;" d="M 466.792969 148.691406 L 466.792969 137.238281 L 469.074219 137.238281 L 471.785156 145.347656 C 472.03125 146.105469 472.214844 146.671875 472.332031 147.042969 C 472.460938 146.628906 472.664063 146.015625 472.941406 145.207031 L 475.683594 137.238281 L 477.722656 137.238281 L 477.722656 148.691406 L 476.261719 148.691406 L 476.261719 139.105469 L 472.933594 148.691406 L 471.566406 148.691406 L 468.253906 138.941406 L 468.253906 148.691406 Z M 484.894531 148.691406 L 483.488281 148.691406 L 483.488281 139.730469 C 483.144531 140.058594 482.703125 140.378906 482.15625 140.699219 C 481.605469 141.023438 481.109375 141.265625 480.675781 141.425781 L 480.675781 140.066406 C 481.457031 139.699219 482.144531 139.253906 482.738281 138.722656 C 483.324219 138.199219 483.742188 137.6875 483.988281 137.191406 L 484.894531 137.191406 Z M 488.503906 145.667969 L 489.910156 145.480469 C 490.070313 146.277344 490.34375 146.851563 490.734375 147.203125 C 491.117188 147.554688 491.589844 147.730469 492.152344 147.730469 C 492.808594 147.730469 493.367188 147.503906 493.828125 147.042969 C 494.28125 146.589844 494.511719 146.019531 494.511719 145.339844 C 494.511719 144.695313 494.300781 144.164063 493.878906 143.742188 C 493.457031 143.324219 492.917969 143.113281 492.269531 143.113281 C 492 143.113281 491.671875 143.167969 491.277344 143.269531 L 491.433594 142.035156 C 491.523438 142.046875 491.597656 142.054688 491.660156 142.050781 C 492.253906 142.054688 492.792969 141.898438 493.277344 141.582031 C 493.753906 141.273438 493.996094 140.789063 493.996094 140.136719 C 493.996094 139.621094 493.820313 139.195313 493.472656 138.855469 C 493.121094 138.519531 492.671875 138.351563 492.121094 138.347656 C 491.574219 138.351563 491.117188 138.523438 490.753906 138.863281 C 490.386719 139.210938 490.152344 139.726563 490.050781 140.410156 L 488.644531 140.160156 C 488.8125 139.21875 489.203125 138.488281 489.816406 137.96875 C 490.421875 137.453125 491.179688 137.195313 492.089844 137.191406 C 492.710938 137.195313 493.285156 137.328125 493.816406 137.59375 C 494.339844 137.863281 494.742188 138.230469 495.023438 138.691406 C 495.296875 139.15625 495.4375 139.648438 495.441406 140.167969 C 495.4375 140.664063 495.304688 141.113281 495.042969 141.519531 C 494.773438 141.925781 494.378906 142.25 493.863281 142.488281 C 494.535156 142.648438 495.0625 142.972656 495.441406 143.460938 C 495.8125 143.957031 496 144.574219 496.003906 145.308594 C 496 146.3125 495.636719 147.160156 494.910156 147.851563 C 494.179688 148.546875 493.257813 148.890625 492.144531 148.894531 C 491.136719 148.890625 490.300781 148.59375 489.640625 147.996094 C 488.972656 147.398438 488.59375 146.621094 488.503906 145.667969 Z M 496.730469 148.691406 "/>
<path style="fill-rule:nonzero;fill:rgb(0%,0%,0%);fill-opacity:1;stroke-width:0.25;stroke-linecap:butt;stroke-linejoin:miter;stroke:rgb(98.039216%,92.156863%,84.313725%);stroke-opacity:1;stroke-miterlimit:10;" d="M 521.269531 148.894531 L 521.269531 137.441406 L 523.550781 137.441406 L 526.261719 145.550781 C 526.507813 146.308594 526.691406 146.875 526.808594 147.246094 C 526.9375 146.832031 527.140625 146.21875 527.417969 145.410156 L 530.160156 137.441406 L 532.199219 137.441406 L 532.199219 148.894531 L 530.738281 148.894531 L 530.738281 139.308594 L 527.410156 148.894531 L 526.042969 148.894531 L 522.730469 139.144531 L 522.730469 148.894531 Z M 539.371094 148.894531 L 537.964844 148.894531 L 537.964844 139.933594 C 537.621094 140.261719 537.179688 140.582031 536.632813 140.902344 C 536.082031 141.226563 535.585938 141.46875 535.152344 141.628906 L 535.152344 140.269531 C 535.933594 139.902344 536.621094 139.457031 537.214844 138.925781 C 537.800781 138.402344 538.21875 137.890625 538.464844 137.394531 L 539.371094 137.394531 Z M 547.480469 148.894531 L 547.480469 146.152344 L 542.511719 146.152344 L 542.511719 144.863281 L 547.738281 137.441406 L 548.886719 137.441406 L 548.886719 144.863281 L 550.433594 144.863281 L 550.433594 146.152344 L 548.886719 146.152344 L 548.886719 148.894531 Z M 547.480469 144.863281 L 547.480469 139.699219 L 543.894531 144.863281 Z M 551.207031 148.894531 "/>
<path style="fill-rule:nonzero;fill:rgb(0%,0%,0%);fill-opacity:1;stroke-width:0.25;stroke-linecap:butt;stroke-linejoin:miter;stroke:rgb(98.039216%,92.156863%,84.313725%);stroke-opacity:1;stroke-miterlimit:10;" d="M 630.222656 148.699219 L 630.222656 137.246094 L 632.503906 137.246094 L 635.214844 145.355469 C 635.460938 146.113281 635.644531 146.679688 635.761719 147.050781 C 635.890625 146.636719 636.09375 146.023438 636.371094 145.214844 L 639.113281 137.246094 L 641.152344 137.246094 L 641.152344 148.699219 L 639.691406 148.699219 L 639.691406 139.113281 L 636.363281 148.699219 L 634.996094 148.699219 L 631.683594 138.949219 L 631.683594 148.699219 Z M 648.324219 148.699219 L 646.917969 148.699219 L 646.917969 139.738281 C 646.574219 140.066406 646.132813 140.386719 645.585938 140.707031 C 645.035156 141.03125 644.539063 141.273438 644.105469 141.433594 L 644.105469 140.074219 C 644.886719 139.707031 645.574219 139.261719 646.167969 138.730469 C 646.753906 138.207031 647.171875 137.695313 647.417969 137.199219 L 648.324219 137.199219 Z M 651.925781 145.699219 L 653.402344 145.574219 C 653.507813 146.296875 653.761719 146.835938 654.164063 147.195313 C 654.558594 147.558594 655.039063 147.738281 655.605469 147.738281 C 656.277344 147.738281 656.851563 147.484375 657.324219 146.972656 C 657.789063 146.464844 658.023438 145.789063 658.027344 144.941406 C 658.023438 144.144531 657.796875 143.511719 657.351563 143.042969 C 656.898438 142.582031 656.308594 142.347656 655.582031 142.347656 C 655.125 142.347656 654.71875 142.453125 654.355469 142.65625 C 653.988281 142.867188 653.699219 143.132813 653.496094 143.457031 L 652.175781 143.285156 L 653.285156 137.402344 L 658.980469 137.402344 L 658.980469 138.746094 L 654.410156 138.746094 L 653.792969 141.824219 C 654.480469 141.347656 655.199219 141.105469 655.957031 141.105469 C 656.953125 141.105469 657.796875 141.453125 658.488281 142.144531 C 659.171875 142.839844 659.515625 143.730469 659.519531 144.816406 C 659.515625 145.855469 659.214844 146.75 658.613281 147.503906 C 657.875 148.429688 656.871094 148.890625 655.605469 148.894531 C 654.558594 148.890625 653.710938 148.601563 653.054688 148.019531 C 652.394531 147.4375 652.015625 146.664063 651.925781 145.699219 Z M 660.160156 148.699219 "/>
<path style="fill-rule:nonzero;fill:rgb(0%,0%,0%);fill-opacity:1;stroke-width:0.25;stroke-linecap:butt;stroke-linejoin:miter;stroke:rgb(98.039216%,92.156863%,84.313725%);stroke-opacity:1;stroke-miterlimit:10;" d="M 684.699219 148.699219 L 684.699219 137.246094 L 686.980469 137.246094 L 689.691406 145.355469 C 689.9375 146.113281 690.121094 146.679688 690.238281 147.050781 C 690.367188 146.636719 690.570313 146.023438 690.847656 145.214844 L 693.589844 137.246094 L 695.628906 137.246094 L 695.628906 148.699219 L 694.167969 148.699219 L 694.167969 139.113281 L 690.839844 148.699219 L 689.472656 148.699219 L 686.160156 138.949219 L 686.160156 148.699219 Z M 702.800781 148.699219 L 701.394531 148.699219 L 701.394531 139.738281 C 701.050781 140.066406 700.609375 140.386719 700.0625 140.707031 C 699.511719 141.03125 699.015625 141.273438 698.582031 141.433594 L 698.582031 140.074219 C 699.363281 139.707031 700.050781 139.261719 700.644531 138.730469 C 701.230469 138.207031 701.648438 137.695313 701.894531 137.199219 L 702.800781 137.199219 Z M 713.699219 140.050781 L 712.300781 140.160156 C 712.175781 139.613281 711.996094 139.210938 711.769531 138.957031 C 711.386719 138.558594 710.917969 138.359375 710.363281 138.355469 C 709.910156 138.359375 709.519531 138.484375 709.183594 138.730469 C 708.738281 139.058594 708.386719 139.527344 708.136719 140.144531 C 707.878906 140.765625 707.746094 141.648438 707.738281 142.792969 C 708.074219 142.277344 708.488281 141.894531 708.980469 141.644531 C 709.464844 141.394531 709.980469 141.269531 710.519531 141.269531 C 711.457031 141.269531 712.253906 141.617188 712.914063 142.304688 C 713.570313 143 713.898438 143.890625 713.902344 144.980469 C 713.898438 145.703125 713.746094 146.371094 713.4375 146.984375 C 713.125 147.605469 712.699219 148.078125 712.160156 148.402344 C 711.617188 148.730469 711 148.890625 710.316406 148.894531 C 709.140625 148.890625 708.1875 148.464844 707.449219 147.601563 C 706.707031 146.742188 706.335938 145.320313 706.339844 143.339844 C 706.335938 141.128906 706.746094 139.519531 707.566406 138.511719 C 708.277344 137.640625 709.238281 137.203125 710.449219 137.199219 C 711.347656 137.203125 712.085938 137.457031 712.664063 137.957031 C 713.238281 138.464844 713.582031 139.160156 713.699219 140.050781 Z M 707.957031 144.988281 C 707.953125 145.476563 708.054688 145.9375 708.265625 146.378906 C 708.46875 146.824219 708.757813 147.164063 709.128906 147.390625 C 709.496094 147.625 709.882813 147.738281 710.292969 147.738281 C 710.882813 147.738281 711.394531 147.5 711.824219 147.019531 C 712.25 146.542969 712.464844 145.890625 712.464844 145.066406 C 712.464844 144.277344 712.253906 143.65625 711.832031 143.195313 C 711.410156 142.742188 710.878906 142.511719 710.238281 142.511719 C 709.601563 142.511719 709.0625 142.742188 708.621094 143.195313 C 708.175781 143.65625 707.953125 144.253906 707.957031 144.988281 Z M 714.636719 148.699219 "/>
<path style="fill-rule:nonzero;fill:rgb(0%,0%,0%);fill-opacity:1;stroke-width:0.25;stroke-linecap:butt;stroke-linejoin:miter;stroke:rgb(98.039216%,92.156863%,84.313725%);stroke-opacity:1;stroke-miterlimit:10;" d="M 739.175781 148.894531 L 739.175781 137.441406 L 741.457031 137.441406 L 744.167969 145.550781 C 744.414063 146.308594 744.597656 146.875 744.714844 147.246094 C 744.84375 146.832031 745.046875 146.21875 745.324219 145.410156 L 748.066406 137.441406 L 750.105469 137.441406 L 750.105469 148.894531 L 748.644531 148.894531 L 748.644531 139.308594 L 745.316406 148.894531 L 743.949219 148.894531 L 740.636719 139.144531 L 740.636719 148.894531 Z M 757.277344 148.894531 L 755.871094 148.894531 L 755.871094 139.933594 C 755.527344 140.261719 755.085938 140.582031 754.539063 140.902344 C 753.988281 141.226563 753.492188 141.46875 753.058594 141.628906 L 753.058594 140.269531 C 753.839844 139.902344 754.527344 139.457031 755.121094 138.925781 C 755.707031 138.402344 756.125 137.890625 756.371094 137.394531 L 757.277344 137.394531 Z M 760.972656 138.941406 L 760.972656 137.589844 L 768.386719 137.589844 L 768.386719 138.683594 C 767.65625 139.460938 766.933594 140.492188 766.21875 141.777344 C 765.5 143.066406 764.945313 144.390625 764.558594 145.746094 C 764.273438 146.707031 764.09375 147.753906 764.019531 148.894531 L 762.574219 148.894531 C 762.585938 147.996094 762.761719 146.910156 763.105469 145.628906 C 763.441406 144.355469 763.929688 143.125 764.5625 141.9375 C 765.195313 140.757813 765.867188 139.757813 766.582031 138.941406 Z M 769.113281 148.894531 "/>
<path style="fill-rule:nonzero;fill:rgb(0%,0%,0%);fill-opacity:1;stroke-width:0.25;stroke-linecap:butt;stroke-linejoin:miter;stroke:rgb(98.039216%,92.156863%,84.313725%);stroke-opacity:1;stroke-miterlimit:10;" d="M 848.128906 148.699219 L 848.128906 137.246094 L 850.410156 137.246094 L 853.121094 145.355469 C 853.367188 146.113281 853.550781 146.679688 853.667969 147.050781 C 853.796875 146.636719 854 146.023438 854.277344 145.214844 L 857.019531 137.246094 L 859.058594 137.246094 L 859.058594 148.699219 L 857.597656 148.699219 L 857.597656 139.113281 L 854.269531 148.699219 L 852.902344 148.699219 L 849.589844 138.949219 L 849.589844 148.699219 Z M 866.230469 148.699219 L 864.824219 148.699219 L 864.824219 139.738281 C 864.480469 140.066406 864.039063 140.386719 863.492188 140.707031 C 862.941406 141.03125 862.445313 141.273438 862.011719 141.433594 L 862.011719 140.074219 C 862.792969 139.707031 863.480469 139.261719 864.074219 138.730469 C 864.660156 138.207031 865.078125 137.695313 865.324219 137.199219 L 866.230469 137.199219 Z M 871.996094 142.488281 C 871.410156 142.277344 870.976563 141.972656 870.699219 141.574219 C 870.414063 141.179688 870.273438 140.707031 870.277344 140.152344 C 870.273438 139.320313 870.574219 138.621094 871.175781 138.050781 C 871.773438 137.488281 872.570313 137.203125 873.566406 137.199219 C 874.5625 137.203125 875.367188 137.492188 875.980469 138.070313 C 876.585938 138.652344 876.890625 139.359375 876.894531 140.191406 C 876.890625 140.722656 876.75 141.1875 876.476563 141.578125 C 876.195313 141.976563 875.773438 142.277344 875.207031 142.488281 C 875.90625 142.71875 876.441406 143.089844 876.8125 143.597656 C 877.175781 144.109375 877.359375 144.71875 877.363281 145.425781 C 877.359375 146.40625 877.011719 147.230469 876.324219 147.894531 C 875.628906 148.5625 874.71875 148.890625 873.589844 148.894531 C 872.457031 148.890625 871.546875 148.558594 870.855469 147.890625 C 870.160156 147.222656 869.8125 146.390625 869.816406 145.386719 C 869.8125 144.644531 870 144.019531 870.382813 143.515625 C 870.757813 143.015625 871.296875 142.671875 871.996094 142.488281 Z M 871.714844 140.105469 C 871.710938 140.648438 871.886719 141.089844 872.238281 141.433594 C 872.585938 141.777344 873.039063 141.949219 873.597656 141.949219 C 874.136719 141.949219 874.578125 141.78125 874.929688 141.4375 C 875.273438 141.101563 875.449219 140.683594 875.449219 140.183594 C 875.449219 139.671875 875.269531 139.238281 874.914063 138.882813 C 874.554688 138.535156 874.109375 138.359375 873.582031 138.355469 C 873.042969 138.359375 872.597656 138.53125 872.246094 138.871094 C 871.886719 139.21875 871.710938 139.628906 871.714844 140.105469 Z M 871.261719 145.394531 C 871.257813 145.796875 871.355469 146.1875 871.546875 146.558594 C 871.734375 146.9375 872.015625 147.226563 872.394531 147.429688 C 872.765625 147.636719 873.167969 147.738281 873.605469 147.738281 C 874.273438 147.738281 874.828125 147.523438 875.269531 147.089844 C 875.703125 146.660156 875.921875 146.109375 875.925781 145.441406 C 875.921875 144.765625 875.699219 144.207031 875.25 143.761719 C 874.796875 143.320313 874.230469 143.097656 873.558594 143.097656 C 872.894531 143.097656 872.347656 143.316406 871.914063 143.753906 C 871.476563 144.191406 871.257813 144.738281 871.261719 145.394531 Z M 878.066406 148.699219 "/>
<path style="fill-rule:nonzero;fill:rgb(0%,0%,0%);fill-opacity:1;stroke-width:0.25;stroke-linecap:butt;stroke-linejoin:miter;stroke:rgb(98.039216%,92.156863%,84.313725%);stroke-opacity:1;stroke-miterlimit:10;" d="M 902.605469 148.699219 L 902.605469 137.246094 L 904.886719 137.246094 L 907.597656 145.355469 C 907.84375 146.113281 908.027344 146.679688 908.144531 147.050781 C 908.273438 146.636719 908.476563 146.023438 908.753906 145.214844 L 911.496094 137.246094 L 913.535156 137.246094 L 913.535156 148.699219 L 912.074219 148.699219 L 912.074219 139.113281 L 908.746094 148.699219 L 907.378906 148.699219 L 904.066406 138.949219 L 904.066406 148.699219 Z M 920.707031 148.699219 L 919.300781 148.699219 L 919.300781 139.738281 C 918.957031 140.066406 918.515625 140.386719 917.96875 140.707031 C 917.417969 141.03125 916.921875 141.273438 916.488281 141.433594 L 916.488281 140.074219 C 917.269531 139.707031 917.957031 139.261719 918.550781 138.730469 C 919.136719 138.207031 919.554688 137.695313 919.800781 137.199219 L 920.707031 137.199219 Z M 924.519531 146.050781 L 925.871094 145.925781 C 925.984375 146.566406 926.203125 147.027344 926.527344 147.308594 C 926.847656 147.597656 927.261719 147.738281 927.769531 147.738281 C 928.199219 147.738281 928.578125 147.640625 928.90625 147.441406 C 929.230469 147.246094 929.496094 146.980469 929.707031 146.648438 C 929.914063 146.320313 930.089844 145.875 930.230469 145.308594 C 930.371094 144.75 930.441406 144.175781 930.441406 143.589844 C 930.441406 143.527344 930.4375 143.433594 930.433594 143.308594 C 930.148438 143.757813 929.765625 144.121094 929.28125 144.398438 C 928.792969 144.679688 928.265625 144.820313 927.699219 144.816406 C 926.75 144.820313 925.945313 144.476563 925.292969 143.785156 C 924.632813 143.101563 924.304688 142.195313 924.308594 141.066406 C 924.304688 139.90625 924.648438 138.972656 925.335938 138.261719 C 926.019531 137.558594 926.878906 137.203125 927.910156 137.199219 C 928.652344 137.203125 929.332031 137.402344 929.953125 137.800781 C 930.566406 138.203125 931.035156 138.777344 931.359375 139.515625 C 931.675781 140.261719 931.835938 141.335938 931.839844 142.738281 C 931.835938 144.207031 931.675781 145.371094 931.363281 146.234375 C 931.042969 147.105469 930.570313 147.765625 929.945313 148.214844 C 929.3125 148.667969 928.578125 148.890625 927.738281 148.894531 C 926.839844 148.890625 926.109375 148.644531 925.542969 148.148438 C 924.972656 147.652344 924.628906 146.953125 924.519531 146.050781 Z M 930.277344 140.996094 C 930.277344 140.191406 930.0625 139.550781 929.632813 139.074219 C 929.203125 138.601563 928.683594 138.363281 928.082031 138.363281 C 927.453125 138.363281 926.910156 138.621094 926.449219 139.128906 C 925.984375 139.644531 925.753906 140.304688 925.753906 141.113281 C 925.753906 141.84375 925.972656 142.4375 926.414063 142.890625 C 926.851563 143.351563 927.394531 143.578125 928.042969 143.574219 C 928.691406 143.578125 929.226563 143.351563 929.648438 142.890625 C 930.066406 142.4375 930.277344 141.804688 930.277344 140.996094 Z M 932.542969 148.699219 "/>
<path style="fill-rule:nonzero;fill:rgb(0%,0%,0%);fill-opacity:1;stroke-width:0.25;stroke-linecap:butt;stroke-linejoin:miter;stroke:rgb(98.039216%,92.156863%,84.313725%);stroke-opacity:1;stroke-miterlimit:10;" d="M 957.082031 148.699219 L 957.082031 137.246094 L 959.363281 137.246094 L 962.074219 145.355469 C 962.320313 146.113281 962.503906 146.679688 962.621094 147.050781 C 962.75 146.636719 962.953125 146.023438 963.230469 145.214844 L 965.972656 137.246094 L 968.011719 137.246094 L 968.011719 148.699219 L 966.550781 148.699219 L 966.550781 139.113281 L 963.222656 148.699219 L 961.855469 148.699219 L 958.542969 138.949219 L 958.542969 148.699219 Z M 977.277344 147.347656 L 977.277344 148.699219 L 969.707031 148.699219 C 969.695313 148.363281 969.75 148.039063 969.871094 147.722656 C 970.0625 147.210938 970.371094 146.703125 970.796875 146.199219 C 971.21875 145.703125 971.832031 145.125 972.636719 144.464844 C 973.878906 143.445313 974.71875 142.636719 975.160156 142.039063 C 975.59375 141.445313 975.8125 140.882813 975.816406 140.347656 C 975.8125 139.792969 975.613281 139.320313 975.21875 138.9375 C 974.816406 138.554688 974.296875 138.363281 973.660156 138.363281 C 972.980469 138.363281 972.441406 138.566406 972.035156 138.972656 C 971.628906 139.378906 971.421875 139.941406 971.417969 140.660156 L 969.972656 140.511719 C 970.070313 139.4375 970.441406 138.613281 971.089844 138.046875 C 971.734375 137.484375 972.601563 137.203125 973.691406 137.199219 C 974.789063 137.203125 975.660156 137.507813 976.300781 138.113281 C 976.941406 138.726563 977.261719 139.480469 977.261719 140.378906 C 977.261719 140.839844 977.167969 141.292969 976.980469 141.730469 C 976.792969 142.175781 976.480469 142.640625 976.046875 143.128906 C 975.609375 143.621094 974.886719 144.292969 973.878906 145.144531 C 973.03125 145.855469 972.488281 146.335938 972.253906 146.585938 C 972.011719 146.839844 971.816406 147.09375 971.660156 147.347656 Z M 978.785156 143.050781 C 978.78125 141.699219 978.921875 140.609375 979.203125 139.78125 C 979.480469 138.957031 979.894531 138.320313 980.445313 137.871094 C 980.992188 137.425781 981.683594 137.203125 982.519531 137.199219 C 983.132813 137.203125 983.671875 137.328125 984.136719 137.570313 C 984.597656 137.820313 984.980469 138.175781 985.285156 138.640625 C 985.585938 139.109375 985.824219 139.675781 985.996094 140.34375 C 986.167969 141.015625 986.253906 141.917969 986.253906 143.050781 C 986.253906 144.394531 986.113281 145.480469 985.839844 146.304688 C 985.558594 147.132813 985.148438 147.769531 984.601563 148.21875 C 984.050781 148.667969 983.355469 148.890625 982.519531 148.894531 C 981.414063 148.890625 980.546875 148.5 979.917969 147.707031 C 979.160156 146.757813 978.78125 145.203125 978.785156 143.050781 Z M 980.230469 143.050781 C 980.230469 144.933594 980.449219 146.1875 980.890625 146.804688 C 981.328125 147.429688 981.871094 147.738281 982.519531 147.738281 C 983.164063 147.738281 983.707031 147.425781 984.148438 146.800781 C 984.585938 146.175781 984.804688 144.925781 984.808594 143.050781 C 984.804688 141.167969 984.585938 139.917969 984.148438 139.292969 C 983.707031 138.675781 983.160156 138.363281 982.503906 138.363281 C 981.855469 138.363281 981.339844 138.636719 980.957031 139.183594 C 980.472656 139.882813 980.230469 141.171875 980.230469 143.050781 Z M 987.019531 148.699219 "/>
<path style="fill-rule:nonzero;fill:rgb(0%,0%,0%);fill-opacity:1;stroke-width:0.25;stroke-linecap:butt;stroke-linejoin:miter;stroke:rgb(98.039216%,92.156863%,84.313725%);stroke-opacity:1;stroke-miterlimit:10;" d="M 1066.035156 148.894531 L 1066.035156 137.441406 L 1068.316406 137.441406 L 1071.027344 145.550781 C 1071.273438 146.308594 1071.457031 146.875 1071.574219 147.246094 C 1071.703125 146.832031 1071.90625 146.21875 1072.183594 145.410156 L 1074.925781 137.441406 L 1076.964844 137.441406 L 1076.964844 148.894531 L 1075.503906 148.894531 L 1075.503906 139.308594 L 1072.175781 148.894531 L 1070.808594 148.894531 L 1067.496094 139.144531 L 1067.496094 148.894531 Z M 1086.230469 147.542969 L 1086.230469 148.894531 L 1078.660156 148.894531 C 1078.648438 148.558594 1078.703125 148.234375 1078.824219 147.917969 C 1079.015625 147.40625 1079.324219 146.898438 1079.75 146.394531 C 1080.171875 145.898438 1080.785156 145.320313 1081.589844 144.660156 C 1082.832031 143.640625 1083.671875 142.832031 1084.113281 142.234375 C 1084.546875 141.640625 1084.765625 141.078125 1084.769531 140.542969 C 1084.765625 139.988281 1084.566406 139.515625 1084.171875 139.132813 C 1083.769531 138.75 1083.25 138.558594 1082.613281 138.558594 C 1081.933594 138.558594 1081.394531 138.761719 1080.988281 139.167969 C 1080.582031 139.574219 1080.375 140.136719 1080.371094 140.855469 L 1078.925781 140.707031 C 1079.023438 139.632813 1079.394531 138.808594 1080.042969 138.242188 C 1080.6875 137.679688 1081.554688 137.398438 1082.644531 137.394531 C 1083.742188 137.398438 1084.613281 137.703125 1085.253906 138.308594 C 1085.894531 138.921875 1086.214844 139.675781 1086.214844 140.574219 C 1086.214844 141.035156 1086.121094 141.488281 1085.933594 141.925781 C 1085.746094 142.371094 1085.433594 142.835938 1085 143.324219 C 1084.5625 143.816406 1083.839844 144.488281 1082.832031 145.339844 C 1081.984375 146.050781 1081.441406 146.53125 1081.207031 146.78125 C 1080.964844 147.035156 1080.769531 147.289063 1080.613281 147.542969 Z M 1093.035156 148.894531 L 1091.628906 148.894531 L 1091.628906 139.933594 C 1091.285156 140.261719 1090.84375 140.582031 1090.296875 140.902344 C 1089.746094 141.226563 1089.25 141.46875 1088.816406 141.628906 L 1088.816406 140.269531 C 1089.597656 139.902344 1090.285156 139.457031 1090.878906 138.925781 C 1091.464844 138.402344 1091.882813 137.890625 1092.128906 137.394531 L 1093.035156 137.394531 Z M 1095.972656 148.894531 "/>
<path style="fill-rule:nonzero;fill:rgb(0%,0%,0%);fill-opacity:1;stroke-width:0.25;stroke-linecap:butt;stroke-linejoin:miter;stroke:rgb(98.039216%,92.156863%,84.313725%);stroke-opacity:1;stroke-miterlimit:10;" d="M 1120.511719 148.894531 L 1120.511719 137.441406 L 1122.792969 137.441406 L 1125.503906 145.550781 C 1125.75 146.308594 1125.933594 146.875 1126.050781 147.246094 C 1126.179688 146.832031 1126.382813 146.21875 1126.660156 145.410156 L 1129.402344 137.441406 L 1131.441406 137.441406 L 1131.441406 148.894531 L 1129.980469 148.894531 L 1129.980469 139.308594 L 1126.652344 148.894531 L 1125.285156 148.894531 L 1121.972656 139.144531 L 1121.972656 148.894531 Z M 1140.707031 147.542969 L 1140.707031 148.894531 L 1133.136719 148.894531 C 1133.125 148.558594 1133.179688 148.234375 1133.300781 147.917969 C 1133.492188 147.40625 1133.800781 146.898438 1134.226563 146.394531 C 1134.648438 145.898438 1135.261719 145.320313 1136.066406 144.660156 C 1137.308594 143.640625 1138.148438 142.832031 1138.589844 142.234375 C 1139.023438 141.640625 1139.242188 141.078125 1139.246094 140.542969 C 1139.242188 139.988281 1139.042969 139.515625 1138.648438 139.132813 C 1138.246094 138.75 1137.726563 138.558594 1137.089844 138.558594 C 1136.410156 138.558594 1135.871094 138.761719 1135.464844 139.167969 C 1135.058594 139.574219 1134.851563 140.136719 1134.847656 140.855469 L 1133.402344 140.707031 C 1133.5 139.632813 1133.871094 138.808594 1134.519531 138.242188 C 1135.164063 137.679688 1136.03125 137.398438 1137.121094 137.394531 C 1138.21875 137.398438 1139.089844 137.703125 1139.730469 138.308594 C 1140.371094 138.921875 1140.691406 139.675781 1140.691406 140.574219 C 1140.691406 141.035156 1140.597656 141.488281 1140.410156 141.925781 C 1140.222656 142.371094 1139.910156 142.835938 1139.476563 143.324219 C 1139.039063 143.816406 1138.316406 144.488281 1137.308594 145.339844 C 1136.460938 146.050781 1135.917969 146.53125 1135.683594 146.78125 C 1135.441406 147.035156 1135.246094 147.289063 1135.089844 147.542969 Z M 1149.605469 147.542969 L 1149.605469 148.894531 L 1142.035156 148.894531 C 1142.023438 148.558594 1142.078125 148.234375 1142.199219 147.917969 C 1142.390625 147.40625 1142.699219 146.898438 1143.125 146.394531 C 1143.546875 145.898438 1144.160156 145.320313 1144.964844 144.660156 C 1146.207031 143.640625 1147.046875 142.832031 1147.488281 142.234375 C 1147.921875 141.640625 1148.140625 141.078125 1148.144531 140.542969 C 1148.140625 139.988281 1147.941406 139.515625 1147.546875 139.132813 C 1147.144531 138.75 1146.625 138.558594 1145.988281 138.558594 C 1145.308594 138.558594 1144.769531 138.761719 1144.363281 139.167969 C 1143.957031 139.574219 1143.75 140.136719 1143.746094 140.855469 L 1142.300781 140.707031 C 1142.398438 139.632813 1142.769531 138.808594 1143.417969 138.242188 C 1144.0625 137.679688 1144.929688 137.398438 1146.019531 137.394531 C 1147.117188 137.398438 1147.988281 137.703125 1148.628906 138.308594 C 1149.269531 138.921875 1149.589844 139.675781 1149.589844 140.574219 C 1149.589844 141.035156 1149.496094 141.488281 1149.308594 141.925781 C 1149.121094 142.371094 1148.808594 142.835938 1148.375 143.324219 C 1147.9375 143.816406 1147.214844 144.488281 1146.207031 145.339844 C 1145.359375 146.050781 1144.816406 146.53125 1144.582031 146.78125 C 1144.339844 147.035156 1144.144531 147.289063 1143.988281 147.542969 Z M 1150.449219 148.894531 "/>
<path style="fill-rule:nonzero;fill:rgb(0%,0%,0%);fill-opacity:1;stroke-width:0.25;stroke-linecap:butt;stroke-linejoin:miter;stroke:rgb(98.039216%,92.156863%,84.313725%);stroke-opacity:1;stroke-miterlimit:10;" d="M 1174.988281 148.691406 L 1174.988281 137.238281 L 1177.269531 137.238281 L 1179.980469 145.347656 C 1180.226563 146.105469 1180.410156 146.671875 1180.527344 147.042969 C 1180.65625 146.628906 1180.859375 146.015625 1181.136719 145.207031 L 1183.878906 137.238281 L 1185.917969 137.238281 L 1185.917969 148.691406 L 1184.457031 148.691406 L 1184.457031 139.105469 L 1181.128906 148.691406 L 1179.761719 148.691406 L 1176.449219 138.941406 L 1176.449219 148.691406 Z M 1195.183594 147.339844 L 1195.183594 148.691406 L 1187.613281 148.691406 C 1187.601563 148.355469 1187.65625 148.03125 1187.777344 147.714844 C 1187.96875 147.203125 1188.277344 146.695313 1188.703125 146.191406 C 1189.125 145.695313 1189.738281 145.117188 1190.542969 144.457031 C 1191.785156 143.4375 1192.625 142.628906 1193.066406 142.03125 C 1193.5 141.4375 1193.71875 140.875 1193.722656 140.339844 C 1193.71875 139.785156 1193.519531 139.3125 1193.125 138.929688 C 1192.722656 138.546875 1192.203125 138.355469 1191.566406 138.355469 C 1190.886719 138.355469 1190.347656 138.558594 1189.941406 138.964844 C 1189.535156 139.371094 1189.328125 139.933594 1189.324219 140.652344 L 1187.878906 140.503906 C 1187.976563 139.429688 1188.347656 138.605469 1188.996094 138.039063 C 1189.640625 137.476563 1190.507813 137.195313 1191.597656 137.191406 C 1192.695313 137.195313 1193.566406 137.5 1194.207031 138.105469 C 1194.847656 138.71875 1195.167969 139.472656 1195.167969 140.371094 C 1195.167969 140.832031 1195.074219 141.285156 1194.886719 141.722656 C 1194.699219 142.167969 1194.386719 142.632813 1193.953125 143.121094 C 1193.515625 143.613281 1192.792969 144.285156 1191.785156 145.136719 C 1190.9375 145.847656 1190.394531 146.328125 1190.160156 146.578125 C 1189.917969 146.832031 1189.722656 147.085938 1189.566406 147.339844 Z M 1196.699219 145.667969 L 1198.105469 145.480469 C 1198.265625 146.277344 1198.539063 146.851563 1198.929688 147.203125 C 1199.3125 147.554688 1199.785156 147.730469 1200.347656 147.730469 C 1201.003906 147.730469 1201.5625 147.503906 1202.023438 147.042969 C 1202.476563 146.589844 1202.707031 146.019531 1202.707031 145.339844 C 1202.707031 144.695313 1202.496094 144.164063 1202.074219 143.742188 C 1201.652344 143.324219 1201.113281 143.113281 1200.464844 143.113281 C 1200.195313 143.113281 1199.867188 143.167969 1199.472656 143.269531 L 1199.628906 142.035156 C 1199.71875 142.046875 1199.792969 142.054688 1199.855469 142.050781 C 1200.449219 142.054688 1200.988281 141.898438 1201.472656 141.582031 C 1201.949219 141.273438 1202.191406 140.789063 1202.191406 140.136719 C 1202.191406 139.621094 1202.015625 139.195313 1201.667969 138.855469 C 1201.316406 138.519531 1200.867188 138.351563 1200.316406 138.347656 C 1199.769531 138.351563 1199.3125 138.523438 1198.949219 138.863281 C 1198.582031 139.210938 1198.347656 139.726563 1198.246094 140.410156 L 1196.839844 140.160156 C 1197.007813 139.21875 1197.398438 138.488281 1198.011719 137.96875 C 1198.617188 137.453125 1199.375 137.195313 1200.285156 137.191406 C 1200.90625 137.195313 1201.480469 137.328125 1202.011719 137.59375 C 1202.535156 137.863281 1202.9375 138.230469 1203.21875 138.691406 C 1203.492188 139.15625 1203.632813 139.648438 1203.636719 140.167969 C 1203.632813 140.664063 1203.5 141.113281 1203.238281 141.519531 C 1202.96875 141.925781 1202.574219 142.25 1202.058594 142.488281 C 1202.730469 142.648438 1203.257813 142.972656 1203.636719 143.460938 C 1204.007813 143.957031 1204.195313 144.574219 1204.199219 145.308594 C 1204.195313 146.3125 1203.832031 147.160156 1203.105469 147.851563 C 1202.375 148.546875 1201.453125 148.890625 1200.339844 148.894531 C 1199.332031 148.890625 1198.496094 148.59375 1197.835938 147.996094 C 1197.167969 147.398438 1196.789063 146.621094 1196.699219 145.667969 Z M 1204.925781 148.691406 "/>
<path style="fill-rule:nonzero;fill:rgb(78.039216%,8.235294%,52.156863%);fill-opacity:1;stroke-width:0.25;stroke-linecap:butt;stroke-linejoin:miter;stroke:rgb(98.039216%,92.156863%,84.313725%);stroke-opacity:1;stroke-miterlimit:10;" d="M 762.042969 169.230469 L 762.042969 157.777344 L 769.769531 157.777344 L 769.769531 159.128906 L 763.558594 159.128906 L 763.558594 162.675781 L 768.933594 162.675781 L 768.933594 164.027344 L 763.558594 164.027344 L 763.558594 169.230469 Z M 776.464844 169.230469 L 775.058594 169.230469 L 775.058594 160.269531 C 774.714844 160.597656 774.273438 160.917969 773.726563 161.238281 C 773.175781 161.5625 772.679688 161.804688 772.246094 161.964844 L 772.246094 160.605469 C 773.027344 160.238281 773.714844 159.792969 774.308594 159.261719 C 774.894531 158.738281 775.3125 158.226563 775.558594 157.730469 L 776.464844 157.730469 Z M 779.402344 169.230469 "/>
</g>
</svg>
