<?xml version="1.0" encoding="UTF-8"?>
<svg xmlns="http://www.w3.org/2000/svg" xmlns:xlink="http://www.w3.org/1999/xlink" width="936.329178pt" height="351.123442pt" viewBox="0 0 936.329178 351.123442" version="1.1">
<g id="surface114">
<rect x="0" y="0" width="936.329178" height="351.123442" style="fill:rgb(98.039216%,92.156863%,84.313725%);fill-opacity:1;stroke:none;"/>
<path style="fill:none;stroke-width:2;stroke-linecap:butt;stroke-linejoin:miter;stroke:rgb(0%,0%,0%);stroke-opacity:1;stroke-miterlimit:10;" d="M 208.074219 273.097656 L 468.164063 78.027344 "/>
<path style="fill:none;stroke-width:2;stroke-linecap:butt;stroke-linejoin:miter;stroke:rgb(0%,0%,0%);stroke-opacity:1;stroke-miterlimit:10;" d="M 208.074219 273.097656 L 468.164063 273.097656 "/>
<path style="fill:none;stroke-width:2;stroke-linecap:butt;stroke-linejoin:miter;stroke:rgb(0%,0%,0%);stroke-opacity:1;stroke-miterlimit:10;" d="M 468.164063 273.097656 L 468.164063 78.027344 "/>
<path style="fill:none;stroke-width:2;stroke-linecap:butt;stroke-linejoin:miter;stroke:rgb(0%,0%,0%);stroke-opacity:1;stroke-miterlimit:10;" d="M 468.164063 78.027344 L 728.257813 78.027344 "/>
<path style="fill:none;stroke-width:2;stroke-linecap:butt;stroke-linejoin:miter;stroke:rgb(0%,0%,0%);stroke-opacity:1;stroke-miterlimit:10;" d="M 468.164063 78.027344 L 728.257813 273.097656 "/>
<path style="fill:none;stroke-width:2;stroke-linecap:butt;stroke-linejoin:miter;stroke:rgb(0%,0%,0%);stroke-opacity:1;stroke-miterlimit:10;" d="M 468.164063 273.097656 L 728.257813 78.027344 "/>
<path style="fill:none;stroke-width:2;stroke-linecap:butt;stroke-linejoin:miter;stroke:rgb(0%,0%,0%);stroke-opacity:1;stroke-miterlimit:10;" d="M 468.164063 273.097656 L 728.257813 273.097656 "/>
<path style="fill:none;stroke-width:2;stroke-linecap:butt;stroke-linejoin:miter;stroke:rgb(0%,0%,0%);stroke-opacity:1;stroke-miterlimit:10;" d="M 728.257813 273.097656 L 728.257813 78.027344 "/>
<path style="fill:none;stroke-width:4;stroke-linecap:butt;stroke-linejoin:miter;stroke:rgb(78.039216%,8.235294%,52.156863%);stroke-opacity:1;stroke-miterlimit:10;" d="M 468.164063 273.097656 L 468.164063 190.417969 "/>
<path style=" stroke:none;fill-rule:nonzero;fill:rgb(78.039216%,8.235294%,52.156863%);fill-opacity:1;" d="M 458.164063 190.417969 L 468.164063 173.097656 L 478.164063 190.417969 "/>
<path style="fill:none;stroke-width:4;stroke-linecap:butt;stroke-linejoin:miter;stroke:rgb(78.039216%,8.235294%,52.156863%);stroke-opacity:1;stroke-miterlimit:10;" d="M 728.257813 78.027344 L 645.578125 78.027344 "/>
<path style=" stroke:none;fill-rule:nonzero;fill:rgb(78.039216%,8.235294%,52.156863%);fill-opacity:1;" d="M 645.578125 88.027344 L 628.257813 78.027344 L 645.578125 68.027344 "/>
<path style="fill:none;stroke-width:2;stroke-linecap:butt;stroke-linejoin:miter;stroke:rgb(0%,50.196078%,0%);stroke-opacity:1;stroke-miterlimit:10;" d="M 214.074219 273.097656 C 214.074219 276.410156 211.386719 279.097656 208.074219 279.097656 C 204.757813 279.097656 202.074219 276.410156 202.074219 273.097656 C 202.074219 269.78125 204.757813 267.097656 208.074219 267.097656 C 211.386719 267.097656 214.074219 269.78125 214.074219 273.097656 "/>
<path style="fill:none;stroke-width:2;stroke-linecap:butt;stroke-linejoin:miter;stroke:rgb(0%,50.196078%,0%);stroke-opacity:1;stroke-miterlimit:10;" d="M 734.257813 273.097656 C 734.257813 276.410156 731.570313 279.097656 728.257813 279.097656 C 724.941406 279.097656 722.257813 276.410156 722.257813 273.097656 C 722.257813 269.78125 724.941406 267.097656 728.257813 267.097656 C 731.570313 267.097656 734.257813 269.78125 734.257813 273.097656 "/>
<path style=" stroke:none;fill-rule:nonzero;fill:rgb(0%,0%,0%);fill-opacity:1;" d="M 210.074219 273.097656 C 210.074219 275.761719 206.074219 275.761719 206.074219 273.097656 C 206.074219 270.429688 210.074219 270.429688 210.074219 273.097656 "/>
<path style=" stroke:none;fill-rule:nonzero;fill:rgb(0%,0%,0%);fill-opacity:1;" d="M 470.164063 273.097656 C 470.164063 275.761719 466.164063 275.761719 466.164063 273.097656 C 466.164063 270.429688 470.164063 270.429688 470.164063 273.097656 "/>
<path style=" stroke:none;fill-rule:nonzero;fill:rgb(0%,0%,0%);fill-opacity:1;" d="M 470.164063 78.027344 C 470.164063 80.695313 466.164063 80.695313 466.164063 78.027344 C 466.164063 75.359375 470.164063 75.359375 470.164063 78.027344 "/>
<path style=" stroke:none;fill-rule:nonzero;fill:rgb(0%,0%,0%);fill-opacity:1;" d="M 730.257813 273.097656 C 730.257813 275.761719 726.257813 275.761719 726.257813 273.097656 C 726.257813 270.429688 730.257813 270.429688 730.257813 273.097656 "/>
<path style=" stroke:none;fill-rule:nonzero;fill:rgb(0%,0%,0%);fill-opacity:1;" d="M 730.257813 78.027344 C 730.257813 80.695313 726.257813 80.695313 726.257813 78.027344 C 726.257813 75.359375 730.257813 75.359375 730.257813 78.027344 "/>
<path style="fill-rule:nonzero;fill:rgb(0%,0%,0%);fill-opacity:1;stroke-width:0.25;stroke-linecap:butt;stroke-linejoin:miter;stroke:rgb(98.039216%,92.156863%,84.313725%);stroke-opacity:1;stroke-miterlimit:10;" d="M 216.417969 262.511719 L 217.445313 262.371094 C 217.472656 263.027344 217.59375 263.476563 217.816406 263.71875 C 218.03125 263.960938 218.335938 264.082031 218.722656 264.082031 C 219.007813 264.082031 219.253906 264.019531 219.460938 263.886719 C 219.664063 263.761719 219.804688 263.582031 219.886719 263.355469 C 219.960938 263.128906 220 262.769531 220.003906 262.277344 L 220.003906 256.359375 L 221.144531 256.359375 L 221.144531 262.214844 C 221.140625 262.9375 221.054688 263.492188 220.882813 263.882813 C 220.707031 264.277344 220.429688 264.578125 220.054688 264.785156 C 219.671875 264.992188 219.230469 265.09375 218.730469 265.097656 C 217.972656 265.09375 217.394531 264.878906 216.996094 264.445313 C 216.589844 264.011719 216.398438 263.367188 216.417969 262.511719 Z M 226.542969 264.949219 L 225.488281 264.949219 L 225.488281 258.230469 C 225.234375 258.472656 224.902344 258.714844 224.488281 258.953125 C 224.074219 259.199219 223.703125 259.378906 223.378906 259.5 L 223.378906 258.480469 C 223.96875 258.207031 224.484375 257.871094 224.925781 257.472656 C 225.367188 257.078125 225.679688 256.695313 225.863281 256.324219 L 226.542969 256.324219 Z M 228.746094 264.949219 "/>
<path style="fill-rule:nonzero;fill:rgb(0%,0%,0%);fill-opacity:1;stroke-width:0.25;stroke-linecap:butt;stroke-linejoin:miter;stroke:rgb(98.039216%,92.156863%,84.313725%);stroke-opacity:1;stroke-miterlimit:10;" d="M 476.507813 262.511719 L 477.535156 262.371094 C 477.5625 263.027344 477.683594 263.476563 477.90625 263.71875 C 478.121094 263.960938 478.425781 264.082031 478.8125 264.082031 C 479.097656 264.082031 479.34375 264.019531 479.550781 263.886719 C 479.753906 263.761719 479.894531 263.582031 479.976563 263.355469 C 480.050781 263.128906 480.089844 262.769531 480.09375 262.277344 L 480.09375 256.359375 L 481.234375 256.359375 L 481.234375 262.214844 C 481.230469 262.9375 481.144531 263.492188 480.972656 263.882813 C 480.796875 264.277344 480.519531 264.578125 480.144531 264.785156 C 479.761719 264.992188 479.320313 265.09375 478.820313 265.097656 C 478.0625 265.09375 477.484375 264.878906 477.085938 264.445313 C 476.679688 264.011719 476.488281 263.367188 476.507813 262.511719 Z M 488.203125 263.933594 L 488.203125 264.949219 L 482.527344 264.949219 C 482.519531 264.695313 482.558594 264.453125 482.648438 264.214844 C 482.792969 263.832031 483.023438 263.449219 483.34375 263.074219 C 483.65625 262.699219 484.117188 262.265625 484.726563 261.773438 C 485.65625 261.007813 486.289063 260.402344 486.617188 259.957031 C 486.945313 259.511719 487.109375 259.089844 487.109375 258.683594 C 487.109375 258.269531 486.957031 257.917969 486.660156 257.628906 C 486.355469 257.347656 485.96875 257.203125 485.492188 257.199219 C 484.984375 257.203125 484.578125 257.355469 484.273438 257.65625 C 483.96875 257.964844 483.8125 258.386719 483.8125 258.917969 L 482.726563 258.808594 C 482.796875 258.003906 483.074219 257.390625 483.5625 256.960938 C 484.042969 256.539063 484.695313 256.324219 485.515625 256.324219 C 486.335938 256.324219 486.988281 256.554688 487.472656 257.011719 C 487.953125 257.46875 488.191406 258.035156 488.195313 258.707031 C 488.191406 259.054688 488.121094 259.390625 487.984375 259.722656 C 487.839844 260.058594 487.605469 260.410156 487.28125 260.773438 C 486.953125 261.144531 486.414063 261.648438 485.65625 262.285156 C 485.023438 262.820313 484.617188 263.179688 484.4375 263.367188 C 484.257813 263.554688 484.109375 263.746094 483.992188 263.933594 Z M 488.839844 264.949219 "/>
<path style="fill-rule:nonzero;fill:rgb(0%,0%,0%);fill-opacity:1;stroke-width:0.25;stroke-linecap:butt;stroke-linejoin:miter;stroke:rgb(98.039216%,92.156863%,84.313725%);stroke-opacity:1;stroke-miterlimit:10;" d="M 476.507813 67.4375 L 477.535156 67.296875 C 477.5625 67.953125 477.683594 68.402344 477.90625 68.644531 C 478.121094 68.886719 478.425781 69.007813 478.8125 69.007813 C 479.097656 69.007813 479.34375 68.945313 479.550781 68.8125 C 479.753906 68.6875 479.894531 68.507813 479.976563 68.28125 C 480.050781 68.054688 480.089844 67.695313 480.09375 67.203125 L 480.09375 61.285156 L 481.234375 61.285156 L 481.234375 67.140625 C 481.230469 67.863281 481.144531 68.417969 480.972656 68.808594 C 480.796875 69.203125 480.519531 69.503906 480.144531 69.710938 C 479.761719 69.917969 479.320313 70.019531 478.820313 70.023438 C 478.0625 70.019531 477.484375 69.804688 477.085938 69.371094 C 476.679688 68.9375 476.488281 68.292969 476.507813 67.4375 Z M 482.667969 67.609375 L 483.722656 67.46875 C 483.84375 68.066406 484.046875 68.496094 484.339844 68.761719 C 484.628906 69.027344 484.984375 69.160156 485.40625 69.15625 C 485.898438 69.160156 486.316406 68.988281 486.660156 68.640625 C 486.996094 68.300781 487.167969 67.875 487.171875 67.359375 C 487.167969 66.878906 487.011719 66.480469 486.699219 66.164063 C 486.382813 65.851563 485.980469 65.691406 485.492188 65.691406 C 485.292969 65.691406 485.042969 65.730469 484.75 65.808594 L 484.867188 64.882813 C 484.929688 64.890625 484.988281 64.894531 485.035156 64.894531 C 485.484375 64.894531 485.886719 64.777344 486.25 64.542969 C 486.605469 64.308594 486.785156 63.949219 486.789063 63.460938 C 486.785156 63.074219 486.65625 62.753906 486.394531 62.5 C 486.128906 62.246094 485.789063 62.117188 485.382813 62.117188 C 484.96875 62.117188 484.628906 62.246094 484.355469 62.503906 C 484.082031 62.761719 483.90625 63.148438 483.828125 63.664063 L 482.773438 63.476563 C 482.902344 62.769531 483.195313 62.222656 483.652344 61.832031 C 484.105469 61.445313 484.671875 61.25 485.359375 61.25 C 485.824219 61.25 486.257813 61.351563 486.652344 61.550781 C 487.042969 61.753906 487.34375 62.027344 487.554688 62.375 C 487.765625 62.726563 487.871094 63.097656 487.871094 63.484375 C 487.871094 63.855469 487.769531 64.191406 487.570313 64.496094 C 487.371094 64.800781 487.078125 65.042969 486.6875 65.222656 C 487.195313 65.339844 487.589844 65.585938 487.871094 65.953125 C 488.152344 66.328125 488.292969 66.789063 488.292969 67.335938 C 488.292969 68.089844 488.019531 68.726563 487.472656 69.246094 C 486.925781 69.769531 486.234375 70.027344 485.398438 70.027344 C 484.640625 70.027344 484.011719 69.804688 483.519531 69.355469 C 483.019531 68.90625 482.738281 68.324219 482.667969 67.609375 Z M 488.839844 69.875 "/>
<path style="fill-rule:nonzero;fill:rgb(0%,0%,0%);fill-opacity:1;stroke-width:0.25;stroke-linecap:butt;stroke-linejoin:miter;stroke:rgb(98.039216%,92.156863%,84.313725%);stroke-opacity:1;stroke-miterlimit:10;" d="M 736.601563 262.511719 L 737.628906 262.371094 C 737.65625 263.027344 737.777344 263.476563 738 263.71875 C 738.214844 263.960938 738.519531 264.082031 738.90625 264.082031 C 739.191406 264.082031 739.4375 264.019531 739.644531 263.886719 C 739.847656 263.761719 739.988281 263.582031 740.070313 263.355469 C 740.144531 263.128906 740.183594 262.769531 740.1875 262.277344 L 740.1875 256.359375 L 741.328125 256.359375 L 741.328125 262.214844 C 741.324219 262.9375 741.238281 263.492188 741.066406 263.882813 C 740.890625 264.277344 740.613281 264.578125 740.238281 264.785156 C 739.855469 264.992188 739.414063 265.09375 738.914063 265.097656 C 738.15625 265.09375 737.578125 264.878906 737.179688 264.445313 C 736.773438 264.011719 736.582031 263.367188 736.601563 262.511719 Z M 746.136719 264.949219 L 746.136719 262.894531 L 742.410156 262.894531 L 742.410156 261.925781 L 746.328125 256.359375 L 747.191406 256.359375 L 747.191406 261.925781 L 748.351563 261.925781 L 748.351563 262.894531 L 747.191406 262.894531 L 747.191406 264.949219 Z M 746.136719 261.925781 L 746.136719 258.050781 L 743.445313 261.925781 Z M 748.929688 264.949219 "/>
<path style="fill-rule:nonzero;fill:rgb(0%,0%,0%);fill-opacity:1;stroke-width:0.25;stroke-linecap:butt;stroke-linejoin:miter;stroke:rgb(98.039216%,92.156863%,84.313725%);stroke-opacity:1;stroke-miterlimit:10;" d="M 736.601563 67.445313 L 737.628906 67.304688 C 737.65625 67.960938 737.777344 68.410156 738 68.652344 C 738.214844 68.894531 738.519531 69.015625 738.90625 69.015625 C 739.191406 69.015625 739.4375 68.953125 739.644531 68.820313 C 739.847656 68.695313 739.988281 68.515625 740.070313 68.289063 C 740.144531 68.0625 740.183594 67.703125 740.1875 67.210938 L 740.1875 61.292969 L 741.328125 61.292969 L 741.328125 67.148438 C 741.324219 67.871094 741.238281 68.425781 741.066406 68.816406 C 740.890625 69.210938 740.613281 69.511719 740.238281 69.71875 C 739.855469 69.925781 739.414063 70.027344 738.914063 70.03125 C 738.15625 70.027344 737.578125 69.8125 737.179688 69.378906 C 736.773438 68.945313 736.582031 68.300781 736.601563 67.445313 Z M 742.757813 67.632813 L 743.863281 67.539063 C 743.941406 68.078125 744.128906 68.484375 744.433594 68.757813 C 744.730469 69.03125 745.09375 69.167969 745.515625 69.164063 C 746.023438 69.167969 746.453125 68.976563 746.804688 68.589844 C 747.15625 68.210938 747.332031 67.703125 747.332031 67.0625 C 747.332031 66.46875 747.160156 65.992188 746.824219 65.640625 C 746.484375 65.292969 746.042969 65.121094 745.5 65.117188 C 745.15625 65.121094 744.851563 65.199219 744.578125 65.351563 C 744.304688 65.507813 744.089844 65.707031 743.933594 65.953125 L 742.945313 65.820313 L 743.773438 61.410156 L 748.046875 61.410156 L 748.046875 62.417969 L 744.617188 62.417969 L 744.15625 64.726563 C 744.671875 64.367188 745.210938 64.1875 745.78125 64.1875 C 746.527344 64.1875 747.160156 64.449219 747.679688 64.96875 C 748.191406 65.488281 748.449219 66.15625 748.453125 66.96875 C 748.449219 67.75 748.222656 68.421875 747.773438 68.984375 C 747.21875 69.683594 746.46875 70.027344 745.515625 70.03125 C 744.734375 70.027344 744.09375 69.8125 743.601563 69.375 C 743.101563 68.941406 742.820313 68.359375 742.757813 67.632813 Z M 748.929688 69.882813 "/>
<path style="fill-rule:nonzero;fill:rgb(0%,0%,0%);fill-opacity:1;stroke-width:0.25;stroke-linecap:butt;stroke-linejoin:miter;stroke:rgb(98.039216%,92.156863%,84.313725%);stroke-opacity:1;stroke-miterlimit:10;" d="M 347.007813 167.5625 L 347.007813 158.972656 L 348.71875 158.972656 L 350.75 165.054688 C 350.933594 165.625 351.070313 166.050781 351.164063 166.328125 C 351.257813 166.019531 351.410156 165.558594 351.617188 164.949219 L 353.675781 158.972656 L 355.203125 158.972656 L 355.203125 167.5625 L 354.109375 167.5625 L 354.109375 160.375 L 351.613281 167.5625 L 350.585938 167.5625 L 348.101563 160.25 L 348.101563 167.5625 Z M 360.582031 167.5625 L 359.527344 167.5625 L 359.527344 160.84375 C 359.273438 161.085938 358.941406 161.328125 358.527344 161.566406 C 358.113281 161.8125 357.742188 161.992188 357.417969 162.113281 L 357.417969 161.09375 C 358.007813 160.820313 358.523438 160.484375 358.964844 160.085938 C 359.40625 159.691406 359.71875 159.308594 359.902344 158.9375 L 360.582031 158.9375 Z M 362.789063 167.5625 "/>
<path style="fill-rule:nonzero;fill:rgb(0%,0%,0%);fill-opacity:1;stroke-width:0.25;stroke-linecap:butt;stroke-linejoin:miter;stroke:rgb(98.039216%,92.156863%,84.313725%);stroke-opacity:1;stroke-miterlimit:10;" d="M 347.007813 265.097656 L 347.007813 256.507813 L 348.71875 256.507813 L 350.75 262.589844 C 350.933594 263.160156 351.070313 263.585938 351.164063 263.863281 C 351.257813 263.554688 351.410156 263.09375 351.617188 262.484375 L 353.675781 256.507813 L 355.203125 256.507813 L 355.203125 265.097656 L 354.109375 265.097656 L 354.109375 257.910156 L 351.613281 265.097656 L 350.585938 265.097656 L 348.101563 257.785156 L 348.101563 265.097656 Z M 362.152344 264.082031 L 362.152344 265.097656 L 356.476563 265.097656 C 356.46875 264.84375 356.507813 264.601563 356.597656 264.363281 C 356.742188 263.980469 356.972656 263.597656 357.292969 263.222656 C 357.605469 262.847656 358.066406 262.414063 358.675781 261.921875 C 359.605469 261.15625 360.238281 260.550781 360.566406 260.105469 C 360.894531 259.660156 361.058594 259.238281 361.058594 258.832031 C 361.058594 258.417969 360.90625 258.066406 360.609375 257.777344 C 360.304688 257.496094 359.917969 257.351563 359.441406 257.347656 C 358.933594 257.351563 358.527344 257.503906 358.222656 257.804688 C 357.917969 258.113281 357.761719 258.535156 357.761719 259.066406 L 356.675781 258.957031 C 356.746094 258.152344 357.023438 257.539063 357.511719 257.109375 C 357.992188 256.6875 358.644531 256.472656 359.464844 256.472656 C 360.285156 256.472656 360.9375 256.703125 361.421875 257.160156 C 361.902344 257.617188 362.140625 258.183594 362.144531 258.855469 C 362.140625 259.203125 362.070313 259.539063 361.933594 259.871094 C 361.789063 260.207031 361.554688 260.558594 361.230469 260.921875 C 360.902344 261.292969 360.363281 261.796875 359.605469 262.433594 C 358.972656 262.96875 358.566406 263.328125 358.386719 263.515625 C 358.207031 263.703125 358.058594 263.894531 357.941406 264.082031 Z M 362.789063 265.097656 "/>
<path style="fill-rule:nonzero;fill:rgb(0%,0%,0%);fill-opacity:1;stroke-width:0.25;stroke-linecap:butt;stroke-linejoin:miter;stroke:rgb(98.039216%,92.156863%,84.313725%);stroke-opacity:1;stroke-miterlimit:10;" d="M 477.054688 167.410156 L 477.054688 158.820313 L 478.765625 158.820313 L 480.796875 164.902344 C 480.980469 165.472656 481.117188 165.898438 481.210938 166.175781 C 481.304688 165.867188 481.457031 165.40625 481.664063 164.796875 L 483.722656 158.820313 L 485.25 158.820313 L 485.25 167.410156 L 484.15625 167.410156 L 484.15625 160.222656 L 481.660156 167.410156 L 480.632813 167.410156 L 478.148438 160.097656 L 478.148438 167.410156 Z M 486.664063 165.144531 L 487.71875 165.003906 C 487.839844 165.601563 488.042969 166.03125 488.335938 166.296875 C 488.625 166.5625 488.980469 166.695313 489.402344 166.691406 C 489.894531 166.695313 490.3125 166.523438 490.65625 166.175781 C 490.992188 165.835938 491.164063 165.410156 491.167969 164.894531 C 491.164063 164.414063 491.007813 164.015625 490.695313 163.699219 C 490.378906 163.386719 489.976563 163.226563 489.488281 163.226563 C 489.289063 163.226563 489.039063 163.265625 488.746094 163.34375 L 488.863281 162.417969 C 488.925781 162.425781 488.984375 162.429688 489.03125 162.429688 C 489.480469 162.429688 489.882813 162.3125 490.246094 162.078125 C 490.601563 161.84375 490.78125 161.484375 490.785156 160.996094 C 490.78125 160.609375 490.652344 160.289063 490.390625 160.035156 C 490.125 159.78125 489.785156 159.652344 489.378906 159.652344 C 488.964844 159.652344 488.625 159.78125 488.351563 160.039063 C 488.078125 160.296875 487.902344 160.683594 487.824219 161.199219 L 486.769531 161.011719 C 486.898438 160.304688 487.191406 159.757813 487.648438 159.367188 C 488.101563 158.980469 488.667969 158.785156 489.355469 158.785156 C 489.820313 158.785156 490.253906 158.886719 490.648438 159.085938 C 491.039063 159.289063 491.339844 159.5625 491.550781 159.910156 C 491.761719 160.261719 491.867188 160.632813 491.867188 161.019531 C 491.867188 161.390625 491.765625 161.726563 491.566406 162.03125 C 491.367188 162.335938 491.074219 162.578125 490.683594 162.757813 C 491.191406 162.875 491.585938 163.121094 491.867188 163.488281 C 492.148438 163.863281 492.289063 164.324219 492.289063 164.871094 C 492.289063 165.625 492.015625 166.261719 491.46875 166.78125 C 490.921875 167.304688 490.230469 167.5625 489.394531 167.5625 C 488.636719 167.5625 488.007813 167.339844 487.515625 166.890625 C 487.015625 166.441406 486.734375 165.859375 486.664063 165.144531 Z M 492.835938 167.410156 "/>
<path style="fill-rule:nonzero;fill:rgb(0%,0%,0%);fill-opacity:1;stroke-width:0.25;stroke-linecap:butt;stroke-linejoin:miter;stroke:rgb(98.039216%,92.156863%,84.313725%);stroke-opacity:1;stroke-miterlimit:10;" d="M 607.101563 70.027344 L 607.101563 61.4375 L 608.8125 61.4375 L 610.84375 67.519531 C 611.027344 68.089844 611.164063 68.515625 611.257813 68.792969 C 611.351563 68.484375 611.503906 68.023438 611.710938 67.414063 L 613.769531 61.4375 L 615.296875 61.4375 L 615.296875 70.027344 L 614.203125 70.027344 L 614.203125 62.839844 L 611.707031 70.027344 L 610.679688 70.027344 L 608.195313 62.714844 L 608.195313 70.027344 Z M 620.085938 70.027344 L 620.085938 67.972656 L 616.359375 67.972656 L 616.359375 67.003906 L 620.277344 61.4375 L 621.140625 61.4375 L 621.140625 67.003906 L 622.300781 67.003906 L 622.300781 67.972656 L 621.140625 67.972656 L 621.140625 70.027344 Z M 620.085938 67.003906 L 620.085938 63.128906 L 617.394531 67.003906 Z M 622.878906 70.027344 "/>
<path style="fill-rule:nonzero;fill:rgb(0%,0%,0%);fill-opacity:1;stroke-width:0.25;stroke-linecap:butt;stroke-linejoin:miter;stroke:rgb(98.039216%,92.156863%,84.313725%);stroke-opacity:1;stroke-miterlimit:10;" d="M 607.101563 167.414063 L 607.101563 158.824219 L 608.8125 158.824219 L 610.84375 164.90625 C 611.027344 165.476563 611.164063 165.902344 611.257813 166.179688 C 611.351563 165.871094 611.503906 165.410156 611.710938 164.800781 L 613.769531 158.824219 L 615.296875 158.824219 L 615.296875 167.414063 L 614.203125 167.414063 L 614.203125 160.226563 L 611.707031 167.414063 L 610.679688 167.414063 L 608.195313 160.101563 L 608.195313 167.414063 Z M 616.707031 165.164063 L 617.8125 165.070313 C 617.890625 165.609375 618.078125 166.015625 618.382813 166.289063 C 618.679688 166.5625 619.042969 166.699219 619.464844 166.695313 C 619.972656 166.699219 620.402344 166.507813 620.753906 166.121094 C 621.105469 165.742188 621.28125 165.234375 621.28125 164.59375 C 621.28125 164 621.109375 163.523438 620.773438 163.171875 C 620.433594 162.824219 619.992188 162.652344 619.449219 162.648438 C 619.105469 162.652344 618.800781 162.730469 618.527344 162.882813 C 618.253906 163.039063 618.039063 163.238281 617.882813 163.484375 L 616.894531 163.351563 L 617.722656 158.941406 L 621.996094 158.941406 L 621.996094 159.949219 L 618.566406 159.949219 L 618.105469 162.257813 C 618.621094 161.898438 619.160156 161.71875 619.730469 161.71875 C 620.476563 161.71875 621.109375 161.980469 621.628906 162.5 C 622.140625 163.019531 622.398438 163.6875 622.402344 164.5 C 622.398438 165.28125 622.171875 165.953125 621.722656 166.515625 C 621.167969 167.214844 620.417969 167.558594 619.464844 167.5625 C 618.683594 167.558594 618.042969 167.34375 617.550781 166.90625 C 617.050781 166.472656 616.769531 165.890625 616.707031 165.164063 Z M 622.878906 167.414063 "/>
<path style="fill-rule:nonzero;fill:rgb(0%,0%,0%);fill-opacity:1;stroke-width:0.25;stroke-linecap:butt;stroke-linejoin:miter;stroke:rgb(98.039216%,92.156863%,84.313725%);stroke-opacity:1;stroke-miterlimit:10;" d="M 607.101563 167.414063 L 607.101563 158.824219 L 608.8125 158.824219 L 610.84375 164.90625 C 611.027344 165.476563 611.164063 165.902344 611.257813 166.179688 C 611.351563 165.871094 611.503906 165.410156 611.710938 164.800781 L 613.769531 158.824219 L 615.296875 158.824219 L 615.296875 167.414063 L 614.203125 167.414063 L 614.203125 160.226563 L 611.707031 167.414063 L 610.679688 167.414063 L 608.195313 160.101563 L 608.195313 167.414063 Z M 622.175781 160.929688 L 621.128906 161.007813 C 621.035156 160.601563 620.902344 160.300781 620.730469 160.109375 C 620.441406 159.808594 620.089844 159.65625 619.675781 159.65625 C 619.339844 159.65625 619.042969 159.75 618.792969 159.9375 C 618.457031 160.179688 618.195313 160.535156 618.003906 161 C 617.8125 161.464844 617.714844 162.125 617.707031 162.984375 C 617.960938 162.601563 618.269531 162.316406 618.640625 162.125 C 619.003906 161.941406 619.390625 161.847656 619.792969 161.84375 C 620.496094 161.847656 621.09375 162.105469 621.589844 162.621094 C 622.082031 163.136719 622.328125 163.804688 622.332031 164.625 C 622.328125 165.164063 622.210938 165.667969 621.980469 166.128906 C 621.746094 166.59375 621.429688 166.945313 621.023438 167.191406 C 620.617188 167.4375 620.15625 167.558594 619.640625 167.5625 C 618.761719 167.558594 618.042969 167.238281 617.492188 166.59375 C 616.933594 165.945313 616.65625 164.878906 616.660156 163.394531 C 616.65625 161.738281 616.964844 160.53125 617.578125 159.773438 C 618.109375 159.117188 618.828125 158.789063 619.738281 158.789063 C 620.414063 158.789063 620.96875 158.980469 621.402344 159.359375 C 621.832031 159.738281 622.089844 160.261719 622.175781 160.929688 Z M 617.871094 164.632813 C 617.871094 164.996094 617.945313 165.34375 618.101563 165.675781 C 618.25 166.007813 618.46875 166.261719 618.75 166.433594 C 619.027344 166.613281 619.316406 166.699219 619.621094 166.695313 C 620.066406 166.699219 620.449219 166.519531 620.773438 166.15625 C 621.089844 165.800781 621.25 165.3125 621.253906 164.6875 C 621.25 164.097656 621.09375 163.628906 620.777344 163.285156 C 620.457031 162.945313 620.058594 162.773438 619.582031 162.773438 C 619.105469 162.773438 618.699219 162.945313 618.367188 163.285156 C 618.035156 163.628906 617.871094 164.078125 617.871094 164.632813 Z M 622.878906 167.414063 "/>
<path style="fill-rule:nonzero;fill:rgb(0%,0%,0%);fill-opacity:1;stroke-width:0.25;stroke-linecap:butt;stroke-linejoin:miter;stroke:rgb(98.039216%,92.156863%,84.313725%);stroke-opacity:1;stroke-miterlimit:10;" d="M 607.101563 265.097656 L 607.101563 256.507813 L 608.8125 256.507813 L 610.84375 262.589844 C 611.027344 263.160156 611.164063 263.585938 611.257813 263.863281 C 611.351563 263.554688 611.503906 263.09375 611.710938 262.484375 L 613.769531 256.507813 L 615.296875 256.507813 L 615.296875 265.097656 L 614.203125 265.097656 L 614.203125 257.910156 L 611.707031 265.097656 L 610.679688 265.097656 L 608.195313 257.785156 L 608.195313 265.097656 Z M 616.777344 257.632813 L 616.777344 256.621094 L 622.335938 256.621094 L 622.335938 257.441406 C 621.789063 258.023438 621.246094 258.796875 620.707031 259.761719 C 620.167969 260.726563 619.753906 261.71875 619.464844 262.738281 C 619.253906 263.460938 619.117188 264.246094 619.058594 265.097656 L 617.976563 265.097656 C 617.988281 264.421875 618.121094 263.605469 618.375 262.648438 C 618.625 261.695313 618.988281 260.773438 619.464844 259.882813 C 619.941406 258.992188 620.445313 258.242188 620.980469 257.632813 Z M 622.878906 265.097656 "/>
<path style="fill-rule:nonzero;fill:rgb(0%,0%,0%);fill-opacity:1;stroke-width:0.25;stroke-linecap:butt;stroke-linejoin:miter;stroke:rgb(98.039216%,92.156863%,84.313725%);stroke-opacity:1;stroke-miterlimit:10;" d="M 737.148438 167.414063 L 737.148438 158.824219 L 738.859375 158.824219 L 740.890625 164.90625 C 741.074219 165.476563 741.210938 165.902344 741.304688 166.179688 C 741.398438 165.871094 741.550781 165.410156 741.757813 164.800781 L 743.816406 158.824219 L 745.34375 158.824219 L 745.34375 167.414063 L 744.25 167.414063 L 744.25 160.226563 L 741.753906 167.414063 L 740.726563 167.414063 L 738.242188 160.101563 L 738.242188 167.414063 Z M 748.375 162.757813 C 747.9375 162.597656 747.613281 162.367188 747.402344 162.070313 C 747.191406 161.773438 747.085938 161.417969 747.085938 161.003906 C 747.085938 160.378906 747.308594 159.855469 747.757813 159.429688 C 748.207031 159.003906 748.804688 158.789063 749.550781 158.789063 C 750.296875 158.789063 750.902344 159.007813 751.363281 159.441406 C 751.820313 159.878906 752.046875 160.410156 752.050781 161.03125 C 752.046875 161.4375 751.941406 161.785156 751.734375 162.074219 C 751.523438 162.371094 751.207031 162.597656 750.785156 162.757813 C 751.308594 162.933594 751.710938 163.210938 751.988281 163.589844 C 752.261719 163.976563 752.398438 164.433594 752.402344 164.960938 C 752.398438 165.699219 752.140625 166.316406 751.621094 166.8125 C 751.097656 167.3125 750.414063 167.558594 749.570313 167.5625 C 748.722656 167.558594 748.039063 167.3125 747.519531 166.808594 C 746.996094 166.308594 746.734375 165.679688 746.738281 164.929688 C 746.734375 164.375 746.875 163.910156 747.164063 163.527344 C 747.445313 163.152344 747.851563 162.894531 748.375 162.757813 Z M 748.164063 160.96875 C 748.164063 161.375 748.292969 161.707031 748.554688 161.964844 C 748.816406 162.222656 749.15625 162.351563 749.574219 162.351563 C 749.976563 162.351563 750.308594 162.226563 750.574219 161.96875 C 750.832031 161.71875 750.964844 161.402344 750.964844 161.027344 C 750.964844 160.640625 750.828125 160.316406 750.5625 160.050781 C 750.289063 159.789063 749.957031 159.65625 749.566406 159.65625 C 749.160156 159.65625 748.828125 159.785156 748.5625 160.042969 C 748.296875 160.300781 748.164063 160.609375 748.164063 160.96875 Z M 747.824219 164.9375 C 747.824219 165.238281 747.894531 165.527344 748.039063 165.808594 C 748.179688 166.089844 748.390625 166.308594 748.675781 166.464844 C 748.953125 166.621094 749.257813 166.699219 749.582031 166.695313 C 750.085938 166.699219 750.5 166.535156 750.832031 166.207031 C 751.15625 165.882813 751.320313 165.472656 751.324219 164.96875 C 751.320313 164.46875 751.152344 164.046875 750.816406 163.710938 C 750.476563 163.378906 750.054688 163.214844 749.546875 163.210938 C 749.046875 163.214844 748.632813 163.378906 748.3125 163.703125 C 747.984375 164.035156 747.824219 164.445313 747.824219 164.9375 Z M 752.925781 167.414063 "/>
<path style="fill-rule:nonzero;fill:rgb(78.039216%,8.235294%,52.156863%);fill-opacity:1;stroke-width:0.25;stroke-linecap:butt;stroke-linejoin:miter;stroke:rgb(98.039216%,92.156863%,84.313725%);stroke-opacity:1;stroke-miterlimit:10;" d="M 449.347656 239.722656 L 449.347656 231.132813 L 455.144531 231.132813 L 455.144531 232.144531 L 450.484375 232.144531 L 450.484375 234.808594 L 454.515625 234.808594 L 454.515625 235.820313 L 450.484375 235.820313 L 450.484375 239.722656 Z M 460.164063 239.722656 L 459.109375 239.722656 L 459.109375 233.003906 C 458.855469 233.246094 458.523438 233.488281 458.109375 233.726563 C 457.695313 233.972656 457.324219 234.152344 457 234.273438 L 457 233.253906 C 457.589844 232.980469 458.105469 232.644531 458.546875 232.246094 C 458.988281 231.851563 459.300781 231.46875 459.484375 231.097656 L 460.164063 231.097656 Z M 462.367188 239.722656 "/>
<path style="fill-rule:nonzero;fill:rgb(78.039216%,8.235294%,52.156863%);fill-opacity:1;stroke-width:0.25;stroke-linecap:butt;stroke-linejoin:miter;stroke:rgb(98.039216%,92.156863%,84.313725%);stroke-opacity:1;stroke-miterlimit:10;" d="M 657.871094 94.652344 L 657.871094 86.0625 L 663.667969 86.0625 L 663.667969 87.074219 L 659.007813 87.074219 L 659.007813 89.738281 L 663.039063 89.738281 L 663.039063 90.75 L 659.007813 90.75 L 659.007813 94.652344 Z M 670.253906 93.636719 L 670.253906 94.652344 L 664.578125 94.652344 C 664.570313 94.398438 664.609375 94.15625 664.699219 93.917969 C 664.84375 93.535156 665.074219 93.152344 665.394531 92.777344 C 665.707031 92.402344 666.167969 91.96875 666.777344 91.476563 C 667.707031 90.710938 668.339844 90.105469 668.667969 89.660156 C 668.996094 89.214844 669.160156 88.792969 669.160156 88.386719 C 669.160156 87.972656 669.007813 87.621094 668.710938 87.332031 C 668.40625 87.050781 668.019531 86.90625 667.542969 86.902344 C 667.035156 86.90625 666.628906 87.058594 666.324219 87.359375 C 666.019531 87.667969 665.863281 88.089844 665.863281 88.621094 L 664.777344 88.511719 C 664.847656 87.707031 665.125 87.09375 665.613281 86.664063 C 666.09375 86.242188 666.746094 86.027344 667.566406 86.027344 C 668.386719 86.027344 669.039063 86.257813 669.523438 86.714844 C 670.003906 87.171875 670.242188 87.738281 670.246094 88.410156 C 670.242188 88.757813 670.171875 89.09375 670.035156 89.425781 C 669.890625 89.761719 669.65625 90.113281 669.332031 90.476563 C 669.003906 90.847656 668.464844 91.351563 667.707031 91.988281 C 667.074219 92.523438 666.667969 92.882813 666.488281 93.070313 C 666.308594 93.257813 666.160156 93.449219 666.042969 93.636719 Z M 670.890625 94.652344 "/>
</g>
</svg>
