<?xml version="1.0" encoding="UTF-8"?>
<svg xmlns="http://www.w3.org/2000/svg" xmlns:xlink="http://www.w3.org/1999/xlink" width="749.063342pt" height="280.898753pt" viewBox="0 0 749.063342 280.898753" version="1.1">
<g id="surface936">
<rect x="0" y="0" width="749.063342" height="280.898753" style="fill:rgb(98.039216%,92.156863%,84.313725%);fill-opacity:1;stroke:none;"/>
<path style="fill:none;stroke-width:2;stroke-linecap:butt;stroke-linejoin:miter;stroke:rgb(0%,0%,0%);stroke-opacity:1;stroke-miterlimit:10;" d="M 218.476563 198.96875 L 374.53125 81.929688 "/>
<path style="fill:none;stroke-width:2;stroke-linecap:butt;stroke-linejoin:miter;stroke:rgb(0%,0%,0%);stroke-opacity:1;stroke-miterlimit:10;" d="M 218.476563 198.96875 L 374.53125 198.96875 "/>
<path style="fill:none;stroke-width:2;stroke-linecap:butt;stroke-linejoin:miter;stroke:rgb(0%,0%,0%);stroke-opacity:1;stroke-miterlimit:10;" d="M 374.53125 198.96875 L 374.53125 81.929688 "/>
<path style="fill:none;stroke-width:2;stroke-linecap:butt;stroke-linejoin:miter;stroke:rgb(0%,0%,0%);stroke-opacity:1;stroke-miterlimit:10;" d="M 374.53125 81.929688 L 530.585938 81.929688 "/>
<path style="fill:none;stroke-width:2;stroke-linecap:butt;stroke-linejoin:miter;stroke:rgb(0%,0%,0%);stroke-opacity:1;stroke-miterlimit:10;" d="M 374.53125 81.929688 L 530.585938 198.96875 "/>
<path style="fill:none;stroke-width:2;stroke-linecap:butt;stroke-linejoin:miter;stroke:rgb(0%,0%,0%);stroke-opacity:1;stroke-miterlimit:10;" d="M 374.53125 198.96875 L 530.585938 81.929688 "/>
<path style="fill:none;stroke-width:2;stroke-linecap:butt;stroke-linejoin:miter;stroke:rgb(0%,0%,0%);stroke-opacity:1;stroke-miterlimit:10;" d="M 374.53125 198.96875 L 530.585938 198.96875 "/>
<path style="fill:none;stroke-width:2;stroke-linecap:butt;stroke-linejoin:miter;stroke:rgb(0%,0%,0%);stroke-opacity:1;stroke-miterlimit:10;" d="M 530.585938 198.96875 L 530.585938 81.929688 "/>
<path style=" stroke:none;fill-rule:nonzero;fill:rgb(0%,50.196078%,0%);fill-opacity:1;" d="M 220.476563 198.96875 C 220.476563 201.636719 216.476563 201.636719 216.476563 198.96875 C 216.476563 196.304688 220.476563 196.304688 220.476563 198.96875 "/>
<path style=" stroke:none;fill-rule:nonzero;fill:rgb(0%,50.196078%,0%);fill-opacity:1;" d="M 375.734375 195.484375 C 375.734375 198.152344 371.734375 198.152344 371.734375 195.484375 C 371.734375 192.816406 375.734375 192.816406 375.734375 195.484375 "/>
<path style=" stroke:none;fill-rule:nonzero;fill:rgb(0%,50.196078%,0%);fill-opacity:1;" d="M 375.550781 79.496094 C 375.550781 82.160156 371.550781 82.160156 371.550781 79.496094 C 371.550781 76.828125 375.550781 76.828125 375.550781 79.496094 "/>
<path style=" stroke:none;fill-rule:nonzero;fill:rgb(0%,50.196078%,0%);fill-opacity:1;" d="M 532.585938 198.96875 C 532.585938 201.636719 528.585938 201.636719 528.585938 198.96875 C 528.585938 196.304688 532.585938 196.304688 532.585938 198.96875 "/>
<path style=" stroke:none;fill-rule:nonzero;fill:rgb(0%,50.196078%,0%);fill-opacity:1;" d="M 530.605469 81.03125 C 530.605469 83.695313 526.605469 83.695313 526.605469 81.03125 C 526.605469 78.363281 530.605469 78.363281 530.605469 81.03125 "/>
<path style="fill:none;stroke-width:2;stroke-linecap:butt;stroke-linejoin:miter;stroke:rgb(0%,0%,30.188679%);stroke-opacity:1;stroke-miterlimit:10;" d="M 218.476563 198.96875 L 373.550781 79.496094 "/>
<path style="fill:none;stroke-width:2;stroke-linecap:butt;stroke-linejoin:miter;stroke:rgb(40%,0%,0%);stroke-opacity:1;stroke-miterlimit:10;" d="M 218.476563 198.96875 L 373.734375 195.484375 "/>
<path style="fill:none;stroke-width:2;stroke-linecap:butt;stroke-linejoin:miter;stroke:rgb(0%,0%,0%);stroke-opacity:1;stroke-miterlimit:10;" d="M 373.734375 195.484375 L 373.550781 79.496094 "/>
<path style="fill:none;stroke-width:2;stroke-linecap:butt;stroke-linejoin:miter;stroke:rgb(50.169492%,0%,0%);stroke-opacity:1;stroke-miterlimit:10;" d="M 373.550781 79.496094 L 528.605469 81.03125 "/>
<path style="fill:none;stroke-width:2;stroke-linecap:butt;stroke-linejoin:miter;stroke:rgb(0%,0%,100%);stroke-opacity:1;stroke-miterlimit:10;" d="M 373.550781 79.496094 L 530.585938 198.96875 "/>
<path style="fill:none;stroke-width:2;stroke-linecap:butt;stroke-linejoin:miter;stroke:rgb(100%,0%,0%);stroke-opacity:1;stroke-miterlimit:10;" d="M 373.734375 195.484375 L 528.605469 81.03125 "/>
<path style="fill:none;stroke-width:2;stroke-linecap:butt;stroke-linejoin:miter;stroke:rgb(0%,0%,44.528302%);stroke-opacity:1;stroke-miterlimit:10;" d="M 373.734375 195.484375 L 530.585938 198.96875 "/>
<path style="fill:none;stroke-width:2;stroke-linecap:butt;stroke-linejoin:miter;stroke:rgb(0%,0%,0%);stroke-opacity:1;stroke-miterlimit:10;" d="M 530.585938 198.96875 L 528.605469 81.03125 "/>
<path style="fill:none;stroke-width:4;stroke-linecap:butt;stroke-linejoin:miter;stroke:rgb(78.039216%,8.235294%,52.156863%);stroke-opacity:1;stroke-miterlimit:10;" d="M 374.53125 198.96875 L 374.53125 136.289063 "/>
<path style=" stroke:none;fill-rule:nonzero;fill:rgb(78.039216%,8.235294%,52.156863%);fill-opacity:1;" d="M 364.53125 136.289063 L 374.53125 118.96875 L 384.53125 136.289063 "/>
<path style="fill:none;stroke-width:4;stroke-linecap:butt;stroke-linejoin:miter;stroke:rgb(78.039216%,8.235294%,52.156863%);stroke-opacity:1;stroke-miterlimit:10;" d="M 530.585938 81.929688 L 467.90625 81.929688 "/>
<path style=" stroke:none;fill-rule:nonzero;fill:rgb(78.039216%,8.235294%,52.156863%);fill-opacity:1;" d="M 467.90625 91.929688 L 450.585938 81.929688 L 467.90625 71.929688 "/>
<path style="fill:none;stroke-width:4;stroke-linecap:butt;stroke-linejoin:miter;stroke:rgb(28.235294%,46.27451%,100%);stroke-opacity:1;stroke-miterlimit:10;" d="M 218.476563 198.96875 L 227.136719 206.667969 "/>
<path style=" stroke:none;fill-rule:nonzero;fill:rgb(28.235294%,46.27451%,100%);fill-opacity:1;" d="M 223.425781 189.988281 L 229.726563 208.96875 L 210.136719 204.9375 "/>
<path style="fill:none;stroke-width:4;stroke-linecap:butt;stroke-linejoin:miter;stroke:rgb(28.235294%,46.27451%,100%);stroke-opacity:1;stroke-miterlimit:10;" d="M 530.585938 198.96875 L 587.199219 256.613281 "/>
<path style=" stroke:none;fill-rule:nonzero;fill:rgb(28.235294%,46.27451%,100%);fill-opacity:1;" d="M 594.335938 249.605469 L 599.335938 268.96875 L 580.066406 263.621094 "/>
<path style="fill:none;stroke-width:2;stroke-linecap:butt;stroke-linejoin:miter;stroke:rgb(0%,50.196078%,0%);stroke-opacity:1;stroke-miterlimit:10;" d="M 224.476563 198.96875 C 224.476563 202.285156 221.789063 204.96875 218.476563 204.96875 C 215.164063 204.96875 212.476563 202.285156 212.476563 198.96875 C 212.476563 195.65625 215.164063 192.96875 218.476563 192.96875 C 221.789063 192.96875 224.476563 195.65625 224.476563 198.96875 "/>
<path style="fill:none;stroke-width:2;stroke-linecap:butt;stroke-linejoin:miter;stroke:rgb(0%,50.196078%,0%);stroke-opacity:1;stroke-miterlimit:10;" d="M 536.585938 198.96875 C 536.585938 202.285156 533.898438 204.96875 530.585938 204.96875 C 527.273438 204.96875 524.585938 202.285156 524.585938 198.96875 C 524.585938 195.65625 527.273438 192.96875 530.585938 192.96875 C 533.898438 192.96875 536.585938 195.65625 536.585938 198.96875 "/>
<path style=" stroke:none;fill-rule:nonzero;fill:rgb(0%,0%,0%);fill-opacity:1;" d="M 222.476563 198.96875 C 222.476563 204.304688 214.476563 204.304688 214.476563 198.96875 C 214.476563 193.636719 222.476563 193.636719 222.476563 198.96875 "/>
<path style=" stroke:none;fill-rule:nonzero;fill:rgb(0%,0%,0%);fill-opacity:1;" d="M 378.53125 198.96875 C 378.53125 204.304688 370.53125 204.304688 370.53125 198.96875 C 370.53125 193.636719 378.53125 193.636719 378.53125 198.96875 "/>
<path style=" stroke:none;fill-rule:nonzero;fill:rgb(0%,0%,0%);fill-opacity:1;" d="M 378.53125 81.929688 C 378.53125 87.261719 370.53125 87.261719 370.53125 81.929688 C 370.53125 76.59375 378.53125 76.59375 378.53125 81.929688 "/>
<path style=" stroke:none;fill-rule:nonzero;fill:rgb(0%,0%,0%);fill-opacity:1;" d="M 534.585938 198.96875 C 534.585938 204.304688 526.585938 204.304688 526.585938 198.96875 C 526.585938 193.636719 534.585938 193.636719 534.585938 198.96875 "/>
<path style=" stroke:none;fill-rule:nonzero;fill:rgb(0%,0%,0%);fill-opacity:1;" d="M 534.585938 81.929688 C 534.585938 87.261719 526.585938 87.261719 526.585938 81.929688 C 526.585938 76.59375 534.585938 76.59375 534.585938 81.929688 "/>
<path style="fill-rule:nonzero;fill:rgb(0%,0%,0%);fill-opacity:1;stroke-width:0.5;stroke-linecap:butt;stroke-linejoin:miter;stroke:rgb(98.039216%,92.156863%,84.313725%);stroke-opacity:1;stroke-miterlimit:10;" d="M 226.878906 187.957031 L 228.078125 187.792969 C 228.105469 188.5625 228.25 189.085938 228.507813 189.367188 C 228.761719 189.652344 229.113281 189.792969 229.566406 189.789063 C 229.894531 189.792969 230.183594 189.71875 230.425781 189.5625 C 230.667969 189.414063 230.832031 189.203125 230.925781 188.9375 C 231.011719 188.675781 231.058594 188.257813 231.0625 187.683594 L 231.0625 180.777344 L 232.390625 180.777344 L 232.390625 187.609375 C 232.386719 188.449219 232.285156 189.097656 232.085938 189.558594 C 231.878906 190.019531 231.558594 190.371094 231.121094 190.609375 C 230.679688 190.851563 230.164063 190.96875 229.574219 190.972656 C 228.691406 190.96875 228.015625 190.71875 227.550781 190.214844 C 227.082031 189.707031 226.859375 188.957031 226.878906 187.957031 Z M 238.691406 190.800781 L 237.460938 190.800781 L 237.460938 182.960938 C 237.164063 183.242188 236.773438 183.527344 236.292969 183.808594 C 235.8125 184.09375 235.382813 184.304688 235 184.441406 L 235 183.253906 C 235.6875 182.933594 236.289063 182.542969 236.804688 182.078125 C 237.320313 181.621094 237.683594 181.175781 237.898438 180.738281 L 238.691406 180.738281 Z M 241.261719 190.800781 "/>
<path style="fill-rule:nonzero;fill:rgb(0%,0%,0%);fill-opacity:1;stroke-width:0.5;stroke-linecap:butt;stroke-linejoin:miter;stroke:rgb(98.039216%,92.156863%,84.313725%);stroke-opacity:1;stroke-miterlimit:10;" d="M 382.933594 187.957031 L 384.132813 187.792969 C 384.160156 188.5625 384.304688 189.085938 384.5625 189.367188 C 384.816406 189.652344 385.167969 189.792969 385.621094 189.789063 C 385.949219 189.792969 386.238281 189.71875 386.480469 189.5625 C 386.722656 189.414063 386.886719 189.203125 386.980469 188.9375 C 387.066406 188.675781 387.113281 188.257813 387.117188 187.683594 L 387.117188 180.777344 L 388.445313 180.777344 L 388.445313 187.609375 C 388.441406 188.449219 388.339844 189.097656 388.140625 189.558594 C 387.933594 190.019531 387.613281 190.371094 387.175781 190.609375 C 386.734375 190.851563 386.21875 190.96875 385.628906 190.972656 C 384.746094 190.96875 384.070313 190.71875 383.605469 190.214844 C 383.136719 189.707031 382.914063 188.957031 382.933594 187.957031 Z M 396.578125 189.617188 L 396.578125 190.800781 L 389.953125 190.800781 C 389.945313 190.503906 389.992188 190.21875 390.097656 189.945313 C 390.265625 189.496094 390.535156 189.054688 390.90625 188.613281 C 391.277344 188.179688 391.816406 187.671875 392.519531 187.097656 C 393.605469 186.203125 394.339844 185.496094 394.726563 184.972656 C 395.105469 184.453125 395.296875 183.960938 395.300781 183.492188 C 395.296875 183.007813 395.121094 182.597656 394.777344 182.261719 C 394.425781 181.929688 393.972656 181.761719 393.414063 181.757813 C 392.816406 181.761719 392.34375 181.9375 391.992188 182.292969 C 391.636719 182.648438 391.457031 183.140625 391.453125 183.765625 L 390.1875 183.636719 C 390.273438 182.695313 390.597656 181.976563 391.164063 181.480469 C 391.726563 180.988281 392.484375 180.742188 393.441406 180.738281 C 394.398438 180.742188 395.160156 181.007813 395.722656 181.539063 C 396.28125 182.074219 396.5625 182.734375 396.566406 183.519531 C 396.5625 183.921875 396.480469 184.316406 396.320313 184.703125 C 396.152344 185.09375 395.878906 185.503906 395.5 185.929688 C 395.117188 186.359375 394.484375 186.945313 393.605469 187.691406 C 392.863281 188.3125 392.390625 188.734375 392.183594 188.953125 C 391.96875 189.179688 391.796875 189.398438 391.664063 189.617188 Z M 397.316406 190.800781 "/>
<path style="fill-rule:nonzero;fill:rgb(0%,0%,0%);fill-opacity:1;stroke-width:0.5;stroke-linecap:butt;stroke-linejoin:miter;stroke:rgb(98.039216%,92.156863%,84.313725%);stroke-opacity:1;stroke-miterlimit:10;" d="M 382.933594 70.90625 L 384.132813 70.742188 C 384.160156 71.511719 384.304688 72.035156 384.5625 72.316406 C 384.816406 72.601563 385.167969 72.742188 385.621094 72.738281 C 385.949219 72.742188 386.238281 72.667969 386.480469 72.511719 C 386.722656 72.363281 386.886719 72.152344 386.980469 71.886719 C 387.066406 71.625 387.113281 71.207031 387.117188 70.632813 L 387.117188 63.726563 L 388.445313 63.726563 L 388.445313 70.558594 C 388.441406 71.398438 388.339844 72.046875 388.140625 72.507813 C 387.933594 72.96875 387.613281 73.320313 387.175781 73.558594 C 386.734375 73.800781 386.21875 73.917969 385.628906 73.921875 C 384.746094 73.917969 384.070313 73.667969 383.605469 73.164063 C 383.136719 72.65625 382.914063 71.90625 382.933594 70.90625 Z M 390.117188 71.105469 L 391.351563 70.941406 C 391.488281 71.640625 391.726563 72.140625 392.070313 72.449219 C 392.40625 72.757813 392.820313 72.914063 393.3125 72.910156 C 393.886719 72.914063 394.375 72.710938 394.777344 72.308594 C 395.171875 71.910156 395.371094 71.414063 395.375 70.816406 C 395.371094 70.253906 395.1875 69.789063 394.820313 69.417969 C 394.449219 69.054688 393.980469 68.871094 393.414063 68.867188 C 393.179688 68.871094 392.890625 68.917969 392.546875 69.007813 L 392.683594 67.925781 C 392.761719 67.933594 392.828125 67.9375 392.882813 67.9375 C 393.40625 67.9375 393.875 67.800781 394.296875 67.527344 C 394.710938 67.253906 394.921875 66.835938 394.925781 66.265625 C 394.921875 65.816406 394.769531 65.441406 394.464844 65.144531 C 394.160156 64.851563 393.765625 64.703125 393.285156 64.699219 C 392.804688 64.703125 392.40625 64.855469 392.085938 65.152344 C 391.765625 65.457031 391.558594 65.90625 391.472656 66.503906 L 390.242188 66.285156 C 390.390625 65.460938 390.734375 64.824219 391.265625 64.367188 C 391.796875 63.917969 392.460938 63.691406 393.257813 63.6875 C 393.804688 63.691406 394.304688 63.808594 394.765625 64.039063 C 395.222656 64.277344 395.574219 64.597656 395.820313 65 C 396.0625 65.410156 396.1875 65.839844 396.1875 66.292969 C 396.1875 66.726563 396.070313 67.121094 395.839844 67.476563 C 395.605469 67.832031 395.261719 68.113281 394.808594 68.320313 C 395.398438 68.460938 395.859375 68.746094 396.1875 69.175781 C 396.515625 69.609375 396.679688 70.148438 396.679688 70.789063 C 396.679688 71.667969 396.359375 72.410156 395.722656 73.015625 C 395.082031 73.625 394.277344 73.925781 393.304688 73.929688 C 392.421875 73.925781 391.691406 73.667969 391.113281 73.144531 C 390.53125 72.621094 390.199219 71.941406 390.117188 71.105469 Z M 397.316406 73.75 "/>
<path style="fill-rule:nonzero;fill:rgb(0%,0%,0%);fill-opacity:1;stroke-width:0.5;stroke-linecap:butt;stroke-linejoin:miter;stroke:rgb(98.039216%,92.156863%,84.313725%);stroke-opacity:1;stroke-miterlimit:10;" d="M 538.988281 187.957031 L 540.1875 187.792969 C 540.214844 188.5625 540.359375 189.085938 540.617188 189.367188 C 540.871094 189.652344 541.222656 189.792969 541.675781 189.789063 C 542.003906 189.792969 542.292969 189.71875 542.535156 189.5625 C 542.777344 189.414063 542.941406 189.203125 543.035156 188.9375 C 543.121094 188.675781 543.167969 188.257813 543.171875 187.683594 L 543.171875 180.777344 L 544.5 180.777344 L 544.5 187.609375 C 544.496094 188.449219 544.394531 189.097656 544.195313 189.558594 C 543.988281 190.019531 543.667969 190.371094 543.230469 190.609375 C 542.789063 190.851563 542.273438 190.96875 541.683594 190.972656 C 540.800781 190.96875 540.125 190.71875 539.660156 190.214844 C 539.191406 189.707031 538.96875 188.957031 538.988281 187.957031 Z M 550.109375 190.800781 L 550.109375 188.402344 L 545.765625 188.402344 L 545.765625 187.273438 L 550.335938 180.777344 L 551.34375 180.777344 L 551.34375 187.273438 L 552.695313 187.273438 L 552.695313 188.402344 L 551.34375 188.402344 L 551.34375 190.800781 Z M 550.109375 187.273438 L 550.109375 182.753906 L 546.972656 187.273438 Z M 553.371094 190.800781 "/>
<path style="fill-rule:nonzero;fill:rgb(0%,0%,0%);fill-opacity:1;stroke-width:0.5;stroke-linecap:butt;stroke-linejoin:miter;stroke:rgb(98.039216%,92.156863%,84.313725%);stroke-opacity:1;stroke-miterlimit:10;" d="M 538.988281 70.914063 L 540.1875 70.75 C 540.214844 71.519531 540.359375 72.042969 540.617188 72.324219 C 540.871094 72.609375 541.222656 72.75 541.675781 72.746094 C 542.003906 72.75 542.292969 72.675781 542.535156 72.519531 C 542.777344 72.371094 542.941406 72.160156 543.035156 71.894531 C 543.121094 71.632813 543.167969 71.214844 543.171875 70.640625 L 543.171875 63.734375 L 544.5 63.734375 L 544.5 70.566406 C 544.496094 71.40625 544.394531 72.054688 544.195313 72.515625 C 543.988281 72.976563 543.667969 73.328125 543.230469 73.566406 C 542.789063 73.808594 542.273438 73.925781 541.683594 73.929688 C 540.800781 73.925781 540.125 73.675781 539.660156 73.171875 C 539.191406 72.664063 538.96875 71.914063 538.988281 70.914063 Z M 546.167969 71.132813 L 547.460938 71.023438 C 547.554688 71.65625 547.773438 72.128906 548.125 72.445313 C 548.46875 72.761719 548.890625 72.921875 549.386719 72.917969 C 549.976563 72.921875 550.476563 72.699219 550.890625 72.25 C 551.296875 71.804688 551.503906 71.210938 551.507813 70.46875 C 551.503906 69.773438 551.304688 69.21875 550.914063 68.808594 C 550.515625 68.40625 550 68.203125 549.367188 68.199219 C 548.96875 68.203125 548.613281 68.292969 548.292969 68.472656 C 547.972656 68.652344 547.71875 68.886719 547.539063 69.171875 L 546.386719 69.019531 L 547.355469 63.875 L 552.339844 63.875 L 552.339844 65.046875 L 548.339844 65.046875 L 547.800781 67.742188 C 548.402344 67.324219 549.03125 67.113281 549.695313 67.113281 C 550.566406 67.113281 551.304688 67.417969 551.910156 68.023438 C 552.507813 68.628906 552.808594 69.40625 552.8125 70.359375 C 552.808594 71.265625 552.546875 72.050781 552.019531 72.710938 C 551.375 73.523438 550.496094 73.925781 549.386719 73.929688 C 548.472656 73.925781 547.726563 73.675781 547.152344 73.164063 C 546.574219 72.65625 546.246094 71.976563 546.167969 71.132813 Z M 553.371094 73.757813 "/>
<path style="fill-rule:nonzero;fill:rgb(0%,0%,0%);fill-opacity:1;stroke-width:0.5;stroke-linecap:butt;stroke-linejoin:miter;stroke:rgb(98.039216%,92.156863%,84.313725%);stroke-opacity:1;stroke-miterlimit:10;" d="M 305.542969 132.449219 L 305.542969 122.425781 L 307.539063 122.425781 L 309.910156 129.523438 C 310.125 130.1875 310.285156 130.679688 310.390625 131.007813 C 310.5 130.644531 310.675781 130.109375 310.921875 129.402344 L 313.324219 122.425781 L 315.105469 122.425781 L 315.105469 132.449219 L 313.828125 132.449219 L 313.828125 124.0625 L 310.917969 132.449219 L 309.71875 132.449219 L 306.820313 123.917969 L 306.820313 132.449219 Z M 321.382813 132.449219 L 320.152344 132.449219 L 320.152344 124.609375 C 319.855469 124.890625 319.464844 125.175781 318.984375 125.457031 C 318.503906 125.742188 318.074219 125.953125 317.691406 126.089844 L 317.691406 124.902344 C 318.378906 124.582031 318.980469 124.191406 319.496094 123.726563 C 320.011719 123.269531 320.375 122.824219 320.589844 122.386719 L 321.382813 122.386719 Z M 323.953125 132.449219 "/>
<path style="fill-rule:nonzero;fill:rgb(0%,0%,0%);fill-opacity:1;stroke-width:0.5;stroke-linecap:butt;stroke-linejoin:miter;stroke:rgb(98.039216%,92.156863%,84.313725%);stroke-opacity:1;stroke-miterlimit:10;" d="M 305.542969 190.96875 L 305.542969 180.945313 L 307.539063 180.945313 L 309.910156 188.042969 C 310.125 188.707031 310.285156 189.199219 310.390625 189.527344 C 310.5 189.164063 310.675781 188.628906 310.921875 187.921875 L 313.324219 180.945313 L 315.105469 180.945313 L 315.105469 190.96875 L 313.828125 190.96875 L 313.828125 182.582031 L 310.917969 190.96875 L 309.71875 190.96875 L 306.820313 182.4375 L 306.820313 190.96875 Z M 323.214844 189.785156 L 323.214844 190.96875 L 316.589844 190.96875 C 316.582031 190.671875 316.628906 190.386719 316.734375 190.113281 C 316.902344 189.664063 317.171875 189.222656 317.542969 188.78125 C 317.914063 188.347656 318.453125 187.839844 319.15625 187.265625 C 320.242188 186.371094 320.976563 185.664063 321.363281 185.140625 C 321.742188 184.621094 321.933594 184.128906 321.9375 183.660156 C 321.933594 183.175781 321.757813 182.765625 321.414063 182.429688 C 321.0625 182.097656 320.609375 181.929688 320.050781 181.925781 C 319.453125 181.929688 318.980469 182.105469 318.628906 182.460938 C 318.273438 182.816406 318.09375 183.308594 318.089844 183.933594 L 316.824219 183.804688 C 316.910156 182.863281 317.234375 182.144531 317.800781 181.648438 C 318.363281 181.15625 319.121094 180.910156 320.078125 180.90625 C 321.035156 180.910156 321.796875 181.175781 322.359375 181.707031 C 322.917969 182.242188 323.199219 182.902344 323.203125 183.6875 C 323.199219 184.089844 323.117188 184.484375 322.957031 184.871094 C 322.789063 185.261719 322.515625 185.671875 322.136719 186.097656 C 321.753906 186.527344 321.121094 187.113281 320.242188 187.859375 C 319.5 188.480469 319.027344 188.902344 318.820313 189.121094 C 318.605469 189.347656 318.433594 189.566406 318.300781 189.785156 Z M 323.953125 190.96875 "/>
<path style="fill-rule:nonzero;fill:rgb(0%,0%,0%);fill-opacity:1;stroke-width:0.5;stroke-linecap:butt;stroke-linejoin:miter;stroke:rgb(98.039216%,92.156863%,84.313725%);stroke-opacity:1;stroke-miterlimit:10;" d="M 383.570313 132.273438 L 383.570313 122.25 L 385.566406 122.25 L 387.9375 129.347656 C 388.152344 130.011719 388.3125 130.503906 388.417969 130.832031 C 388.527344 130.46875 388.703125 129.933594 388.949219 129.226563 L 391.351563 122.25 L 393.132813 122.25 L 393.132813 132.273438 L 391.855469 132.273438 L 391.855469 123.886719 L 388.945313 132.273438 L 387.746094 132.273438 L 384.847656 123.742188 L 384.847656 132.273438 Z M 394.78125 129.628906 L 396.015625 129.464844 C 396.152344 130.164063 396.390625 130.664063 396.734375 130.972656 C 397.070313 131.28125 397.484375 131.4375 397.976563 131.433594 C 398.550781 131.4375 399.039063 131.234375 399.441406 130.832031 C 399.835938 130.433594 400.035156 129.9375 400.039063 129.339844 C 400.035156 128.777344 399.851563 128.3125 399.484375 127.941406 C 399.113281 127.578125 398.644531 127.394531 398.078125 127.390625 C 397.84375 127.394531 397.554688 127.441406 397.210938 127.53125 L 397.347656 126.449219 C 397.425781 126.457031 397.492188 126.460938 397.546875 126.460938 C 398.070313 126.460938 398.539063 126.324219 398.960938 126.050781 C 399.375 125.777344 399.585938 125.359375 399.589844 124.789063 C 399.585938 124.339844 399.433594 123.964844 399.128906 123.667969 C 398.824219 123.375 398.429688 123.226563 397.949219 123.222656 C 397.46875 123.226563 397.070313 123.378906 396.75 123.675781 C 396.429688 123.980469 396.222656 124.429688 396.136719 125.027344 L 394.90625 124.808594 C 395.054688 123.984375 395.398438 123.347656 395.929688 122.890625 C 396.460938 122.441406 397.125 122.214844 397.921875 122.210938 C 398.46875 122.214844 398.96875 122.332031 399.429688 122.5625 C 399.886719 122.800781 400.238281 123.121094 400.484375 123.523438 C 400.726563 123.933594 400.851563 124.363281 400.851563 124.816406 C 400.851563 125.25 400.734375 125.644531 400.503906 126 C 400.269531 126.355469 399.925781 126.636719 399.472656 126.84375 C 400.0625 126.984375 400.523438 127.269531 400.851563 127.699219 C 401.179688 128.132813 401.34375 128.671875 401.34375 129.3125 C 401.34375 130.191406 401.023438 130.933594 400.386719 131.539063 C 399.746094 132.148438 398.941406 132.449219 397.96875 132.453125 C 397.085938 132.449219 396.355469 132.191406 395.777344 131.667969 C 395.195313 131.144531 394.863281 130.464844 394.78125 129.628906 Z M 401.980469 132.273438 "/>
<path style="fill-rule:nonzero;fill:rgb(0%,0%,0%);fill-opacity:1;stroke-width:0.5;stroke-linecap:butt;stroke-linejoin:miter;stroke:rgb(98.039216%,92.156863%,84.313725%);stroke-opacity:1;stroke-miterlimit:10;" d="M 461.597656 73.929688 L 461.597656 63.90625 L 463.59375 63.90625 L 465.964844 71.003906 C 466.179688 71.667969 466.339844 72.160156 466.445313 72.488281 C 466.554688 72.125 466.730469 71.589844 466.976563 70.882813 L 469.378906 63.90625 L 471.160156 63.90625 L 471.160156 73.929688 L 469.882813 73.929688 L 469.882813 65.542969 L 466.972656 73.929688 L 465.773438 73.929688 L 462.875 65.398438 L 462.875 73.929688 Z M 476.746094 73.929688 L 476.746094 71.53125 L 472.402344 71.53125 L 472.402344 70.402344 L 476.972656 63.90625 L 477.980469 63.90625 L 477.980469 70.402344 L 479.332031 70.402344 L 479.332031 71.53125 L 477.980469 71.53125 L 477.980469 73.929688 Z M 476.746094 70.402344 L 476.746094 65.882813 L 473.609375 70.402344 Z M 480.007813 73.929688 "/>
<path style="fill-rule:nonzero;fill:rgb(0%,0%,0%);fill-opacity:1;stroke-width:0.5;stroke-linecap:butt;stroke-linejoin:miter;stroke:rgb(98.039216%,92.156863%,84.313725%);stroke-opacity:1;stroke-miterlimit:10;" d="M 461.597656 132.277344 L 461.597656 122.253906 L 463.59375 122.253906 L 465.964844 129.351563 C 466.179688 130.015625 466.339844 130.507813 466.445313 130.835938 C 466.554688 130.472656 466.730469 129.9375 466.976563 129.230469 L 469.378906 122.253906 L 471.160156 122.253906 L 471.160156 132.277344 L 469.882813 132.277344 L 469.882813 123.890625 L 466.972656 132.277344 L 465.773438 132.277344 L 462.875 123.746094 L 462.875 132.277344 Z M 472.804688 129.652344 L 474.097656 129.542969 C 474.191406 130.175781 474.410156 130.648438 474.761719 130.964844 C 475.105469 131.28125 475.527344 131.441406 476.023438 131.4375 C 476.613281 131.441406 477.113281 131.21875 477.527344 130.769531 C 477.933594 130.324219 478.140625 129.730469 478.144531 128.988281 C 478.140625 128.292969 477.941406 127.738281 477.550781 127.328125 C 477.152344 126.925781 476.636719 126.722656 476.003906 126.71875 C 475.605469 126.722656 475.25 126.8125 474.929688 126.992188 C 474.609375 127.171875 474.355469 127.40625 474.175781 127.691406 L 473.023438 127.539063 L 473.992188 122.394531 L 478.976563 122.394531 L 478.976563 123.566406 L 474.976563 123.566406 L 474.4375 126.261719 C 475.039063 125.84375 475.667969 125.632813 476.332031 125.632813 C 477.203125 125.632813 477.941406 125.9375 478.546875 126.542969 C 479.144531 127.148438 479.445313 127.925781 479.449219 128.878906 C 479.445313 129.785156 479.183594 130.570313 478.65625 131.230469 C 478.011719 132.042969 477.132813 132.445313 476.023438 132.449219 C 475.109375 132.445313 474.363281 132.195313 473.789063 131.683594 C 473.210938 131.175781 472.882813 130.496094 472.804688 129.652344 Z M 480.007813 132.277344 "/>
<path style="fill-rule:nonzero;fill:rgb(0%,0%,0%);fill-opacity:1;stroke-width:0.5;stroke-linecap:butt;stroke-linejoin:miter;stroke:rgb(98.039216%,92.156863%,84.313725%);stroke-opacity:1;stroke-miterlimit:10;" d="M 461.597656 132.277344 L 461.597656 122.253906 L 463.59375 122.253906 L 465.964844 129.351563 C 466.179688 130.015625 466.339844 130.507813 466.445313 130.835938 C 466.554688 130.472656 466.730469 129.9375 466.976563 129.230469 L 469.378906 122.253906 L 471.160156 122.253906 L 471.160156 132.277344 L 469.882813 132.277344 L 469.882813 123.890625 L 466.972656 132.277344 L 465.773438 132.277344 L 462.875 123.746094 L 462.875 132.277344 Z M 479.1875 124.710938 L 477.964844 124.804688 C 477.855469 124.328125 477.699219 123.976563 477.5 123.753906 C 477.164063 123.40625 476.753906 123.230469 476.269531 123.226563 C 475.875 123.230469 475.53125 123.339844 475.238281 123.554688 C 474.847656 123.839844 474.542969 124.253906 474.320313 124.792969 C 474.097656 125.339844 473.980469 126.109375 473.972656 127.109375 C 474.265625 126.660156 474.628906 126.328125 475.058594 126.105469 C 475.488281 125.890625 475.9375 125.78125 476.40625 125.777344 C 477.226563 125.78125 477.921875 126.082031 478.5 126.683594 C 479.074219 127.289063 479.363281 128.070313 479.367188 129.023438 C 479.363281 129.65625 479.226563 130.238281 478.957031 130.777344 C 478.683594 131.316406 478.3125 131.730469 477.839844 132.019531 C 477.363281 132.304688 476.828125 132.445313 476.230469 132.449219 C 475.203125 132.445313 474.363281 132.070313 473.71875 131.316406 C 473.070313 130.5625 472.75 129.320313 472.75 127.589844 C 472.75 125.652344 473.105469 124.246094 473.824219 123.363281 C 474.441406 122.601563 475.28125 122.21875 476.34375 122.214844 C 477.128906 122.21875 477.777344 122.4375 478.28125 122.878906 C 478.785156 123.324219 479.085938 123.9375 479.1875 124.710938 Z M 474.164063 129.03125 C 474.160156 129.457031 474.25 129.863281 474.433594 130.25 C 474.609375 130.636719 474.863281 130.933594 475.1875 131.132813 C 475.511719 131.339844 475.851563 131.441406 476.207031 131.4375 C 476.726563 131.441406 477.171875 131.230469 477.546875 130.808594 C 477.917969 130.390625 478.105469 129.820313 478.109375 129.097656 C 478.105469 128.40625 477.921875 127.859375 477.554688 127.460938 C 477.183594 127.0625 476.71875 126.863281 476.160156 126.863281 C 475.601563 126.863281 475.128906 127.0625 474.742188 127.460938 C 474.355469 127.859375 474.160156 128.382813 474.164063 129.03125 Z M 480.007813 132.277344 "/>
<path style="fill-rule:nonzero;fill:rgb(0%,0%,0%);fill-opacity:1;stroke-width:0.5;stroke-linecap:butt;stroke-linejoin:miter;stroke:rgb(98.039216%,92.156863%,84.313725%);stroke-opacity:1;stroke-miterlimit:10;" d="M 461.597656 190.96875 L 461.597656 180.945313 L 463.59375 180.945313 L 465.964844 188.042969 C 466.179688 188.707031 466.339844 189.199219 466.445313 189.527344 C 466.554688 189.164063 466.730469 188.628906 466.976563 187.921875 L 469.378906 180.945313 L 471.160156 180.945313 L 471.160156 190.96875 L 469.882813 190.96875 L 469.882813 182.582031 L 466.972656 190.96875 L 465.773438 190.96875 L 462.875 182.4375 L 462.875 190.96875 Z M 472.886719 182.257813 L 472.886719 181.078125 L 479.371094 181.078125 L 479.371094 182.035156 C 478.734375 182.71875 478.101563 183.621094 477.476563 184.742188 C 476.847656 185.871094 476.363281 187.027344 476.023438 188.214844 C 475.773438 189.054688 475.617188 189.972656 475.550781 190.96875 L 474.285156 190.96875 C 474.300781 190.179688 474.453125 189.230469 474.75 188.113281 C 475.042969 187 475.46875 185.921875 476.023438 184.882813 C 476.574219 183.847656 477.164063 182.972656 477.792969 182.257813 Z M 480.007813 190.96875 "/>
<path style="fill-rule:nonzero;fill:rgb(0%,0%,0%);fill-opacity:1;stroke-width:0.5;stroke-linecap:butt;stroke-linejoin:miter;stroke:rgb(98.039216%,92.156863%,84.313725%);stroke-opacity:1;stroke-miterlimit:10;" d="M 539.625 132.277344 L 539.625 122.253906 L 541.621094 122.253906 L 543.992188 129.351563 C 544.207031 130.015625 544.367188 130.507813 544.472656 130.835938 C 544.582031 130.472656 544.757813 129.9375 545.003906 129.230469 L 547.40625 122.253906 L 549.1875 122.253906 L 549.1875 132.277344 L 547.910156 132.277344 L 547.910156 123.890625 L 545 132.277344 L 543.800781 132.277344 L 540.902344 123.746094 L 540.902344 132.277344 Z M 552.726563 126.84375 C 552.214844 126.660156 551.835938 126.390625 551.589844 126.042969 C 551.339844 125.699219 551.214844 125.285156 551.21875 124.800781 C 551.214844 124.074219 551.476563 123.460938 552.003906 122.960938 C 552.527344 122.464844 553.226563 122.21875 554.097656 122.214844 C 554.96875 122.21875 555.671875 122.472656 556.210938 122.976563 C 556.742188 123.488281 557.011719 124.105469 557.011719 124.832031 C 557.011719 125.300781 556.886719 125.707031 556.644531 126.046875 C 556.398438 126.394531 556.03125 126.660156 555.535156 126.84375 C 556.148438 127.046875 556.613281 127.371094 556.9375 127.816406 C 557.257813 128.265625 557.421875 128.796875 557.421875 129.414063 C 557.421875 130.273438 557.117188 130.992188 556.511719 131.574219 C 555.902344 132.15625 555.105469 132.445313 554.117188 132.449219 C 553.128906 132.445313 552.332031 132.15625 551.726563 131.570313 C 551.117188 130.988281 550.8125 130.257813 550.816406 129.378906 C 550.8125 128.730469 550.976563 128.183594 551.3125 127.742188 C 551.640625 127.304688 552.113281 127.007813 552.726563 126.84375 Z M 552.476563 124.757813 C 552.476563 125.234375 552.628906 125.621094 552.933594 125.921875 C 553.238281 126.222656 553.632813 126.371094 554.125 126.371094 C 554.59375 126.371094 554.984375 126.222656 555.289063 125.925781 C 555.59375 125.628906 555.746094 125.261719 555.746094 124.824219 C 555.746094 124.375 555.589844 123.996094 555.277344 123.6875 C 554.964844 123.382813 554.574219 123.230469 554.113281 123.226563 C 553.636719 123.230469 553.246094 123.382813 552.941406 123.679688 C 552.628906 123.984375 552.476563 124.34375 552.476563 124.757813 Z M 552.082031 129.386719 C 552.078125 129.738281 552.160156 130.074219 552.332031 130.402344 C 552.496094 130.730469 552.746094 130.988281 553.074219 131.167969 C 553.402344 131.351563 553.753906 131.441406 554.132813 131.4375 C 554.71875 131.441406 555.203125 131.25 555.589844 130.871094 C 555.96875 130.492188 556.160156 130.011719 556.164063 129.425781 C 556.160156 128.835938 555.964844 128.347656 555.570313 127.957031 C 555.175781 127.574219 554.683594 127.378906 554.09375 127.375 C 553.511719 127.378906 553.03125 127.570313 552.652344 127.949219 C 552.269531 128.335938 552.078125 128.816406 552.082031 129.386719 Z M 558.035156 132.277344 "/>
<path style="fill-rule:nonzero;fill:rgb(28.235294%,46.27451%,100%);fill-opacity:1;stroke-width:0.5;stroke-linecap:butt;stroke-linejoin:miter;stroke:rgb(98.039216%,92.156863%,84.313725%);stroke-opacity:1;stroke-miterlimit:10;" d="M 193.324219 222.03125 L 193.324219 212.007813 L 197.765625 212.007813 C 198.65625 212.011719 199.332031 212.101563 199.800781 212.28125 C 200.261719 212.460938 200.636719 212.78125 200.917969 213.234375 C 201.195313 213.695313 201.332031 214.195313 201.335938 214.742188 C 201.332031 215.457031 201.101563 216.058594 200.644531 216.542969 C 200.179688 217.03125 199.46875 217.339844 198.511719 217.472656 C 198.859375 217.644531 199.128906 217.8125 199.3125 217.96875 C 199.699219 218.328125 200.0625 218.773438 200.410156 219.304688 L 202.15625 222.03125 L 200.488281 222.03125 L 199.160156 219.945313 C 198.773438 219.34375 198.453125 218.886719 198.203125 218.566406 C 197.949219 218.25 197.726563 218.023438 197.53125 217.894531 C 197.332031 217.769531 197.128906 217.683594 196.925781 217.628906 C 196.773438 217.601563 196.527344 217.585938 196.1875 217.582031 L 194.648438 217.582031 L 194.648438 222.03125 Z M 194.648438 216.433594 L 197.5 216.433594 C 198.105469 216.4375 198.578125 216.375 198.921875 216.246094 C 199.257813 216.121094 199.519531 215.917969 199.699219 215.644531 C 199.878906 215.371094 199.96875 215.070313 199.96875 214.742188 C 199.96875 214.269531 199.792969 213.882813 199.449219 213.574219 C 199.101563 213.273438 198.558594 213.121094 197.820313 213.117188 L 194.648438 213.117188 Z M 203.484375 222.03125 L 203.484375 212.007813 L 210.246094 212.007813 L 210.246094 213.191406 L 204.8125 213.191406 L 204.8125 216.296875 L 209.515625 216.296875 L 209.515625 217.476563 L 204.8125 217.476563 L 204.8125 222.03125 Z M 216.101563 222.03125 L 214.871094 222.03125 L 214.871094 214.191406 C 214.574219 214.472656 214.183594 214.757813 213.703125 215.039063 C 213.222656 215.324219 212.792969 215.535156 212.410156 215.671875 L 212.410156 214.484375 C 213.097656 214.164063 213.699219 213.773438 214.214844 213.308594 C 214.730469 212.851563 215.09375 212.40625 215.308594 211.96875 L 216.101563 211.96875 Z M 218.671875 222.03125 "/>
<path style="fill-rule:nonzero;fill:rgb(28.235294%,46.27451%,100%);fill-opacity:1;stroke-width:0.5;stroke-linecap:butt;stroke-linejoin:miter;stroke:rgb(98.039216%,92.156863%,84.313725%);stroke-opacity:1;stroke-miterlimit:10;" d="M 532.351563 252.03125 L 532.351563 242.007813 L 536.792969 242.007813 C 537.683594 242.011719 538.359375 242.101563 538.828125 242.28125 C 539.289063 242.460938 539.664063 242.78125 539.945313 243.234375 C 540.222656 243.695313 540.359375 244.195313 540.363281 244.742188 C 540.359375 245.457031 540.128906 246.058594 539.671875 246.542969 C 539.207031 247.03125 538.496094 247.339844 537.539063 247.472656 C 537.886719 247.644531 538.15625 247.8125 538.339844 247.96875 C 538.726563 248.328125 539.089844 248.773438 539.4375 249.304688 L 541.183594 252.03125 L 539.515625 252.03125 L 538.1875 249.945313 C 537.800781 249.34375 537.480469 248.886719 537.230469 248.566406 C 536.976563 248.25 536.753906 248.023438 536.558594 247.894531 C 536.359375 247.769531 536.15625 247.683594 535.953125 247.628906 C 535.800781 247.601563 535.554688 247.585938 535.214844 247.582031 L 533.675781 247.582031 L 533.675781 252.03125 Z M 533.675781 246.433594 L 536.527344 246.433594 C 537.132813 246.4375 537.605469 246.375 537.949219 246.246094 C 538.285156 246.121094 538.546875 245.917969 538.726563 245.644531 C 538.90625 245.371094 538.996094 245.070313 538.996094 244.742188 C 538.996094 244.269531 538.820313 243.882813 538.476563 243.574219 C 538.128906 243.273438 537.585938 243.121094 536.847656 243.117188 L 533.675781 243.117188 Z M 542.511719 252.03125 L 542.511719 242.007813 L 549.273438 242.007813 L 549.273438 243.191406 L 543.839844 243.191406 L 543.839844 246.296875 L 548.542969 246.296875 L 548.542969 247.476563 L 543.839844 247.476563 L 543.839844 252.03125 Z M 556.960938 250.847656 L 556.960938 252.03125 L 550.335938 252.03125 C 550.328125 251.734375 550.375 251.449219 550.480469 251.175781 C 550.648438 250.726563 550.917969 250.285156 551.289063 249.84375 C 551.660156 249.410156 552.199219 248.902344 552.902344 248.328125 C 553.988281 247.433594 554.722656 246.726563 555.109375 246.203125 C 555.488281 245.683594 555.679688 245.191406 555.683594 244.722656 C 555.679688 244.238281 555.503906 243.828125 555.160156 243.492188 C 554.808594 243.160156 554.355469 242.992188 553.796875 242.988281 C 553.199219 242.992188 552.726563 243.167969 552.375 243.523438 C 552.019531 243.878906 551.839844 244.371094 551.835938 244.996094 L 550.570313 244.867188 C 550.65625 243.925781 550.980469 243.207031 551.546875 242.710938 C 552.109375 242.21875 552.867188 241.972656 553.824219 241.96875 C 554.78125 241.972656 555.542969 242.238281 556.105469 242.769531 C 556.664063 243.304688 556.945313 243.964844 556.949219 244.75 C 556.945313 245.152344 556.863281 245.546875 556.703125 245.933594 C 556.535156 246.324219 556.261719 246.734375 555.882813 247.160156 C 555.5 247.589844 554.867188 248.175781 553.988281 248.921875 C 553.246094 249.542969 552.773438 249.964844 552.566406 250.183594 C 552.351563 250.410156 552.179688 250.628906 552.046875 250.847656 Z M 557.699219 252.03125 "/>
<path style="fill-rule:nonzero;fill:rgb(78.039216%,8.235294%,52.156863%);fill-opacity:1;stroke-width:0.5;stroke-linecap:butt;stroke-linejoin:miter;stroke:rgb(98.039216%,92.156863%,84.313725%);stroke-opacity:1;stroke-miterlimit:10;" d="M 353.914063 177.03125 L 353.914063 167.007813 L 360.675781 167.007813 L 360.675781 168.191406 L 355.242188 168.191406 L 355.242188 171.296875 L 359.945313 171.296875 L 359.945313 172.476563 L 355.242188 172.476563 L 355.242188 177.03125 Z M 366.53125 177.03125 L 365.300781 177.03125 L 365.300781 169.191406 C 365.003906 169.472656 364.613281 169.757813 364.132813 170.039063 C 363.652344 170.324219 363.222656 170.535156 362.839844 170.671875 L 362.839844 169.484375 C 363.527344 169.164063 364.128906 168.773438 364.644531 168.308594 C 365.160156 167.851563 365.523438 167.40625 365.738281 166.96875 L 366.53125 166.96875 Z M 369.101563 177.03125 "/>
<path style="fill-rule:nonzero;fill:rgb(78.039216%,8.235294%,52.156863%);fill-opacity:1;stroke-width:0.5;stroke-linecap:butt;stroke-linejoin:miter;stroke:rgb(98.039216%,92.156863%,84.313725%);stroke-opacity:1;stroke-miterlimit:10;" d="M 468.136719 99.992188 L 468.136719 89.96875 L 474.898438 89.96875 L 474.898438 91.152344 L 469.464844 91.152344 L 469.464844 94.257813 L 474.167969 94.257813 L 474.167969 95.4375 L 469.464844 95.4375 L 469.464844 99.992188 Z M 482.585938 98.808594 L 482.585938 99.992188 L 475.960938 99.992188 C 475.953125 99.695313 476 99.410156 476.105469 99.136719 C 476.273438 98.6875 476.542969 98.246094 476.914063 97.804688 C 477.285156 97.371094 477.824219 96.863281 478.527344 96.289063 C 479.613281 95.394531 480.347656 94.6875 480.734375 94.164063 C 481.113281 93.644531 481.304688 93.152344 481.308594 92.683594 C 481.304688 92.199219 481.128906 91.789063 480.785156 91.453125 C 480.433594 91.121094 479.980469 90.953125 479.421875 90.949219 C 478.824219 90.953125 478.351563 91.128906 478 91.484375 C 477.644531 91.839844 477.464844 92.332031 477.460938 92.957031 L 476.195313 92.828125 C 476.28125 91.886719 476.605469 91.167969 477.171875 90.671875 C 477.734375 90.179688 478.492188 89.933594 479.449219 89.929688 C 480.40625 89.933594 481.167969 90.199219 481.730469 90.730469 C 482.289063 91.265625 482.570313 91.925781 482.574219 92.710938 C 482.570313 93.113281 482.488281 93.507813 482.328125 93.894531 C 482.160156 94.285156 481.886719 94.695313 481.507813 95.121094 C 481.125 95.550781 480.492188 96.136719 479.613281 96.882813 C 478.871094 97.503906 478.398438 97.925781 478.191406 98.144531 C 477.976563 98.371094 477.804688 98.589844 477.671875 98.808594 Z M 483.324219 99.992188 "/>
</g>
</svg>
