<?xml version="1.0" encoding="UTF-8"?>
<svg xmlns="http://www.w3.org/2000/svg" xmlns:xlink="http://www.w3.org/1999/xlink" width="749.063342pt" height="280.898753pt" viewBox="0 0 749.063342 280.898753" version="1.1">
<g id="surface119">
<rect x="0" y="0" width="749.063342" height="280.898753" style="fill:rgb(98.039216%,92.156863%,84.313725%);fill-opacity:1;stroke:none;"/>
<path style="fill:none;stroke-width:2;stroke-linecap:butt;stroke-linejoin:miter;stroke:rgb(0%,0%,0%);stroke-opacity:1;stroke-dasharray:6,6;stroke-miterlimit:10;" d="M 218.476563 198.96875 L 374.53125 81.929688 "/>
<path style="fill:none;stroke-width:2;stroke-linecap:butt;stroke-linejoin:miter;stroke:rgb(0%,0%,0%);stroke-opacity:1;stroke-dasharray:6,6;stroke-miterlimit:10;" d="M 218.476563 198.96875 L 374.53125 198.96875 "/>
<path style="fill:none;stroke-width:2;stroke-linecap:butt;stroke-linejoin:miter;stroke:rgb(0%,0%,0%);stroke-opacity:1;stroke-dasharray:6,6;stroke-miterlimit:10;" d="M 374.53125 198.96875 L 374.53125 81.929688 "/>
<path style="fill:none;stroke-width:2;stroke-linecap:butt;stroke-linejoin:miter;stroke:rgb(0%,0%,0%);stroke-opacity:1;stroke-dasharray:6,6;stroke-miterlimit:10;" d="M 374.53125 81.929688 L 530.585938 81.929688 "/>
<path style="fill:none;stroke-width:2;stroke-linecap:butt;stroke-linejoin:miter;stroke:rgb(0%,0%,0%);stroke-opacity:1;stroke-dasharray:6,6;stroke-miterlimit:10;" d="M 374.53125 81.929688 L 530.585938 198.96875 "/>
<path style="fill:none;stroke-width:2;stroke-linecap:butt;stroke-linejoin:miter;stroke:rgb(0%,0%,0%);stroke-opacity:1;stroke-dasharray:6,6;stroke-miterlimit:10;" d="M 374.53125 198.96875 L 530.585938 81.929688 "/>
<path style="fill:none;stroke-width:2;stroke-linecap:butt;stroke-linejoin:miter;stroke:rgb(0%,0%,0%);stroke-opacity:1;stroke-dasharray:6,6;stroke-miterlimit:10;" d="M 374.53125 198.96875 L 530.585938 198.96875 "/>
<path style="fill:none;stroke-width:2;stroke-linecap:butt;stroke-linejoin:miter;stroke:rgb(0%,0%,0%);stroke-opacity:1;stroke-dasharray:6,6;stroke-miterlimit:10;" d="M 530.585938 198.96875 L 530.585938 81.929688 "/>
<path style="fill:none;stroke-width:2;stroke-linecap:butt;stroke-linejoin:miter;stroke:rgb(0%,0%,30.188679%);stroke-opacity:1;stroke-miterlimit:10;" d="M 218.476563 198.96875 L 373.550781 79.496094 "/>
<path style="fill:none;stroke-width:2;stroke-linecap:butt;stroke-linejoin:miter;stroke:rgb(40%,0%,0%);stroke-opacity:1;stroke-miterlimit:10;" d="M 218.476563 198.96875 L 373.734375 195.484375 "/>
<path style="fill:none;stroke-width:2;stroke-linecap:butt;stroke-linejoin:miter;stroke:rgb(0%,0%,0%);stroke-opacity:1;stroke-miterlimit:10;" d="M 373.734375 195.484375 L 373.550781 79.496094 "/>
<path style="fill:none;stroke-width:2;stroke-linecap:butt;stroke-linejoin:miter;stroke:rgb(50.169492%,0%,0%);stroke-opacity:1;stroke-miterlimit:10;" d="M 373.550781 79.496094 L 528.605469 81.03125 "/>
<path style="fill:none;stroke-width:2;stroke-linecap:butt;stroke-linejoin:miter;stroke:rgb(0%,0%,100%);stroke-opacity:1;stroke-miterlimit:10;" d="M 373.550781 79.496094 L 530.585938 198.96875 "/>
<path style="fill:none;stroke-width:2;stroke-linecap:butt;stroke-linejoin:miter;stroke:rgb(100%,0%,0%);stroke-opacity:1;stroke-miterlimit:10;" d="M 373.734375 195.484375 L 528.605469 81.03125 "/>
<path style="fill:none;stroke-width:2;stroke-linecap:butt;stroke-linejoin:miter;stroke:rgb(0%,0%,44.528302%);stroke-opacity:1;stroke-miterlimit:10;" d="M 373.734375 195.484375 L 530.585938 198.96875 "/>
<path style="fill:none;stroke-width:2;stroke-linecap:butt;stroke-linejoin:miter;stroke:rgb(0%,0%,0%);stroke-opacity:1;stroke-miterlimit:10;" d="M 530.585938 198.96875 L 528.605469 81.03125 "/>
<path style=" stroke:none;fill-rule:nonzero;fill:rgb(0%,100%,0%);fill-opacity:1;" d="M 220.476563 198.96875 C 220.476563 201.636719 216.476563 201.636719 216.476563 198.96875 C 216.476563 196.304688 220.476563 196.304688 220.476563 198.96875 "/>
<path style=" stroke:none;fill-rule:nonzero;fill:rgb(0%,100%,0%);fill-opacity:1;" d="M 375.734375 195.484375 C 375.734375 198.152344 371.734375 198.152344 371.734375 195.484375 C 371.734375 192.816406 375.734375 192.816406 375.734375 195.484375 "/>
<path style=" stroke:none;fill-rule:nonzero;fill:rgb(0%,100%,0%);fill-opacity:1;" d="M 375.550781 79.496094 C 375.550781 82.160156 371.550781 82.160156 371.550781 79.496094 C 371.550781 76.828125 375.550781 76.828125 375.550781 79.496094 "/>
<path style=" stroke:none;fill-rule:nonzero;fill:rgb(0%,100%,0%);fill-opacity:1;" d="M 532.585938 198.96875 C 532.585938 201.636719 528.585938 201.636719 528.585938 198.96875 C 528.585938 196.304688 532.585938 196.304688 532.585938 198.96875 "/>
<path style=" stroke:none;fill-rule:nonzero;fill:rgb(0%,100%,0%);fill-opacity:1;" d="M 530.605469 81.03125 C 530.605469 83.695313 526.605469 83.695313 526.605469 81.03125 C 526.605469 78.363281 530.605469 78.363281 530.605469 81.03125 "/>
<path style="fill:none;stroke-width:4;stroke-linecap:butt;stroke-linejoin:miter;stroke:rgb(78.039216%,8.235294%,52.156863%);stroke-opacity:1;stroke-miterlimit:10;" d="M 374.53125 198.96875 L 374.53125 136.289063 "/>
<path style=" stroke:none;fill-rule:nonzero;fill:rgb(78.039216%,8.235294%,52.156863%);fill-opacity:1;" d="M 364.53125 136.289063 L 374.53125 118.96875 L 384.53125 136.289063 "/>
<path style="fill:none;stroke-width:4;stroke-linecap:butt;stroke-linejoin:miter;stroke:rgb(78.039216%,8.235294%,52.156863%);stroke-opacity:1;stroke-miterlimit:10;" d="M 530.585938 81.929688 L 467.90625 81.929688 "/>
<path style=" stroke:none;fill-rule:nonzero;fill:rgb(78.039216%,8.235294%,52.156863%);fill-opacity:1;" d="M 467.90625 91.929688 L 450.585938 81.929688 L 467.90625 71.929688 "/>
<path style="fill:none;stroke-width:4;stroke-linecap:butt;stroke-linejoin:miter;stroke:rgb(28.235294%,46.27451%,100%);stroke-opacity:1;stroke-miterlimit:10;" d="M 218.476563 198.96875 L 227.136719 206.667969 "/>
<path style=" stroke:none;fill-rule:nonzero;fill:rgb(28.235294%,46.27451%,100%);fill-opacity:1;" d="M 223.425781 189.988281 L 229.726563 208.96875 L 210.136719 204.9375 "/>
<path style="fill:none;stroke-width:4;stroke-linecap:butt;stroke-linejoin:miter;stroke:rgb(28.235294%,46.27451%,100%);stroke-opacity:1;stroke-miterlimit:10;" d="M 530.585938 198.96875 L 587.199219 256.613281 "/>
<path style=" stroke:none;fill-rule:nonzero;fill:rgb(28.235294%,46.27451%,100%);fill-opacity:1;" d="M 594.335938 249.605469 L 599.335938 268.96875 L 580.066406 263.621094 "/>
<path style="fill:none;stroke-width:2;stroke-linecap:butt;stroke-linejoin:miter;stroke:rgb(0%,50.196078%,0%);stroke-opacity:1;stroke-miterlimit:10;" d="M 224.476563 198.96875 C 224.476563 202.285156 221.789063 204.96875 218.476563 204.96875 C 215.164063 204.96875 212.476563 202.285156 212.476563 198.96875 C 212.476563 195.65625 215.164063 192.96875 218.476563 192.96875 C 221.789063 192.96875 224.476563 195.65625 224.476563 198.96875 "/>
<path style="fill:none;stroke-width:2;stroke-linecap:butt;stroke-linejoin:miter;stroke:rgb(0%,50.196078%,0%);stroke-opacity:1;stroke-miterlimit:10;" d="M 536.585938 198.96875 C 536.585938 202.285156 533.898438 204.96875 530.585938 204.96875 C 527.273438 204.96875 524.585938 202.285156 524.585938 198.96875 C 524.585938 195.65625 527.273438 192.96875 530.585938 192.96875 C 533.898438 192.96875 536.585938 195.65625 536.585938 198.96875 "/>
<path style=" stroke:none;fill-rule:nonzero;fill:rgb(0%,0%,0%);fill-opacity:1;" d="M 220.476563 198.96875 C 220.476563 201.636719 216.476563 201.636719 216.476563 198.96875 C 216.476563 196.304688 220.476563 196.304688 220.476563 198.96875 "/>
<path style=" stroke:none;fill-rule:nonzero;fill:rgb(0%,0%,0%);fill-opacity:1;" d="M 376.53125 198.96875 C 376.53125 201.636719 372.53125 201.636719 372.53125 198.96875 C 372.53125 196.304688 376.53125 196.304688 376.53125 198.96875 "/>
<path style=" stroke:none;fill-rule:nonzero;fill:rgb(0%,0%,0%);fill-opacity:1;" d="M 376.53125 81.929688 C 376.53125 84.59375 372.53125 84.59375 372.53125 81.929688 C 372.53125 79.261719 376.53125 79.261719 376.53125 81.929688 "/>
<path style=" stroke:none;fill-rule:nonzero;fill:rgb(0%,0%,0%);fill-opacity:1;" d="M 532.585938 198.96875 C 532.585938 201.636719 528.585938 201.636719 528.585938 198.96875 C 528.585938 196.304688 532.585938 196.304688 532.585938 198.96875 "/>
<path style=" stroke:none;fill-rule:nonzero;fill:rgb(0%,0%,0%);fill-opacity:1;" d="M 532.585938 81.929688 C 532.585938 84.59375 528.585938 84.59375 528.585938 81.929688 C 528.585938 79.261719 532.585938 79.261719 532.585938 81.929688 "/>
<path style="fill-rule:nonzero;fill:rgb(0%,0%,0%);fill-opacity:1;stroke-width:0.25;stroke-linecap:butt;stroke-linejoin:miter;stroke:rgb(98.039216%,92.156863%,84.313725%);stroke-opacity:1;stroke-miterlimit:10;" d="M 226.820313 188.386719 L 227.847656 188.246094 C 227.875 188.902344 227.996094 189.351563 228.21875 189.59375 C 228.433594 189.835938 228.738281 189.957031 229.125 189.957031 C 229.410156 189.957031 229.65625 189.894531 229.863281 189.761719 C 230.066406 189.636719 230.207031 189.457031 230.289063 189.230469 C 230.363281 189.003906 230.402344 188.644531 230.40625 188.152344 L 230.40625 182.234375 L 231.546875 182.234375 L 231.546875 188.089844 C 231.542969 188.8125 231.457031 189.367188 231.285156 189.757813 C 231.109375 190.152344 230.832031 190.453125 230.457031 190.660156 C 230.074219 190.867188 229.632813 190.96875 229.132813 190.972656 C 228.375 190.96875 227.796875 190.753906 227.398438 190.320313 C 226.992188 189.886719 226.800781 189.242188 226.820313 188.386719 Z M 236.945313 190.824219 L 235.890625 190.824219 L 235.890625 184.105469 C 235.636719 184.347656 235.304688 184.589844 234.890625 184.828125 C 234.476563 185.074219 234.105469 185.253906 233.78125 185.375 L 233.78125 184.355469 C 234.371094 184.082031 234.886719 183.746094 235.328125 183.347656 C 235.769531 182.953125 236.082031 182.570313 236.265625 182.199219 L 236.945313 182.199219 Z M 239.152344 190.824219 "/>
<path style="fill-rule:nonzero;fill:rgb(0%,0%,0%);fill-opacity:1;stroke-width:0.25;stroke-linecap:butt;stroke-linejoin:miter;stroke:rgb(98.039216%,92.156863%,84.313725%);stroke-opacity:1;stroke-miterlimit:10;" d="M 382.875 188.386719 L 383.902344 188.246094 C 383.929688 188.902344 384.050781 189.351563 384.273438 189.59375 C 384.488281 189.835938 384.792969 189.957031 385.179688 189.957031 C 385.464844 189.957031 385.710938 189.894531 385.917969 189.761719 C 386.121094 189.636719 386.261719 189.457031 386.34375 189.230469 C 386.417969 189.003906 386.457031 188.644531 386.460938 188.152344 L 386.460938 182.234375 L 387.601563 182.234375 L 387.601563 188.089844 C 387.597656 188.8125 387.511719 189.367188 387.339844 189.757813 C 387.164063 190.152344 386.886719 190.453125 386.511719 190.660156 C 386.128906 190.867188 385.6875 190.96875 385.1875 190.972656 C 384.429688 190.96875 383.851563 190.753906 383.453125 190.320313 C 383.046875 189.886719 382.855469 189.242188 382.875 188.386719 Z M 394.570313 189.808594 L 394.570313 190.824219 L 388.894531 190.824219 C 388.886719 190.570313 388.925781 190.328125 389.015625 190.089844 C 389.160156 189.707031 389.390625 189.324219 389.710938 188.949219 C 390.023438 188.574219 390.484375 188.140625 391.09375 187.648438 C 392.023438 186.882813 392.65625 186.277344 392.984375 185.832031 C 393.3125 185.386719 393.476563 184.964844 393.476563 184.558594 C 393.476563 184.144531 393.324219 183.792969 393.027344 183.503906 C 392.722656 183.222656 392.335938 183.078125 391.859375 183.074219 C 391.351563 183.078125 390.945313 183.230469 390.640625 183.53125 C 390.335938 183.839844 390.179688 184.261719 390.179688 184.792969 L 389.09375 184.683594 C 389.164063 183.878906 389.441406 183.265625 389.929688 182.835938 C 390.410156 182.414063 391.0625 182.199219 391.882813 182.199219 C 392.703125 182.199219 393.355469 182.429688 393.839844 182.886719 C 394.320313 183.34375 394.558594 183.910156 394.5625 184.582031 C 394.558594 184.929688 394.488281 185.265625 394.351563 185.597656 C 394.207031 185.933594 393.972656 186.285156 393.648438 186.648438 C 393.320313 187.019531 392.78125 187.523438 392.023438 188.160156 C 391.390625 188.695313 390.984375 189.054688 390.804688 189.242188 C 390.625 189.429688 390.476563 189.621094 390.359375 189.808594 Z M 395.207031 190.824219 "/>
<path style="fill-rule:nonzero;fill:rgb(0%,0%,0%);fill-opacity:1;stroke-width:0.25;stroke-linecap:butt;stroke-linejoin:miter;stroke:rgb(98.039216%,92.156863%,84.313725%);stroke-opacity:1;stroke-miterlimit:10;" d="M 382.875 71.339844 L 383.902344 71.199219 C 383.929688 71.855469 384.050781 72.304688 384.273438 72.546875 C 384.488281 72.789063 384.792969 72.910156 385.179688 72.910156 C 385.464844 72.910156 385.710938 72.847656 385.917969 72.714844 C 386.121094 72.589844 386.261719 72.410156 386.34375 72.183594 C 386.417969 71.957031 386.457031 71.597656 386.460938 71.105469 L 386.460938 65.1875 L 387.601563 65.1875 L 387.601563 71.042969 C 387.597656 71.765625 387.511719 72.320313 387.339844 72.710938 C 387.164063 73.105469 386.886719 73.40625 386.511719 73.613281 C 386.128906 73.820313 385.6875 73.921875 385.1875 73.925781 C 384.429688 73.921875 383.851563 73.707031 383.453125 73.273438 C 383.046875 72.839844 382.855469 72.195313 382.875 71.339844 Z M 389.035156 71.511719 L 390.089844 71.371094 C 390.210938 71.96875 390.414063 72.398438 390.707031 72.664063 C 390.996094 72.929688 391.351563 73.0625 391.773438 73.058594 C 392.265625 73.0625 392.683594 72.890625 393.027344 72.542969 C 393.363281 72.203125 393.535156 71.777344 393.539063 71.261719 C 393.535156 70.78125 393.378906 70.382813 393.066406 70.066406 C 392.75 69.753906 392.347656 69.59375 391.859375 69.59375 C 391.660156 69.59375 391.410156 69.632813 391.117188 69.710938 L 391.234375 68.785156 C 391.296875 68.792969 391.355469 68.796875 391.402344 68.796875 C 391.851563 68.796875 392.253906 68.679688 392.617188 68.445313 C 392.972656 68.210938 393.152344 67.851563 393.15625 67.363281 C 393.152344 66.976563 393.023438 66.65625 392.761719 66.402344 C 392.496094 66.148438 392.15625 66.019531 391.75 66.019531 C 391.335938 66.019531 390.996094 66.148438 390.722656 66.40625 C 390.449219 66.664063 390.273438 67.050781 390.195313 67.566406 L 389.140625 67.378906 C 389.269531 66.671875 389.5625 66.125 390.019531 65.734375 C 390.472656 65.347656 391.039063 65.152344 391.726563 65.152344 C 392.191406 65.152344 392.625 65.253906 393.019531 65.453125 C 393.410156 65.65625 393.710938 65.929688 393.921875 66.277344 C 394.132813 66.628906 394.238281 67 394.238281 67.386719 C 394.238281 67.757813 394.136719 68.09375 393.9375 68.398438 C 393.738281 68.703125 393.445313 68.945313 393.054688 69.125 C 393.5625 69.242188 393.957031 69.488281 394.238281 69.855469 C 394.519531 70.230469 394.660156 70.691406 394.660156 71.238281 C 394.660156 71.992188 394.386719 72.628906 393.839844 73.148438 C 393.292969 73.671875 392.601563 73.929688 391.765625 73.929688 C 391.007813 73.929688 390.378906 73.707031 389.886719 73.257813 C 389.386719 72.808594 389.105469 72.226563 389.035156 71.511719 Z M 395.207031 73.777344 "/>
<path style="fill-rule:nonzero;fill:rgb(0%,0%,0%);fill-opacity:1;stroke-width:0.25;stroke-linecap:butt;stroke-linejoin:miter;stroke:rgb(98.039216%,92.156863%,84.313725%);stroke-opacity:1;stroke-miterlimit:10;" d="M 538.929688 188.386719 L 539.957031 188.246094 C 539.984375 188.902344 540.105469 189.351563 540.328125 189.59375 C 540.542969 189.835938 540.847656 189.957031 541.234375 189.957031 C 541.519531 189.957031 541.765625 189.894531 541.972656 189.761719 C 542.175781 189.636719 542.316406 189.457031 542.398438 189.230469 C 542.472656 189.003906 542.511719 188.644531 542.515625 188.152344 L 542.515625 182.234375 L 543.65625 182.234375 L 543.65625 188.089844 C 543.652344 188.8125 543.566406 189.367188 543.394531 189.757813 C 543.21875 190.152344 542.941406 190.453125 542.566406 190.660156 C 542.183594 190.867188 541.742188 190.96875 541.242188 190.972656 C 540.484375 190.96875 539.90625 190.753906 539.507813 190.320313 C 539.101563 189.886719 538.910156 189.242188 538.929688 188.386719 Z M 548.464844 190.824219 L 548.464844 188.769531 L 544.738281 188.769531 L 544.738281 187.800781 L 548.65625 182.234375 L 549.519531 182.234375 L 549.519531 187.800781 L 550.679688 187.800781 L 550.679688 188.769531 L 549.519531 188.769531 L 549.519531 190.824219 Z M 548.464844 187.800781 L 548.464844 183.925781 L 545.773438 187.800781 Z M 551.261719 190.824219 "/>
<path style="fill-rule:nonzero;fill:rgb(0%,0%,0%);fill-opacity:1;stroke-width:0.25;stroke-linecap:butt;stroke-linejoin:miter;stroke:rgb(98.039216%,92.156863%,84.313725%);stroke-opacity:1;stroke-miterlimit:10;" d="M 538.929688 71.34375 L 539.957031 71.203125 C 539.984375 71.859375 540.105469 72.308594 540.328125 72.550781 C 540.542969 72.792969 540.847656 72.914063 541.234375 72.914063 C 541.519531 72.914063 541.765625 72.851563 541.972656 72.71875 C 542.175781 72.59375 542.316406 72.414063 542.398438 72.1875 C 542.472656 71.960938 542.511719 71.601563 542.515625 71.109375 L 542.515625 65.191406 L 543.65625 65.191406 L 543.65625 71.046875 C 543.652344 71.769531 543.566406 72.324219 543.394531 72.714844 C 543.21875 73.109375 542.941406 73.410156 542.566406 73.617188 C 542.183594 73.824219 541.742188 73.925781 541.242188 73.929688 C 540.484375 73.925781 539.90625 73.710938 539.507813 73.277344 C 539.101563 72.84375 538.910156 72.199219 538.929688 71.34375 Z M 545.085938 71.53125 L 546.191406 71.4375 C 546.269531 71.976563 546.457031 72.382813 546.761719 72.65625 C 547.058594 72.929688 547.421875 73.066406 547.84375 73.0625 C 548.351563 73.066406 548.78125 72.875 549.132813 72.488281 C 549.484375 72.109375 549.660156 71.601563 549.660156 70.960938 C 549.660156 70.367188 549.488281 69.890625 549.152344 69.539063 C 548.8125 69.191406 548.371094 69.019531 547.828125 69.015625 C 547.484375 69.019531 547.179688 69.097656 546.90625 69.25 C 546.632813 69.40625 546.417969 69.605469 546.261719 69.851563 L 545.273438 69.71875 L 546.101563 65.308594 L 550.375 65.308594 L 550.375 66.316406 L 546.945313 66.316406 L 546.484375 68.625 C 547 68.265625 547.539063 68.085938 548.109375 68.085938 C 548.855469 68.085938 549.488281 68.347656 550.007813 68.867188 C 550.519531 69.386719 550.777344 70.054688 550.78125 70.867188 C 550.777344 71.648438 550.550781 72.320313 550.101563 72.882813 C 549.546875 73.582031 548.796875 73.925781 547.84375 73.929688 C 547.0625 73.925781 546.421875 73.710938 545.929688 73.273438 C 545.429688 72.839844 545.148438 72.257813 545.085938 71.53125 Z M 551.261719 73.78125 "/>
<path style="fill-rule:nonzero;fill:rgb(0%,0%,0%);fill-opacity:1;stroke-width:0.25;stroke-linecap:butt;stroke-linejoin:miter;stroke:rgb(98.039216%,92.156863%,84.313725%);stroke-opacity:1;stroke-miterlimit:10;" d="M 305.394531 132.449219 L 305.394531 123.859375 L 307.105469 123.859375 L 309.136719 129.941406 C 309.320313 130.511719 309.457031 130.9375 309.550781 131.214844 C 309.644531 130.90625 309.796875 130.445313 310.003906 129.835938 L 312.0625 123.859375 L 313.589844 123.859375 L 313.589844 132.449219 L 312.496094 132.449219 L 312.496094 125.261719 L 310 132.449219 L 308.972656 132.449219 L 306.488281 125.136719 L 306.488281 132.449219 Z M 318.96875 132.449219 L 317.914063 132.449219 L 317.914063 125.730469 C 317.660156 125.972656 317.328125 126.214844 316.914063 126.453125 C 316.5 126.699219 316.128906 126.878906 315.804688 127 L 315.804688 125.980469 C 316.394531 125.707031 316.910156 125.371094 317.351563 124.972656 C 317.792969 124.578125 318.105469 124.195313 318.289063 123.824219 L 318.96875 123.824219 Z M 321.175781 132.449219 "/>
<path style="fill-rule:nonzero;fill:rgb(0%,0%,0%);fill-opacity:1;stroke-width:0.25;stroke-linecap:butt;stroke-linejoin:miter;stroke:rgb(98.039216%,92.156863%,84.313725%);stroke-opacity:1;stroke-miterlimit:10;" d="M 305.394531 190.96875 L 305.394531 182.378906 L 307.105469 182.378906 L 309.136719 188.460938 C 309.320313 189.03125 309.457031 189.457031 309.550781 189.734375 C 309.644531 189.425781 309.796875 188.964844 310.003906 188.355469 L 312.0625 182.378906 L 313.589844 182.378906 L 313.589844 190.96875 L 312.496094 190.96875 L 312.496094 183.78125 L 310 190.96875 L 308.972656 190.96875 L 306.488281 183.65625 L 306.488281 190.96875 Z M 320.539063 189.953125 L 320.539063 190.96875 L 314.863281 190.96875 C 314.855469 190.714844 314.894531 190.472656 314.984375 190.234375 C 315.128906 189.851563 315.359375 189.46875 315.679688 189.09375 C 315.992188 188.71875 316.453125 188.285156 317.0625 187.792969 C 317.992188 187.027344 318.625 186.421875 318.953125 185.976563 C 319.28125 185.53125 319.445313 185.109375 319.445313 184.703125 C 319.445313 184.289063 319.292969 183.9375 318.996094 183.648438 C 318.691406 183.367188 318.304688 183.222656 317.828125 183.21875 C 317.320313 183.222656 316.914063 183.375 316.609375 183.675781 C 316.304688 183.984375 316.148438 184.40625 316.148438 184.9375 L 315.0625 184.828125 C 315.132813 184.023438 315.410156 183.410156 315.898438 182.980469 C 316.378906 182.558594 317.03125 182.34375 317.851563 182.34375 C 318.671875 182.34375 319.324219 182.574219 319.808594 183.03125 C 320.289063 183.488281 320.527344 184.054688 320.53125 184.726563 C 320.527344 185.074219 320.457031 185.410156 320.320313 185.742188 C 320.175781 186.078125 319.941406 186.429688 319.617188 186.792969 C 319.289063 187.164063 318.75 187.667969 317.992188 188.304688 C 317.359375 188.839844 316.953125 189.199219 316.773438 189.386719 C 316.59375 189.574219 316.445313 189.765625 316.328125 189.953125 Z M 321.175781 190.96875 "/>
<path style="fill-rule:nonzero;fill:rgb(0%,0%,0%);fill-opacity:1;stroke-width:0.25;stroke-linecap:butt;stroke-linejoin:miter;stroke:rgb(98.039216%,92.156863%,84.313725%);stroke-opacity:1;stroke-miterlimit:10;" d="M 383.421875 132.296875 L 383.421875 123.707031 L 385.132813 123.707031 L 387.164063 129.789063 C 387.347656 130.359375 387.484375 130.785156 387.578125 131.0625 C 387.671875 130.753906 387.824219 130.292969 388.03125 129.683594 L 390.089844 123.707031 L 391.617188 123.707031 L 391.617188 132.296875 L 390.523438 132.296875 L 390.523438 125.109375 L 388.027344 132.296875 L 387 132.296875 L 384.515625 124.984375 L 384.515625 132.296875 Z M 393.03125 130.03125 L 394.085938 129.890625 C 394.207031 130.488281 394.410156 130.917969 394.703125 131.183594 C 394.992188 131.449219 395.347656 131.582031 395.769531 131.578125 C 396.261719 131.582031 396.679688 131.410156 397.023438 131.0625 C 397.359375 130.722656 397.53125 130.296875 397.535156 129.78125 C 397.53125 129.300781 397.375 128.902344 397.0625 128.585938 C 396.746094 128.273438 396.34375 128.113281 395.855469 128.113281 C 395.65625 128.113281 395.40625 128.152344 395.113281 128.230469 L 395.230469 127.304688 C 395.292969 127.3125 395.351563 127.316406 395.398438 127.316406 C 395.847656 127.316406 396.25 127.199219 396.613281 126.964844 C 396.96875 126.730469 397.148438 126.371094 397.152344 125.882813 C 397.148438 125.496094 397.019531 125.175781 396.757813 124.921875 C 396.492188 124.667969 396.152344 124.539063 395.746094 124.539063 C 395.332031 124.539063 394.992188 124.667969 394.71875 124.925781 C 394.445313 125.183594 394.269531 125.570313 394.191406 126.085938 L 393.136719 125.898438 C 393.265625 125.191406 393.558594 124.644531 394.015625 124.253906 C 394.46875 123.867188 395.035156 123.671875 395.722656 123.671875 C 396.1875 123.671875 396.621094 123.773438 397.015625 123.972656 C 397.40625 124.175781 397.707031 124.449219 397.917969 124.796875 C 398.128906 125.148438 398.234375 125.519531 398.234375 125.90625 C 398.234375 126.277344 398.132813 126.613281 397.933594 126.917969 C 397.734375 127.222656 397.441406 127.464844 397.050781 127.644531 C 397.558594 127.761719 397.953125 128.007813 398.234375 128.375 C 398.515625 128.75 398.65625 129.210938 398.65625 129.757813 C 398.65625 130.511719 398.382813 131.148438 397.835938 131.667969 C 397.289063 132.191406 396.597656 132.449219 395.761719 132.449219 C 395.003906 132.449219 394.375 132.226563 393.882813 131.777344 C 393.382813 131.328125 393.101563 130.746094 393.03125 130.03125 Z M 399.203125 132.296875 "/>
<path style="fill-rule:nonzero;fill:rgb(0%,0%,0%);fill-opacity:1;stroke-width:0.25;stroke-linecap:butt;stroke-linejoin:miter;stroke:rgb(98.039216%,92.156863%,84.313725%);stroke-opacity:1;stroke-miterlimit:10;" d="M 461.449219 73.929688 L 461.449219 65.339844 L 463.160156 65.339844 L 465.191406 71.421875 C 465.375 71.992188 465.511719 72.417969 465.605469 72.695313 C 465.699219 72.386719 465.851563 71.925781 466.058594 71.316406 L 468.117188 65.339844 L 469.644531 65.339844 L 469.644531 73.929688 L 468.550781 73.929688 L 468.550781 66.742188 L 466.054688 73.929688 L 465.027344 73.929688 L 462.542969 66.617188 L 462.542969 73.929688 Z M 474.433594 73.929688 L 474.433594 71.875 L 470.707031 71.875 L 470.707031 70.90625 L 474.625 65.339844 L 475.488281 65.339844 L 475.488281 70.90625 L 476.648438 70.90625 L 476.648438 71.875 L 475.488281 71.875 L 475.488281 73.929688 Z M 474.433594 70.90625 L 474.433594 67.03125 L 471.742188 70.90625 Z M 477.230469 73.929688 "/>
<path style="fill-rule:nonzero;fill:rgb(0%,0%,0%);fill-opacity:1;stroke-width:0.25;stroke-linecap:butt;stroke-linejoin:miter;stroke:rgb(98.039216%,92.156863%,84.313725%);stroke-opacity:1;stroke-miterlimit:10;" d="M 461.449219 132.304688 L 461.449219 123.714844 L 463.160156 123.714844 L 465.191406 129.796875 C 465.375 130.367188 465.511719 130.792969 465.605469 131.070313 C 465.699219 130.761719 465.851563 130.300781 466.058594 129.691406 L 468.117188 123.714844 L 469.644531 123.714844 L 469.644531 132.304688 L 468.550781 132.304688 L 468.550781 125.117188 L 466.054688 132.304688 L 465.027344 132.304688 L 462.542969 124.992188 L 462.542969 132.304688 Z M 471.054688 130.054688 L 472.160156 129.960938 C 472.238281 130.5 472.425781 130.90625 472.730469 131.179688 C 473.027344 131.453125 473.390625 131.589844 473.8125 131.585938 C 474.320313 131.589844 474.75 131.398438 475.101563 131.011719 C 475.453125 130.632813 475.628906 130.125 475.628906 129.484375 C 475.628906 128.890625 475.457031 128.414063 475.121094 128.0625 C 474.78125 127.714844 474.339844 127.542969 473.796875 127.539063 C 473.453125 127.542969 473.148438 127.621094 472.875 127.773438 C 472.601563 127.929688 472.386719 128.128906 472.230469 128.375 L 471.242188 128.242188 L 472.070313 123.832031 L 476.34375 123.832031 L 476.34375 124.839844 L 472.914063 124.839844 L 472.453125 127.148438 C 472.96875 126.789063 473.507813 126.609375 474.078125 126.609375 C 474.824219 126.609375 475.457031 126.871094 475.976563 127.390625 C 476.488281 127.910156 476.746094 128.578125 476.75 129.390625 C 476.746094 130.171875 476.519531 130.84375 476.070313 131.40625 C 475.515625 132.105469 474.765625 132.449219 473.8125 132.453125 C 473.03125 132.449219 472.390625 132.234375 471.898438 131.796875 C 471.398438 131.363281 471.117188 130.78125 471.054688 130.054688 Z M 477.230469 132.304688 "/>
<path style="fill-rule:nonzero;fill:rgb(0%,0%,0%);fill-opacity:1;stroke-width:0.25;stroke-linecap:butt;stroke-linejoin:miter;stroke:rgb(98.039216%,92.156863%,84.313725%);stroke-opacity:1;stroke-miterlimit:10;" d="M 461.449219 132.304688 L 461.449219 123.714844 L 463.160156 123.714844 L 465.191406 129.796875 C 465.375 130.367188 465.511719 130.792969 465.605469 131.070313 C 465.699219 130.761719 465.851563 130.300781 466.058594 129.691406 L 468.117188 123.714844 L 469.644531 123.714844 L 469.644531 132.304688 L 468.550781 132.304688 L 468.550781 125.117188 L 466.054688 132.304688 L 465.027344 132.304688 L 462.542969 124.992188 L 462.542969 132.304688 Z M 476.523438 125.820313 L 475.476563 125.898438 C 475.382813 125.492188 475.25 125.191406 475.078125 125 C 474.789063 124.699219 474.4375 124.546875 474.023438 124.546875 C 473.6875 124.546875 473.390625 124.640625 473.140625 124.828125 C 472.804688 125.070313 472.542969 125.425781 472.351563 125.890625 C 472.160156 126.355469 472.0625 127.015625 472.054688 127.875 C 472.308594 127.492188 472.617188 127.207031 472.988281 127.015625 C 473.351563 126.832031 473.738281 126.738281 474.140625 126.734375 C 474.84375 126.738281 475.441406 126.996094 475.9375 127.511719 C 476.429688 128.027344 476.675781 128.695313 476.679688 129.515625 C 476.675781 130.054688 476.558594 130.558594 476.328125 131.019531 C 476.09375 131.484375 475.777344 131.835938 475.371094 132.082031 C 474.964844 132.328125 474.503906 132.449219 473.988281 132.453125 C 473.109375 132.449219 472.390625 132.128906 471.839844 131.484375 C 471.28125 130.835938 471.003906 129.769531 471.007813 128.285156 C 471.003906 126.628906 471.3125 125.421875 471.925781 124.664063 C 472.457031 124.007813 473.175781 123.679688 474.085938 123.679688 C 474.761719 123.679688 475.316406 123.871094 475.75 124.25 C 476.179688 124.628906 476.4375 125.152344 476.523438 125.820313 Z M 472.21875 129.523438 C 472.21875 129.886719 472.292969 130.234375 472.449219 130.566406 C 472.597656 130.898438 472.816406 131.152344 473.097656 131.324219 C 473.375 131.503906 473.664063 131.589844 473.96875 131.585938 C 474.414063 131.589844 474.796875 131.410156 475.121094 131.046875 C 475.4375 130.691406 475.597656 130.203125 475.601563 129.578125 C 475.597656 128.988281 475.441406 128.519531 475.125 128.175781 C 474.804688 127.835938 474.40625 127.664063 473.929688 127.664063 C 473.453125 127.664063 473.046875 127.835938 472.714844 128.175781 C 472.382813 128.519531 472.21875 128.96875 472.21875 129.523438 Z M 477.230469 132.304688 "/>
<path style="fill-rule:nonzero;fill:rgb(0%,0%,0%);fill-opacity:1;stroke-width:0.25;stroke-linecap:butt;stroke-linejoin:miter;stroke:rgb(98.039216%,92.156863%,84.313725%);stroke-opacity:1;stroke-miterlimit:10;" d="M 461.449219 190.96875 L 461.449219 182.378906 L 463.160156 182.378906 L 465.191406 188.460938 C 465.375 189.03125 465.511719 189.457031 465.605469 189.734375 C 465.699219 189.425781 465.851563 188.964844 466.058594 188.355469 L 468.117188 182.378906 L 469.644531 182.378906 L 469.644531 190.96875 L 468.550781 190.96875 L 468.550781 183.78125 L 466.054688 190.96875 L 465.027344 190.96875 L 462.542969 183.65625 L 462.542969 190.96875 Z M 471.125 183.503906 L 471.125 182.492188 L 476.683594 182.492188 L 476.683594 183.3125 C 476.136719 183.894531 475.59375 184.667969 475.054688 185.632813 C 474.515625 186.597656 474.101563 187.589844 473.8125 188.609375 C 473.601563 189.332031 473.464844 190.117188 473.40625 190.96875 L 472.324219 190.96875 C 472.335938 190.292969 472.46875 189.476563 472.722656 188.519531 C 472.972656 187.566406 473.335938 186.644531 473.8125 185.753906 C 474.289063 184.863281 474.792969 184.113281 475.328125 183.503906 Z M 477.230469 190.96875 "/>
<path style="fill-rule:nonzero;fill:rgb(0%,0%,0%);fill-opacity:1;stroke-width:0.25;stroke-linecap:butt;stroke-linejoin:miter;stroke:rgb(98.039216%,92.156863%,84.313725%);stroke-opacity:1;stroke-miterlimit:10;" d="M 539.476563 132.304688 L 539.476563 123.714844 L 541.1875 123.714844 L 543.21875 129.796875 C 543.402344 130.367188 543.539063 130.792969 543.632813 131.070313 C 543.726563 130.761719 543.878906 130.300781 544.085938 129.691406 L 546.144531 123.714844 L 547.671875 123.714844 L 547.671875 132.304688 L 546.578125 132.304688 L 546.578125 125.117188 L 544.082031 132.304688 L 543.054688 132.304688 L 540.570313 124.992188 L 540.570313 132.304688 Z M 550.703125 127.648438 C 550.265625 127.488281 549.941406 127.257813 549.730469 126.960938 C 549.519531 126.664063 549.414063 126.308594 549.414063 125.894531 C 549.414063 125.269531 549.636719 124.746094 550.085938 124.320313 C 550.535156 123.894531 551.132813 123.679688 551.878906 123.679688 C 552.625 123.679688 553.230469 123.898438 553.691406 124.332031 C 554.148438 124.769531 554.375 125.300781 554.378906 125.921875 C 554.375 126.328125 554.269531 126.675781 554.0625 126.964844 C 553.851563 127.261719 553.535156 127.488281 553.113281 127.648438 C 553.636719 127.824219 554.039063 128.101563 554.316406 128.480469 C 554.589844 128.867188 554.726563 129.324219 554.730469 129.851563 C 554.726563 130.589844 554.46875 131.207031 553.949219 131.703125 C 553.425781 132.203125 552.742188 132.449219 551.898438 132.453125 C 551.050781 132.449219 550.367188 132.203125 549.847656 131.699219 C 549.324219 131.199219 549.0625 130.570313 549.066406 129.820313 C 549.0625 129.265625 549.203125 128.800781 549.492188 128.417969 C 549.773438 128.042969 550.179688 127.785156 550.703125 127.648438 Z M 550.492188 125.859375 C 550.492188 126.265625 550.621094 126.597656 550.882813 126.855469 C 551.144531 127.113281 551.484375 127.242188 551.902344 127.242188 C 552.304688 127.242188 552.636719 127.117188 552.902344 126.859375 C 553.160156 126.609375 553.292969 126.292969 553.292969 125.917969 C 553.292969 125.53125 553.15625 125.207031 552.890625 124.941406 C 552.617188 124.679688 552.285156 124.546875 551.894531 124.546875 C 551.488281 124.546875 551.15625 124.675781 550.890625 124.933594 C 550.625 125.191406 550.492188 125.5 550.492188 125.859375 Z M 550.152344 129.828125 C 550.152344 130.128906 550.222656 130.417969 550.367188 130.699219 C 550.507813 130.980469 550.71875 131.199219 551.003906 131.355469 C 551.28125 131.511719 551.585938 131.589844 551.910156 131.585938 C 552.414063 131.589844 552.828125 131.425781 553.160156 131.097656 C 553.484375 130.773438 553.648438 130.363281 553.652344 129.859375 C 553.648438 129.359375 553.480469 128.9375 553.144531 128.601563 C 552.804688 128.269531 552.382813 128.105469 551.875 128.101563 C 551.375 128.105469 550.960938 128.269531 550.640625 128.59375 C 550.3125 128.925781 550.152344 129.335938 550.152344 129.828125 Z M 555.257813 132.304688 "/>
<path style="fill-rule:nonzero;fill:rgb(28.235294%,46.27451%,100%);fill-opacity:1;stroke-width:0.25;stroke-linecap:butt;stroke-linejoin:miter;stroke:rgb(98.039216%,92.156863%,84.313725%);stroke-opacity:1;stroke-miterlimit:10;" d="M 196.582031 220.59375 L 196.582031 212.003906 L 200.386719 212.003906 C 201.148438 212.003906 201.730469 212.082031 202.132813 212.238281 C 202.527344 212.394531 202.847656 212.667969 203.089844 213.054688 C 203.328125 213.449219 203.445313 213.878906 203.449219 214.347656 C 203.445313 214.957031 203.25 215.472656 202.855469 215.890625 C 202.457031 216.308594 201.847656 216.574219 201.027344 216.6875 C 201.328125 216.832031 201.554688 216.972656 201.714844 217.113281 C 202.042969 217.417969 202.359375 217.800781 202.65625 218.257813 L 204.152344 220.59375 L 202.722656 220.59375 L 201.582031 218.804688 C 201.25 218.292969 200.976563 217.898438 200.761719 217.621094 C 200.546875 217.351563 200.355469 217.160156 200.1875 217.046875 C 200.015625 216.941406 199.84375 216.863281 199.667969 216.820313 C 199.535156 216.796875 199.324219 216.785156 199.035156 216.78125 L 197.714844 216.78125 L 197.714844 220.59375 Z M 197.714844 215.796875 L 200.160156 215.796875 C 200.679688 215.800781 201.085938 215.746094 201.378906 215.636719 C 201.667969 215.527344 201.890625 215.355469 202.046875 215.121094 C 202.199219 214.886719 202.273438 214.628906 202.277344 214.347656 C 202.273438 213.941406 202.125 213.609375 201.832031 213.347656 C 201.535156 213.085938 201.070313 212.953125 200.433594 212.953125 L 197.714844 212.953125 Z M 205.285156 220.59375 L 205.285156 212.003906 L 211.082031 212.003906 L 211.082031 213.015625 L 206.421875 213.015625 L 206.421875 215.679688 L 210.453125 215.679688 L 210.453125 216.691406 L 206.421875 216.691406 L 206.421875 220.59375 Z M 216.101563 220.59375 L 215.046875 220.59375 L 215.046875 213.875 C 214.792969 214.117188 214.460938 214.359375 214.046875 214.597656 C 213.632813 214.84375 213.261719 215.023438 212.9375 215.144531 L 212.9375 214.125 C 213.527344 213.851563 214.042969 213.515625 214.484375 213.117188 C 214.925781 212.722656 215.238281 212.339844 215.421875 211.96875 L 216.101563 211.96875 Z M 218.304688 220.59375 "/>
<path style="fill-rule:nonzero;fill:rgb(28.235294%,46.27451%,100%);fill-opacity:1;stroke-width:0.25;stroke-linecap:butt;stroke-linejoin:miter;stroke:rgb(98.039216%,92.156863%,84.313725%);stroke-opacity:1;stroke-miterlimit:10;" d="M 535.871094 250.59375 L 535.871094 242.003906 L 539.675781 242.003906 C 540.4375 242.003906 541.019531 242.082031 541.421875 242.238281 C 541.816406 242.394531 542.136719 242.667969 542.378906 243.054688 C 542.617188 243.449219 542.734375 243.878906 542.738281 244.347656 C 542.734375 244.957031 542.539063 245.472656 542.144531 245.890625 C 541.746094 246.308594 541.136719 246.574219 540.316406 246.6875 C 540.617188 246.832031 540.84375 246.972656 541.003906 247.113281 C 541.332031 247.417969 541.648438 247.800781 541.945313 248.257813 L 543.441406 250.59375 L 542.011719 250.59375 L 540.871094 248.804688 C 540.539063 248.292969 540.265625 247.898438 540.050781 247.621094 C 539.835938 247.351563 539.644531 247.160156 539.476563 247.046875 C 539.304688 246.941406 539.132813 246.863281 538.957031 246.820313 C 538.824219 246.796875 538.613281 246.785156 538.324219 246.78125 L 537.003906 246.78125 L 537.003906 250.59375 Z M 537.003906 245.796875 L 539.449219 245.796875 C 539.96875 245.800781 540.375 245.746094 540.667969 245.636719 C 540.957031 245.527344 541.179688 245.355469 541.335938 245.121094 C 541.488281 244.886719 541.5625 244.628906 541.566406 244.347656 C 541.5625 243.941406 541.414063 243.609375 541.121094 243.347656 C 540.824219 243.085938 540.359375 242.953125 539.722656 242.953125 L 537.003906 242.953125 Z M 544.574219 250.59375 L 544.574219 242.003906 L 550.371094 242.003906 L 550.371094 243.015625 L 545.710938 243.015625 L 545.710938 245.679688 L 549.742188 245.679688 L 549.742188 246.691406 L 545.710938 246.691406 L 545.710938 250.59375 Z M 556.960938 249.578125 L 556.960938 250.59375 L 551.285156 250.59375 C 551.277344 250.339844 551.316406 250.097656 551.40625 249.859375 C 551.550781 249.476563 551.78125 249.09375 552.101563 248.71875 C 552.414063 248.34375 552.875 247.910156 553.484375 247.417969 C 554.414063 246.652344 555.046875 246.046875 555.375 245.601563 C 555.703125 245.15625 555.867188 244.734375 555.867188 244.328125 C 555.867188 243.914063 555.714844 243.5625 555.417969 243.273438 C 555.113281 242.992188 554.726563 242.847656 554.25 242.84375 C 553.742188 242.847656 553.335938 243 553.03125 243.300781 C 552.726563 243.609375 552.570313 244.03125 552.570313 244.5625 L 551.484375 244.453125 C 551.554688 243.648438 551.832031 243.035156 552.320313 242.605469 C 552.800781 242.183594 553.453125 241.96875 554.273438 241.96875 C 555.09375 241.96875 555.746094 242.199219 556.230469 242.65625 C 556.710938 243.113281 556.949219 243.679688 556.953125 244.351563 C 556.949219 244.699219 556.878906 245.035156 556.742188 245.367188 C 556.597656 245.703125 556.363281 246.054688 556.039063 246.417969 C 555.710938 246.789063 555.171875 247.292969 554.414063 247.929688 C 553.78125 248.464844 553.375 248.824219 553.195313 249.011719 C 553.015625 249.199219 552.867188 249.390625 552.75 249.578125 Z M 557.59375 250.59375 "/>
<path style="fill-rule:nonzero;fill:rgb(78.039216%,8.235294%,52.156863%);fill-opacity:1;stroke-width:0.25;stroke-linecap:butt;stroke-linejoin:miter;stroke:rgb(98.039216%,92.156863%,84.313725%);stroke-opacity:1;stroke-miterlimit:10;" d="M 355.714844 175.59375 L 355.714844 167.003906 L 361.511719 167.003906 L 361.511719 168.015625 L 356.851563 168.015625 L 356.851563 170.679688 L 360.882813 170.679688 L 360.882813 171.691406 L 356.851563 171.691406 L 356.851563 175.59375 Z M 366.53125 175.59375 L 365.476563 175.59375 L 365.476563 168.875 C 365.222656 169.117188 364.890625 169.359375 364.476563 169.597656 C 364.0625 169.84375 363.691406 170.023438 363.367188 170.144531 L 363.367188 169.125 C 363.957031 168.851563 364.472656 168.515625 364.914063 168.117188 C 365.355469 167.722656 365.667969 167.339844 365.851563 166.96875 L 366.53125 166.96875 Z M 368.734375 175.59375 "/>
<path style="fill-rule:nonzero;fill:rgb(78.039216%,8.235294%,52.156863%);fill-opacity:1;stroke-width:0.25;stroke-linecap:butt;stroke-linejoin:miter;stroke:rgb(98.039216%,92.156863%,84.313725%);stroke-opacity:1;stroke-miterlimit:10;" d="M 470.199219 98.554688 L 470.199219 89.964844 L 475.996094 89.964844 L 475.996094 90.976563 L 471.335938 90.976563 L 471.335938 93.640625 L 475.367188 93.640625 L 475.367188 94.652344 L 471.335938 94.652344 L 471.335938 98.554688 Z M 482.585938 97.539063 L 482.585938 98.554688 L 476.910156 98.554688 C 476.902344 98.300781 476.941406 98.058594 477.03125 97.820313 C 477.175781 97.4375 477.40625 97.054688 477.726563 96.679688 C 478.039063 96.304688 478.5 95.871094 479.109375 95.378906 C 480.039063 94.613281 480.671875 94.007813 481 93.5625 C 481.328125 93.117188 481.492188 92.695313 481.492188 92.289063 C 481.492188 91.875 481.339844 91.523438 481.042969 91.234375 C 480.738281 90.953125 480.351563 90.808594 479.875 90.804688 C 479.367188 90.808594 478.960938 90.960938 478.65625 91.261719 C 478.351563 91.570313 478.195313 91.992188 478.195313 92.523438 L 477.109375 92.414063 C 477.179688 91.609375 477.457031 90.996094 477.945313 90.566406 C 478.425781 90.144531 479.078125 89.929688 479.898438 89.929688 C 480.71875 89.929688 481.371094 90.160156 481.855469 90.617188 C 482.335938 91.074219 482.574219 91.640625 482.578125 92.3125 C 482.574219 92.660156 482.503906 92.996094 482.367188 93.328125 C 482.222656 93.664063 481.988281 94.015625 481.664063 94.378906 C 481.335938 94.75 480.796875 95.253906 480.039063 95.890625 C 479.40625 96.425781 479 96.785156 478.820313 96.972656 C 478.640625 97.160156 478.492188 97.351563 478.375 97.539063 Z M 483.21875 98.554688 "/>
</g>
</svg>
