<?xml version="1.0" encoding="UTF-8"?>
<svg xmlns="http://www.w3.org/2000/svg" xmlns:xlink="http://www.w3.org/1999/xlink" width="749.063342pt" height="280.898753pt" viewBox="0 0 749.063342 280.898753" version="1.1">
<g id="surface181">
<rect x="0" y="0" width="749.063342" height="280.898753" style="fill:rgb(98.039216%,92.156863%,84.313725%);fill-opacity:1;stroke:none;"/>
<path style="fill:none;stroke-width:2;stroke-linecap:butt;stroke-linejoin:miter;stroke:rgb(0%,0%,0%);stroke-opacity:1;stroke-miterlimit:10;" d="M 166.457031 218.476563 L 374.53125 62.421875 "/>
<path style="fill:none;stroke-width:2;stroke-linecap:butt;stroke-linejoin:miter;stroke:rgb(0%,0%,0%);stroke-opacity:1;stroke-miterlimit:10;" d="M 166.457031 218.476563 L 374.53125 218.476563 "/>
<path style="fill:none;stroke-width:2;stroke-linecap:butt;stroke-linejoin:miter;stroke:rgb(0%,0%,0%);stroke-opacity:1;stroke-miterlimit:10;" d="M 374.53125 218.476563 L 374.53125 62.421875 "/>
<path style="fill:none;stroke-width:2;stroke-linecap:butt;stroke-linejoin:miter;stroke:rgb(0%,0%,0%);stroke-opacity:1;stroke-miterlimit:10;" d="M 374.53125 62.421875 L 582.605469 62.421875 "/>
<path style="fill:none;stroke-width:2;stroke-linecap:butt;stroke-linejoin:miter;stroke:rgb(0%,0%,0%);stroke-opacity:1;stroke-miterlimit:10;" d="M 374.53125 62.421875 L 582.605469 218.476563 "/>
<path style="fill:none;stroke-width:2;stroke-linecap:butt;stroke-linejoin:miter;stroke:rgb(0%,0%,0%);stroke-opacity:1;stroke-miterlimit:10;" d="M 374.53125 218.476563 L 582.605469 62.421875 "/>
<path style="fill:none;stroke-width:2;stroke-linecap:butt;stroke-linejoin:miter;stroke:rgb(0%,0%,0%);stroke-opacity:1;stroke-miterlimit:10;" d="M 374.53125 218.476563 L 582.605469 218.476563 "/>
<path style="fill:none;stroke-width:2;stroke-linecap:butt;stroke-linejoin:miter;stroke:rgb(0%,0%,0%);stroke-opacity:1;stroke-miterlimit:10;" d="M 582.605469 218.476563 L 582.605469 62.421875 "/>
<path style="fill:none;stroke-width:4;stroke-linecap:butt;stroke-linejoin:miter;stroke:rgb(78.039216%,8.235294%,52.156863%);stroke-opacity:1;stroke-miterlimit:10;" d="M 374.53125 218.476563 L 374.53125 307.824219 "/>
<path style="fill:none;stroke-width:4;stroke-linecap:butt;stroke-linejoin:miter;stroke:rgb(78.039216%,8.235294%,52.156863%);stroke-opacity:1;stroke-miterlimit:10;" d="M 582.605469 62.421875 L 618.617188 62.421875 "/>
<path style=" stroke:none;fill-rule:nonzero;fill:rgb(78.039216%,8.235294%,52.156863%);fill-opacity:1;" d="M 618.617188 52.421875 L 635.9375 62.421875 L 618.617188 72.421875 "/>
<path style="fill:none;stroke-width:2;stroke-linecap:butt;stroke-linejoin:miter;stroke:rgb(0%,50.196078%,0%);stroke-opacity:1;stroke-miterlimit:10;" d="M 172.457031 218.476563 C 172.457031 221.789063 169.773438 224.476563 166.457031 224.476563 C 163.144531 224.476563 160.457031 221.789063 160.457031 218.476563 C 160.457031 215.164063 163.144531 212.476563 166.457031 212.476563 C 169.773438 212.476563 172.457031 215.164063 172.457031 218.476563 "/>
<path style="fill:none;stroke-width:2;stroke-linecap:butt;stroke-linejoin:miter;stroke:rgb(0%,50.196078%,0%);stroke-opacity:1;stroke-miterlimit:10;" d="M 588.605469 218.476563 C 588.605469 221.789063 585.917969 224.476563 582.605469 224.476563 C 579.292969 224.476563 576.605469 221.789063 576.605469 218.476563 C 576.605469 215.164063 579.292969 212.476563 582.605469 212.476563 C 585.917969 212.476563 588.605469 215.164063 588.605469 218.476563 "/>
<path style=" stroke:none;fill-rule:nonzero;fill:rgb(0%,0%,0%);fill-opacity:1;" d="M 170.457031 218.476563 C 170.457031 223.808594 162.457031 223.808594 162.457031 218.476563 C 162.457031 213.144531 170.457031 213.144531 170.457031 218.476563 "/>
<path style=" stroke:none;fill-rule:nonzero;fill:rgb(0%,0%,0%);fill-opacity:1;" d="M 378.53125 218.476563 C 378.53125 223.808594 370.53125 223.808594 370.53125 218.476563 C 370.53125 213.144531 378.53125 213.144531 378.53125 218.476563 "/>
<path style=" stroke:none;fill-rule:nonzero;fill:rgb(0%,0%,0%);fill-opacity:1;" d="M 378.53125 62.421875 C 378.53125 67.753906 370.53125 67.753906 370.53125 62.421875 C 370.53125 57.089844 378.53125 57.089844 378.53125 62.421875 "/>
<path style=" stroke:none;fill-rule:nonzero;fill:rgb(0%,0%,0%);fill-opacity:1;" d="M 586.605469 218.476563 C 586.605469 223.808594 578.605469 223.808594 578.605469 218.476563 C 578.605469 213.144531 586.605469 213.144531 586.605469 218.476563 "/>
<path style=" stroke:none;fill-rule:nonzero;fill:rgb(0%,0%,0%);fill-opacity:1;" d="M 586.605469 62.421875 C 586.605469 67.753906 578.605469 67.753906 578.605469 62.421875 C 578.605469 57.089844 586.605469 57.089844 586.605469 62.421875 "/>
<path style="fill-rule:nonzero;fill:rgb(0%,0%,0%);fill-opacity:1;stroke-width:0.25;stroke-linecap:butt;stroke-linejoin:miter;stroke:rgb(98.039216%,92.156863%,84.313725%);stroke-opacity:1;stroke-miterlimit:10;" d="M 174.917969 207.03125 L 176.285156 206.84375 C 176.320313 207.722656 176.484375 208.320313 176.777344 208.640625 C 177.066406 208.964844 177.46875 209.128906 177.988281 209.125 C 178.367188 209.128906 178.695313 209.039063 178.972656 208.863281 C 179.246094 208.691406 179.4375 208.457031 179.542969 208.152344 C 179.644531 207.855469 179.695313 207.375 179.699219 206.71875 L 179.699219 198.828125 L 181.214844 198.828125 L 181.214844 206.632813 C 181.210938 207.59375 181.097656 208.335938 180.867188 208.859375 C 180.632813 209.386719 180.265625 209.789063 179.765625 210.0625 C 179.261719 210.339844 178.671875 210.472656 177.996094 210.476563 C 176.988281 210.472656 176.21875 210.1875 175.6875 209.609375 C 175.152344 209.035156 174.894531 208.175781 174.917969 207.03125 Z M 188.417969 210.28125 L 187.011719 210.28125 L 187.011719 201.320313 C 186.667969 201.648438 186.226563 201.96875 185.679688 202.289063 C 185.128906 202.613281 184.632813 202.855469 184.199219 203.015625 L 184.199219 201.65625 C 184.980469 201.289063 185.667969 200.84375 186.261719 200.3125 C 186.847656 199.789063 187.265625 199.277344 187.511719 198.78125 L 188.417969 198.78125 Z M 191.355469 210.28125 "/>
<path style="fill-rule:nonzero;fill:rgb(0%,0%,0%);fill-opacity:1;stroke-width:0.25;stroke-linecap:butt;stroke-linejoin:miter;stroke:rgb(98.039216%,92.156863%,84.313725%);stroke-opacity:1;stroke-miterlimit:10;" d="M 382.992188 207.03125 L 384.359375 206.84375 C 384.394531 207.722656 384.558594 208.320313 384.851563 208.640625 C 385.140625 208.964844 385.542969 209.128906 386.0625 209.125 C 386.441406 209.128906 386.769531 209.039063 387.046875 208.863281 C 387.320313 208.691406 387.511719 208.457031 387.617188 208.152344 C 387.71875 207.855469 387.769531 207.375 387.773438 206.71875 L 387.773438 198.828125 L 389.289063 198.828125 L 389.289063 206.632813 C 389.285156 207.59375 389.171875 208.335938 388.941406 208.859375 C 388.707031 209.386719 388.339844 209.789063 387.839844 210.0625 C 387.335938 210.339844 386.746094 210.472656 386.070313 210.476563 C 385.0625 210.472656 384.292969 210.1875 383.761719 209.609375 C 383.226563 209.035156 382.96875 208.175781 382.992188 207.03125 Z M 398.585938 208.929688 L 398.585938 210.28125 L 391.015625 210.28125 C 391.003906 209.945313 391.058594 209.621094 391.179688 209.304688 C 391.371094 208.792969 391.679688 208.285156 392.105469 207.78125 C 392.527344 207.285156 393.140625 206.707031 393.945313 206.046875 C 395.1875 205.027344 396.027344 204.21875 396.46875 203.621094 C 396.902344 203.027344 397.121094 202.464844 397.125 201.929688 C 397.121094 201.375 396.921875 200.902344 396.527344 200.519531 C 396.125 200.136719 395.605469 199.945313 394.96875 199.945313 C 394.289063 199.945313 393.75 200.148438 393.34375 200.554688 C 392.9375 200.960938 392.730469 201.523438 392.726563 202.242188 L 391.28125 202.09375 C 391.378906 201.019531 391.75 200.195313 392.398438 199.628906 C 393.042969 199.066406 393.910156 198.785156 395 198.78125 C 396.097656 198.785156 396.96875 199.089844 397.609375 199.695313 C 398.25 200.308594 398.570313 201.0625 398.570313 201.960938 C 398.570313 202.421875 398.476563 202.875 398.289063 203.3125 C 398.101563 203.757813 397.789063 204.222656 397.355469 204.710938 C 396.917969 205.203125 396.195313 205.875 395.1875 206.726563 C 394.339844 207.4375 393.796875 207.917969 393.5625 208.167969 C 393.320313 208.421875 393.125 208.675781 392.96875 208.929688 Z M 399.429688 210.28125 "/>
<path style="fill-rule:nonzero;fill:rgb(0%,0%,0%);fill-opacity:1;stroke-width:0.25;stroke-linecap:butt;stroke-linejoin:miter;stroke:rgb(98.039216%,92.156863%,84.313725%);stroke-opacity:1;stroke-miterlimit:10;" d="M 382.992188 50.96875 L 384.359375 50.78125 C 384.394531 51.660156 384.558594 52.257813 384.851563 52.578125 C 385.140625 52.902344 385.542969 53.066406 386.0625 53.0625 C 386.441406 53.066406 386.769531 52.976563 387.046875 52.800781 C 387.320313 52.628906 387.511719 52.394531 387.617188 52.089844 C 387.71875 51.792969 387.769531 51.3125 387.773438 50.65625 L 387.773438 42.765625 L 389.289063 42.765625 L 389.289063 50.570313 C 389.285156 51.53125 389.171875 52.273438 388.941406 52.796875 C 388.707031 53.324219 388.339844 53.726563 387.839844 54 C 387.335938 54.277344 386.746094 54.410156 386.070313 54.414063 C 385.0625 54.410156 384.292969 54.125 383.761719 53.546875 C 383.226563 52.972656 382.96875 52.113281 382.992188 50.96875 Z M 391.203125 51.195313 L 392.609375 51.007813 C 392.769531 51.804688 393.042969 52.378906 393.433594 52.730469 C 393.816406 53.082031 394.289063 53.257813 394.851563 53.257813 C 395.507813 53.257813 396.066406 53.03125 396.527344 52.570313 C 396.980469 52.117188 397.210938 51.546875 397.210938 50.867188 C 397.210938 50.222656 397 49.691406 396.578125 49.269531 C 396.15625 48.851563 395.617188 48.640625 394.96875 48.640625 C 394.699219 48.640625 394.371094 48.695313 393.976563 48.796875 L 394.132813 47.5625 C 394.222656 47.574219 394.296875 47.582031 394.359375 47.578125 C 394.953125 47.582031 395.492188 47.425781 395.976563 47.109375 C 396.453125 46.800781 396.695313 46.316406 396.695313 45.664063 C 396.695313 45.148438 396.519531 44.722656 396.171875 44.382813 C 395.820313 44.046875 395.371094 43.878906 394.820313 43.875 C 394.273438 43.878906 393.816406 44.050781 393.453125 44.390625 C 393.085938 44.738281 392.851563 45.253906 392.75 45.9375 L 391.34375 45.6875 C 391.511719 44.746094 391.902344 44.015625 392.515625 43.496094 C 393.121094 42.980469 393.878906 42.722656 394.789063 42.71875 C 395.410156 42.722656 395.984375 42.855469 396.515625 43.121094 C 397.039063 43.390625 397.441406 43.757813 397.722656 44.21875 C 397.996094 44.683594 398.136719 45.175781 398.140625 45.695313 C 398.136719 46.191406 398.003906 46.640625 397.742188 47.046875 C 397.472656 47.453125 397.078125 47.777344 396.5625 48.015625 C 397.234375 48.175781 397.761719 48.5 398.140625 48.988281 C 398.511719 49.484375 398.699219 50.101563 398.703125 50.835938 C 398.699219 51.839844 398.335938 52.6875 397.609375 53.378906 C 396.878906 54.074219 395.957031 54.417969 394.84375 54.421875 C 393.835938 54.417969 393 54.121094 392.339844 53.523438 C 391.671875 52.925781 391.292969 52.148438 391.203125 51.195313 Z M 399.429688 54.21875 "/>
<path style="fill-rule:nonzero;fill:rgb(0%,0%,0%);fill-opacity:1;stroke-width:0.25;stroke-linecap:butt;stroke-linejoin:miter;stroke:rgb(98.039216%,92.156863%,84.313725%);stroke-opacity:1;stroke-miterlimit:10;" d="M 591.066406 207.03125 L 592.433594 206.84375 C 592.46875 207.722656 592.632813 208.320313 592.925781 208.640625 C 593.214844 208.964844 593.617188 209.128906 594.136719 209.125 C 594.515625 209.128906 594.84375 209.039063 595.121094 208.863281 C 595.394531 208.691406 595.585938 208.457031 595.691406 208.152344 C 595.792969 207.855469 595.84375 207.375 595.847656 206.71875 L 595.847656 198.828125 L 597.363281 198.828125 L 597.363281 206.632813 C 597.359375 207.59375 597.246094 208.335938 597.015625 208.859375 C 596.78125 209.386719 596.414063 209.789063 595.914063 210.0625 C 595.410156 210.339844 594.820313 210.472656 594.144531 210.476563 C 593.136719 210.472656 592.367188 210.1875 591.835938 209.609375 C 591.300781 209.035156 591.042969 208.175781 591.066406 207.03125 Z M 603.777344 210.28125 L 603.777344 207.539063 L 598.808594 207.539063 L 598.808594 206.25 L 604.035156 198.828125 L 605.183594 198.828125 L 605.183594 206.25 L 606.730469 206.25 L 606.730469 207.539063 L 605.183594 207.539063 L 605.183594 210.28125 Z M 603.777344 206.25 L 603.777344 201.085938 L 600.191406 206.25 Z M 607.503906 210.28125 "/>
<path style="fill-rule:nonzero;fill:rgb(0%,0%,0%);fill-opacity:1;stroke-width:0.25;stroke-linecap:butt;stroke-linejoin:miter;stroke:rgb(98.039216%,92.156863%,84.313725%);stroke-opacity:1;stroke-miterlimit:10;" d="M 591.066406 50.976563 L 592.433594 50.789063 C 592.46875 51.667969 592.632813 52.265625 592.925781 52.585938 C 593.214844 52.910156 593.617188 53.074219 594.136719 53.070313 C 594.515625 53.074219 594.84375 52.984375 595.121094 52.808594 C 595.394531 52.636719 595.585938 52.402344 595.691406 52.097656 C 595.792969 51.800781 595.84375 51.320313 595.847656 50.664063 L 595.847656 42.773438 L 597.363281 42.773438 L 597.363281 50.578125 C 597.359375 51.539063 597.246094 52.28125 597.015625 52.804688 C 596.78125 53.332031 596.414063 53.734375 595.914063 54.007813 C 595.410156 54.285156 594.820313 54.417969 594.144531 54.421875 C 593.136719 54.417969 592.367188 54.132813 591.835938 53.554688 C 591.300781 52.980469 591.042969 52.121094 591.066406 50.976563 Z M 599.269531 51.226563 L 600.746094 51.101563 C 600.851563 51.824219 601.105469 52.363281 601.507813 52.722656 C 601.902344 53.085938 602.382813 53.265625 602.949219 53.265625 C 603.621094 53.265625 604.195313 53.011719 604.667969 52.5 C 605.132813 51.992188 605.367188 51.316406 605.371094 50.46875 C 605.367188 49.671875 605.140625 49.039063 604.695313 48.570313 C 604.242188 48.109375 603.652344 47.875 602.925781 47.875 C 602.46875 47.875 602.0625 47.980469 601.699219 48.183594 C 601.332031 48.394531 601.042969 48.660156 600.839844 48.984375 L 599.519531 48.8125 L 600.628906 42.929688 L 606.324219 42.929688 L 606.324219 44.273438 L 601.753906 44.273438 L 601.136719 47.351563 C 601.824219 46.875 602.542969 46.632813 603.300781 46.632813 C 604.296875 46.632813 605.140625 46.980469 605.832031 47.671875 C 606.515625 48.367188 606.859375 49.257813 606.863281 50.34375 C 606.859375 51.382813 606.558594 52.277344 605.957031 53.03125 C 605.21875 53.957031 604.214844 54.417969 602.949219 54.421875 C 601.902344 54.417969 601.054688 54.128906 600.398438 53.546875 C 599.738281 52.964844 599.359375 52.191406 599.269531 51.226563 Z M 607.503906 54.226563 "/>
<path style="fill-rule:nonzero;fill:rgb(0%,0%,0%);fill-opacity:1;stroke-width:0.25;stroke-linecap:butt;stroke-linejoin:miter;stroke:rgb(98.039216%,92.156863%,84.313725%);stroke-opacity:1;stroke-miterlimit:10;" d="M 279.683594 132.449219 L 279.683594 120.996094 L 281.964844 120.996094 L 284.675781 129.105469 C 284.921875 129.863281 285.105469 130.429688 285.222656 130.800781 C 285.351563 130.386719 285.554688 129.773438 285.832031 128.964844 L 288.574219 120.996094 L 290.613281 120.996094 L 290.613281 132.449219 L 289.152344 132.449219 L 289.152344 122.863281 L 285.824219 132.449219 L 284.457031 132.449219 L 281.144531 122.699219 L 281.144531 132.449219 Z M 297.785156 132.449219 L 296.378906 132.449219 L 296.378906 123.488281 C 296.035156 123.816406 295.59375 124.136719 295.046875 124.457031 C 294.496094 124.78125 294 125.023438 293.566406 125.183594 L 293.566406 123.824219 C 294.347656 123.457031 295.035156 123.011719 295.628906 122.480469 C 296.214844 121.957031 296.632813 121.445313 296.878906 120.949219 L 297.785156 120.949219 Z M 300.722656 132.449219 "/>
<path style="fill-rule:nonzero;fill:rgb(0%,0%,0%);fill-opacity:1;stroke-width:0.25;stroke-linecap:butt;stroke-linejoin:miter;stroke:rgb(98.039216%,92.156863%,84.313725%);stroke-opacity:1;stroke-miterlimit:10;" d="M 279.683594 210.476563 L 279.683594 199.023438 L 281.964844 199.023438 L 284.675781 207.132813 C 284.921875 207.890625 285.105469 208.457031 285.222656 208.828125 C 285.351563 208.414063 285.554688 207.800781 285.832031 206.992188 L 288.574219 199.023438 L 290.613281 199.023438 L 290.613281 210.476563 L 289.152344 210.476563 L 289.152344 200.890625 L 285.824219 210.476563 L 284.457031 210.476563 L 281.144531 200.726563 L 281.144531 210.476563 Z M 299.878906 209.125 L 299.878906 210.476563 L 292.308594 210.476563 C 292.296875 210.140625 292.351563 209.816406 292.472656 209.5 C 292.664063 208.988281 292.972656 208.480469 293.398438 207.976563 C 293.820313 207.480469 294.433594 206.902344 295.238281 206.242188 C 296.480469 205.222656 297.320313 204.414063 297.761719 203.816406 C 298.195313 203.222656 298.414063 202.660156 298.417969 202.125 C 298.414063 201.570313 298.214844 201.097656 297.820313 200.714844 C 297.417969 200.332031 296.898438 200.140625 296.261719 200.140625 C 295.582031 200.140625 295.042969 200.34375 294.636719 200.75 C 294.230469 201.15625 294.023438 201.71875 294.019531 202.4375 L 292.574219 202.289063 C 292.671875 201.214844 293.042969 200.390625 293.691406 199.824219 C 294.335938 199.261719 295.203125 198.980469 296.292969 198.976563 C 297.390625 198.980469 298.261719 199.285156 298.902344 199.890625 C 299.542969 200.503906 299.863281 201.257813 299.863281 202.15625 C 299.863281 202.617188 299.769531 203.070313 299.582031 203.507813 C 299.394531 203.953125 299.082031 204.417969 298.648438 204.90625 C 298.210938 205.398438 297.488281 206.070313 296.480469 206.921875 C 295.632813 207.632813 295.089844 208.113281 294.855469 208.363281 C 294.613281 208.617188 294.417969 208.871094 294.261719 209.125 Z M 300.722656 210.476563 "/>
<path style="fill-rule:nonzero;fill:rgb(0%,0%,0%);fill-opacity:1;stroke-width:0.25;stroke-linecap:butt;stroke-linejoin:miter;stroke:rgb(98.039216%,92.156863%,84.313725%);stroke-opacity:1;stroke-miterlimit:10;" d="M 383.71875 132.246094 L 383.71875 120.792969 L 386 120.792969 L 388.710938 128.902344 C 388.957031 129.660156 389.140625 130.226563 389.257813 130.597656 C 389.386719 130.183594 389.589844 129.570313 389.867188 128.761719 L 392.609375 120.792969 L 394.648438 120.792969 L 394.648438 132.246094 L 393.1875 132.246094 L 393.1875 122.660156 L 389.859375 132.246094 L 388.492188 132.246094 L 385.179688 122.496094 L 385.179688 132.246094 Z M 396.53125 129.222656 L 397.9375 129.035156 C 398.097656 129.832031 398.371094 130.40625 398.761719 130.757813 C 399.144531 131.109375 399.617188 131.285156 400.179688 131.285156 C 400.835938 131.285156 401.394531 131.058594 401.855469 130.597656 C 402.308594 130.144531 402.539063 129.574219 402.539063 128.894531 C 402.539063 128.25 402.328125 127.71875 401.90625 127.296875 C 401.484375 126.878906 400.945313 126.667969 400.296875 126.667969 C 400.027344 126.667969 399.699219 126.722656 399.304688 126.824219 L 399.460938 125.589844 C 399.550781 125.601563 399.625 125.609375 399.6875 125.605469 C 400.28125 125.609375 400.820313 125.453125 401.304688 125.136719 C 401.78125 124.828125 402.023438 124.34375 402.023438 123.691406 C 402.023438 123.175781 401.847656 122.75 401.5 122.410156 C 401.148438 122.074219 400.699219 121.90625 400.148438 121.902344 C 399.601563 121.90625 399.144531 122.078125 398.78125 122.417969 C 398.414063 122.765625 398.179688 123.28125 398.078125 123.964844 L 396.671875 123.714844 C 396.839844 122.773438 397.230469 122.042969 397.84375 121.523438 C 398.449219 121.007813 399.207031 120.75 400.117188 120.746094 C 400.738281 120.75 401.3125 120.882813 401.84375 121.148438 C 402.367188 121.417969 402.769531 121.785156 403.050781 122.246094 C 403.324219 122.710938 403.464844 123.203125 403.46875 123.722656 C 403.464844 124.21875 403.332031 124.667969 403.070313 125.074219 C 402.800781 125.480469 402.40625 125.804688 401.890625 126.042969 C 402.5625 126.203125 403.089844 126.527344 403.46875 127.015625 C 403.839844 127.511719 404.027344 128.128906 404.03125 128.863281 C 404.027344 129.867188 403.664063 130.714844 402.9375 131.40625 C 402.207031 132.101563 401.285156 132.445313 400.171875 132.449219 C 399.164063 132.445313 398.328125 132.148438 397.667969 131.550781 C 397 130.953125 396.621094 130.175781 396.53125 129.222656 Z M 404.757813 132.246094 "/>
<path style="fill-rule:nonzero;fill:rgb(0%,0%,0%);fill-opacity:1;stroke-width:0.25;stroke-linecap:butt;stroke-linejoin:miter;stroke:rgb(98.039216%,92.156863%,84.313725%);stroke-opacity:1;stroke-miterlimit:10;" d="M 487.753906 54.421875 L 487.753906 42.96875 L 490.035156 42.96875 L 492.746094 51.078125 C 492.992188 51.835938 493.175781 52.402344 493.292969 52.773438 C 493.421875 52.359375 493.625 51.746094 493.902344 50.9375 L 496.644531 42.96875 L 498.683594 42.96875 L 498.683594 54.421875 L 497.222656 54.421875 L 497.222656 44.835938 L 493.894531 54.421875 L 492.527344 54.421875 L 489.214844 44.671875 L 489.214844 54.421875 Z M 505.066406 54.421875 L 505.066406 51.679688 L 500.097656 51.679688 L 500.097656 50.390625 L 505.324219 42.96875 L 506.472656 42.96875 L 506.472656 50.390625 L 508.019531 50.390625 L 508.019531 51.679688 L 506.472656 51.679688 L 506.472656 54.421875 Z M 505.066406 50.390625 L 505.066406 45.226563 L 501.480469 50.390625 Z M 508.792969 54.421875 "/>
<path style="fill-rule:nonzero;fill:rgb(0%,0%,0%);fill-opacity:1;stroke-width:0.25;stroke-linecap:butt;stroke-linejoin:miter;stroke:rgb(98.039216%,92.156863%,84.313725%);stroke-opacity:1;stroke-miterlimit:10;" d="M 487.753906 132.253906 L 487.753906 120.800781 L 490.035156 120.800781 L 492.746094 128.910156 C 492.992188 129.667969 493.175781 130.234375 493.292969 130.605469 C 493.421875 130.191406 493.625 129.578125 493.902344 128.769531 L 496.644531 120.800781 L 498.683594 120.800781 L 498.683594 132.253906 L 497.222656 132.253906 L 497.222656 122.667969 L 493.894531 132.253906 L 492.527344 132.253906 L 489.214844 122.503906 L 489.214844 132.253906 Z M 500.558594 129.253906 L 502.035156 129.128906 C 502.140625 129.851563 502.394531 130.390625 502.796875 130.75 C 503.191406 131.113281 503.671875 131.292969 504.238281 131.292969 C 504.910156 131.292969 505.484375 131.039063 505.957031 130.527344 C 506.421875 130.019531 506.65625 129.34375 506.660156 128.496094 C 506.65625 127.699219 506.429688 127.066406 505.984375 126.597656 C 505.53125 126.136719 504.941406 125.902344 504.214844 125.902344 C 503.757813 125.902344 503.351563 126.007813 502.988281 126.210938 C 502.621094 126.421875 502.332031 126.6875 502.128906 127.011719 L 500.808594 126.839844 L 501.917969 120.957031 L 507.613281 120.957031 L 507.613281 122.300781 L 503.042969 122.300781 L 502.425781 125.378906 C 503.113281 124.902344 503.832031 124.660156 504.589844 124.660156 C 505.585938 124.660156 506.429688 125.007813 507.121094 125.699219 C 507.804688 126.394531 508.148438 127.285156 508.152344 128.371094 C 508.148438 129.410156 507.847656 130.304688 507.246094 131.058594 C 506.507813 131.984375 505.503906 132.445313 504.238281 132.449219 C 503.191406 132.445313 502.34375 132.15625 501.6875 131.574219 C 501.027344 130.992188 500.648438 130.21875 500.558594 129.253906 Z M 508.792969 132.253906 "/>
<path style="fill-rule:nonzero;fill:rgb(0%,0%,0%);fill-opacity:1;stroke-width:0.25;stroke-linecap:butt;stroke-linejoin:miter;stroke:rgb(98.039216%,92.156863%,84.313725%);stroke-opacity:1;stroke-miterlimit:10;" d="M 487.753906 132.253906 L 487.753906 120.800781 L 490.035156 120.800781 L 492.746094 128.910156 C 492.992188 129.667969 493.175781 130.234375 493.292969 130.605469 C 493.421875 130.191406 493.625 129.578125 493.902344 128.769531 L 496.644531 120.800781 L 498.683594 120.800781 L 498.683594 132.253906 L 497.222656 132.253906 L 497.222656 122.667969 L 493.894531 132.253906 L 492.527344 132.253906 L 489.214844 122.503906 L 489.214844 132.253906 Z M 507.855469 123.605469 L 506.457031 123.714844 C 506.332031 123.167969 506.152344 122.765625 505.925781 122.511719 C 505.542969 122.113281 505.074219 121.914063 504.519531 121.910156 C 504.066406 121.914063 503.675781 122.039063 503.339844 122.285156 C 502.894531 122.613281 502.542969 123.082031 502.292969 123.699219 C 502.035156 124.320313 501.902344 125.203125 501.894531 126.347656 C 502.230469 125.832031 502.644531 125.449219 503.136719 125.199219 C 503.621094 124.949219 504.136719 124.824219 504.675781 124.824219 C 505.613281 124.824219 506.410156 125.171875 507.070313 125.859375 C 507.726563 126.554688 508.054688 127.445313 508.058594 128.535156 C 508.054688 129.257813 507.902344 129.925781 507.59375 130.539063 C 507.28125 131.160156 506.855469 131.632813 506.316406 131.957031 C 505.773438 132.285156 505.15625 132.445313 504.472656 132.449219 C 503.296875 132.445313 502.34375 132.019531 501.605469 131.15625 C 500.863281 130.296875 500.492188 128.875 500.496094 126.894531 C 500.492188 124.683594 500.902344 123.074219 501.722656 122.066406 C 502.433594 121.195313 503.394531 120.757813 504.605469 120.753906 C 505.503906 120.757813 506.242188 121.011719 506.820313 121.511719 C 507.394531 122.019531 507.738281 122.714844 507.855469 123.605469 Z M 502.113281 128.542969 C 502.109375 129.03125 502.210938 129.492188 502.421875 129.933594 C 502.625 130.378906 502.914063 130.71875 503.285156 130.945313 C 503.652344 131.179688 504.039063 131.292969 504.449219 131.292969 C 505.039063 131.292969 505.550781 131.054688 505.980469 130.574219 C 506.40625 130.097656 506.621094 129.445313 506.621094 128.621094 C 506.621094 127.832031 506.410156 127.210938 505.988281 126.75 C 505.566406 126.296875 505.035156 126.066406 504.394531 126.066406 C 503.757813 126.066406 503.21875 126.296875 502.777344 126.75 C 502.332031 127.210938 502.109375 127.808594 502.113281 128.542969 Z M 508.792969 132.253906 "/>
<path style="fill-rule:nonzero;fill:rgb(0%,0%,0%);fill-opacity:1;stroke-width:0.25;stroke-linecap:butt;stroke-linejoin:miter;stroke:rgb(98.039216%,92.156863%,84.313725%);stroke-opacity:1;stroke-miterlimit:10;" d="M 487.753906 210.476563 L 487.753906 199.023438 L 490.035156 199.023438 L 492.746094 207.132813 C 492.992188 207.890625 493.175781 208.457031 493.292969 208.828125 C 493.421875 208.414063 493.625 207.800781 493.902344 206.992188 L 496.644531 199.023438 L 498.683594 199.023438 L 498.683594 210.476563 L 497.222656 210.476563 L 497.222656 200.890625 L 493.894531 210.476563 L 492.527344 210.476563 L 489.214844 200.726563 L 489.214844 210.476563 Z M 500.652344 200.523438 L 500.652344 199.171875 L 508.066406 199.171875 L 508.066406 200.265625 C 507.335938 201.042969 506.613281 202.074219 505.898438 203.359375 C 505.179688 204.648438 504.625 205.972656 504.238281 207.328125 C 503.953125 208.289063 503.773438 209.335938 503.699219 210.476563 L 502.253906 210.476563 C 502.265625 209.578125 502.441406 208.492188 502.785156 207.210938 C 503.121094 205.9375 503.609375 204.707031 504.242188 203.519531 C 504.875 202.339844 505.546875 201.339844 506.261719 200.523438 Z M 508.792969 210.476563 "/>
<path style="fill-rule:nonzero;fill:rgb(0%,0%,0%);fill-opacity:1;stroke-width:0.25;stroke-linecap:butt;stroke-linejoin:miter;stroke:rgb(98.039216%,92.156863%,84.313725%);stroke-opacity:1;stroke-miterlimit:10;" d="M 591.792969 132.253906 L 591.792969 120.800781 L 594.074219 120.800781 L 596.785156 128.910156 C 597.03125 129.667969 597.214844 130.234375 597.332031 130.605469 C 597.460938 130.191406 597.664063 129.578125 597.941406 128.769531 L 600.683594 120.800781 L 602.722656 120.800781 L 602.722656 132.253906 L 601.261719 132.253906 L 601.261719 122.667969 L 597.933594 132.253906 L 596.566406 132.253906 L 593.253906 122.503906 L 593.253906 132.253906 Z M 606.761719 126.042969 C 606.175781 125.832031 605.742188 125.527344 605.464844 125.128906 C 605.179688 124.734375 605.039063 124.261719 605.042969 123.707031 C 605.039063 122.875 605.339844 122.175781 605.941406 121.605469 C 606.539063 121.042969 607.335938 120.757813 608.332031 120.753906 C 609.328125 120.757813 610.132813 121.046875 610.746094 121.625 C 611.351563 122.207031 611.65625 122.914063 611.660156 123.746094 C 611.65625 124.277344 611.515625 124.742188 611.242188 125.132813 C 610.960938 125.53125 610.539063 125.832031 609.972656 126.042969 C 610.671875 126.273438 611.207031 126.644531 611.578125 127.152344 C 611.941406 127.664063 612.125 128.273438 612.128906 128.980469 C 612.125 129.960938 611.777344 130.785156 611.089844 131.449219 C 610.394531 132.117188 609.484375 132.445313 608.355469 132.449219 C 607.222656 132.445313 606.3125 132.113281 605.621094 131.445313 C 604.925781 130.777344 604.578125 129.945313 604.582031 128.941406 C 604.578125 128.199219 604.765625 127.574219 605.148438 127.070313 C 605.523438 126.570313 606.0625 126.226563 606.761719 126.042969 Z M 606.480469 123.660156 C 606.476563 124.203125 606.652344 124.644531 607.003906 124.988281 C 607.351563 125.332031 607.804688 125.503906 608.363281 125.503906 C 608.902344 125.503906 609.34375 125.335938 609.695313 124.992188 C 610.039063 124.65625 610.214844 124.238281 610.214844 123.738281 C 610.214844 123.226563 610.035156 122.792969 609.679688 122.4375 C 609.320313 122.089844 608.875 121.914063 608.347656 121.910156 C 607.808594 121.914063 607.363281 122.085938 607.011719 122.425781 C 606.652344 122.773438 606.476563 123.183594 606.480469 123.660156 Z M 606.027344 128.949219 C 606.023438 129.351563 606.121094 129.742188 606.3125 130.113281 C 606.5 130.492188 606.78125 130.78125 607.160156 130.984375 C 607.53125 131.191406 607.933594 131.292969 608.371094 131.292969 C 609.039063 131.292969 609.59375 131.078125 610.035156 130.644531 C 610.46875 130.214844 610.6875 129.664063 610.691406 128.996094 C 610.6875 128.320313 610.464844 127.761719 610.015625 127.316406 C 609.5625 126.875 608.996094 126.652344 608.324219 126.652344 C 607.660156 126.652344 607.113281 126.871094 606.679688 127.308594 C 606.242188 127.746094 606.023438 128.292969 606.027344 128.949219 Z M 612.832031 132.253906 "/>
<path style="fill-rule:nonzero;fill:rgb(78.039216%,8.235294%,52.156863%);fill-opacity:1;stroke-width:0.25;stroke-linecap:butt;stroke-linejoin:miter;stroke:rgb(98.039216%,92.156863%,84.313725%);stroke-opacity:1;stroke-miterlimit:10;" d="M 352.109375 291.308594 L 352.109375 279.855469 L 359.835938 279.855469 L 359.835938 281.207031 L 353.625 281.207031 L 353.625 284.753906 L 359 284.753906 L 359 286.105469 L 353.625 286.105469 L 353.625 291.308594 Z M 366.53125 291.308594 L 365.125 291.308594 L 365.125 282.347656 C 364.78125 282.675781 364.339844 282.996094 363.792969 283.316406 C 363.242188 283.640625 362.746094 283.882813 362.3125 284.042969 L 362.3125 282.683594 C 363.09375 282.316406 363.78125 281.871094 364.375 281.339844 C 364.960938 280.816406 365.378906 280.304688 365.625 279.808594 L 366.53125 279.808594 Z M 369.46875 291.308594 "/>
<path style="fill-rule:nonzero;fill:rgb(78.039216%,8.235294%,52.156863%);fill-opacity:1;stroke-width:0.25;stroke-linecap:butt;stroke-linejoin:miter;stroke:rgb(98.039216%,92.156863%,84.313725%);stroke-opacity:1;stroke-miterlimit:10;" d="M 584.757813 81.921875 L 584.757813 70.46875 L 592.484375 70.46875 L 592.484375 71.820313 L 586.273438 71.820313 L 586.273438 75.367188 L 591.648438 75.367188 L 591.648438 76.71875 L 586.273438 76.71875 L 586.273438 81.921875 Z M 601.273438 80.570313 L 601.273438 81.921875 L 593.703125 81.921875 C 593.691406 81.585938 593.746094 81.261719 593.867188 80.945313 C 594.058594 80.433594 594.367188 79.925781 594.792969 79.421875 C 595.214844 78.925781 595.828125 78.347656 596.632813 77.6875 C 597.875 76.667969 598.714844 75.859375 599.15625 75.261719 C 599.589844 74.667969 599.808594 74.105469 599.8125 73.570313 C 599.808594 73.015625 599.609375 72.542969 599.214844 72.160156 C 598.8125 71.777344 598.292969 71.585938 597.65625 71.585938 C 596.976563 71.585938 596.4375 71.789063 596.03125 72.195313 C 595.625 72.601563 595.417969 73.164063 595.414063 73.882813 L 593.96875 73.734375 C 594.066406 72.660156 594.4375 71.835938 595.085938 71.269531 C 595.730469 70.707031 596.597656 70.425781 597.6875 70.421875 C 598.785156 70.425781 599.65625 70.730469 600.296875 71.335938 C 600.9375 71.949219 601.257813 72.703125 601.257813 73.601563 C 601.257813 74.0625 601.164063 74.515625 600.976563 74.953125 C 600.789063 75.398438 600.476563 75.863281 600.042969 76.351563 C 599.605469 76.84375 598.882813 77.515625 597.875 78.367188 C 597.027344 79.078125 596.484375 79.558594 596.25 79.808594 C 596.007813 80.0625 595.8125 80.316406 595.65625 80.570313 Z M 602.117188 81.921875 "/>
</g>
</svg>
